/* XPM */
static char * win_xpm[] = {
"104 32 2 1",
" 	c None",
".	c #FF0000",
"                                                                                                        ",
"                                                                                                        ",
"                                                                                                        ",
"                                                                                                        ",
"                                                                                                        ",
"                                                                                                        ",
"                                                                                                        ",
"              ....    ....    ....            ............            .......         ....              ",
"              ....    ....    ....            ............            .......         ....              ",
"              ....    ....    ....            ............            .......         ....              ",
"              ....    ....    ....            ............            .......         ....              ",
"              ....    ....    ....        ....            ....        ....   ...      ....              ",
"              ....    ....    ....        ....            ....        ....   ...      ....              ",
"              ....    ....    ....        ....            ....        ....   ...      ....              ",
"              ....    ....    ....        ....            ....        ....   ...      ....              ",
"              ....    ....    ....        ....            ....        ....      ...   ....              ",
"              ....    ....    ....        ....            ....        ....      ...   ....              ",
"              ....    ....    ....        ....            ....        ....      ...   ....              ",
"              ....    ....    ....        ....            ....        ....      ...   ....              ",
"                  ....    ....                ............            ....         .......              ",
"                  ....    ....                ............            ....         .......              ",
"                  ....    ....                ............            ....         .......              ",
"                  ....    ....                ............            ....         .......              ",
"                                                                                                        ",
"                                                                                                        ",
"                                                                                                        ",
"                                                                                                        ",
"                                                                                                        ",
"                                                                                                        ",
"                                                                                                        ",
"                                                                                                        ",
"                                                                                                        "};
