/* XPM */
static char *result[] = {
/* columns rows colors chars-per-pixel */
"60 60 18 1 ",
"  c black",
". c gray4",
"X c #518D1C",
"o c #A38574",
"O c #D9B847",
"+ c #F0C945",
"@ c #3B46B0",
"# c #5767FF",
"$ c #B1AFAF",
"% c #C9A793",
"& c #FAE18C",
"* c #F8D0B8",
"= c #808AEC",
"- c #C8C6C6",
"; c #F9E0D1",
": c #E4E2E2",
"> c #F4F4F4",
", c None",
/* pixels */
",,,,,,,,,,,,,,,,,,,,,,,,,,,,,,,,,,,,,,,,,,,,,,,,,,,,,,,,,,,,",
",,,,,,,,,,,,,,,,,,,,,,,,,,,,,,,,,,,,,,,,,,,,,,,,,,,,,,,,,,,,",
",,,,,,,,,,,,,,,,,,,,,,,,,,,,,,,,,,,,,,,,,,,,,,,,,,,,,,,,,,,,",
",,,,,,,,,,,,,,,,,,,,,,,,,,,,,,,,,,,,,,,,,,,,,,,,,,,,,,,,,,,,",
",,,,,,,,,,,,,,,,,,,,,,,,,,,,,,,,,,,,,,,,,,,,,,,,,,,,,,,,,,,,",
",,,,,,,,,,,,,,,,,,,,,,,,            ,,,,,,,,,,,,,,,,,,,,,,,,",
",,,,,,,,,,,,,,,,,,,,,                 ,,,,,,,,,,,,,,,,,,,,,,",
",,,,,,,,,,,,,,,,,,,,    ++&&&&&+++     ,,,,,,,,,,,,,,,,,,,,,",
",,,,,,,,,,,,,,,,,,,   ++++++++&&&&++   ,,,,,,,,,,,,,,,,,,,,,",
",,,,,,,,,,,,,,,,,,,  ++&+++++++++&&++  ,,,,,,,,,,,,,,,,,,,,,",
",,,,,,,,,,,,,,,,,,   O&+++&&&&&+++&&+  ,,,,,,,,,,,,,,,,,,,,,",
",,,,,,,,,,,,,,,,,     OO&OOOOOO&OOO&++ ,,,,,,,,,,,,,,,,,,,,,",
",,,,,,,,,,,,,,,,,   %   OO        O+++  ,,,,,,,,,,,,,,,,,,,,",
",,,,,,,,,,,,,,,,   *%%%    %%%%%%  O&+  ,,,,,,,,,,,,,,,,,,,,",
",,,,,,,,,,,,,,,   **************%% O&    ,,,,,,,,,,,,,,,,,,,",
",,,,,,,,,,,,,,,   ***************%  +    ,,,,,,,,,,,,,,,,,,,",
",,,,,,,,,,,,,,   ****************%% + %   ,,,,,,,,,,,,,,,,,,",
",,,,,,,,,,,,,,   *****************% + %   ,,,,,,,,,,,,,,,,,,",
",,,,,,,,,,,,,,  ******;;;******;;;;  %**  ,,,,,,,,,,,,,,,,,,",
",,,,,,,,,,,,,   *****     *****      %**  ..,,,,,,,,,,,,,,,,",
",,,,,,,,,,,,    ****  >XX  ***  XX>  %***   .,,,,,,,,,,,,,,,",
",,,,,,,,,,,,  % *****%   % *** %    %**** % .,,,,,,,,,,,,,,,",
",,,,,,,,,,,,  %;******%%%*******%%%******;% .,,,,,,,,,,,,,,,",
",,,,,,,,,,,,  %;************;************;% .,,,,,,,,,,,,,,,",
",,,,,,,,,,,,  %**********% ;;; %**********% .,,,,,,,,,,,,,,,",
",,,,,,,,,,,,,  % *******         ******* % .,,,,,,,,,,,,,,,,",
",,,,,,,,,,,,,,   ****** O&&+++&&O ******   ,,,,,,,,,,,,,,,,,",
",,,,,,,,,,,,,,,,   *** O&       &O ***   ,,,,,,,,,,,,,,,,,,,",
",,,,,,,,,,,,,,,,   *** O  %%%%%  O ***   ,,,,,,,,,,,,,,,,,,,",
",,,,,,,,,,,,,,,,,  ***   *%%%%%*   ***  ,,,,,,,,,,,,,,,,,,,,",
",,,,,,,,,,,,,,,,,  *******     *******  ,,,,,,,,,,,,,,,,,,,,",
",,,,,,,,,,,,,,,,,.. %%%****ooo****%%%%..,,,,,,,,,,,,,,,,,,,,",
",,,,,,,,,,,,,,,,,    o%%*********%%o    ,,,,,,,,,,,,,,,,,,,,",
",,,,,,,,,,,,,,,,,     ooooooooooooo    ..,,,,,,,,,,,,,,,,,,,",
",,,,,,,,,,,,,,,,   $                 >>...,,,,,,,,,,,,,,,,,,",
",,,,,,,,,,,,,,,,  $$-               >>>>...,,,,,,,,,,,,,,,,,",
",,,,,,,,,,,,,,,  $$-->>>@ %%%%% @>>>>>>>>>...,,,,,,,,,,,,,,,",
",,,,,,,,,,,,,,   $-->>>>@ ;%%%; @>>>>>>>>.....,,,,,,,,,,,,,,",
",,,,,,,,,,,,,,  $$  >>>>># ;*; #>>>>>->>..;**..,,,,,,,,,,,,,",
",,,,,,,,,,,,,      ->>>>>>#   #>>>>>>--..****..,,,,,,,,,,,,,",
",,,,,,,,,,,,  %%%  ->>>:>>>###>>>:>>>>-..%**%..,,,,,,,,,,,,,",
",,,,,,,,,,,,  oo%  --->>::>>>>>::>>----...%%%..,,,,,,,,,,,,,",
",,,,,,,,,,,,,        -->>>>>>>>>>>--    ,.....,,,,,,,,,,,,,,",
",,,,,,,,,,,,,,       ---------------    ,,...,,,,,,,,,,,,,,,",
",,,,,,,,,,,,,,,  ####               #@@  ,,,,,,,,,,,,,,,,,,,",
",,,,,,,,,,,,,,,  ##==###############=@@@ ,,,,,,,,,,,,,,,,,,,",
",,,,,,,,,,,,,,,,  @#==####@@ @@####=@@@  ,,,,,,,,,,,,,,,,,,,",
",,,,,,,,,,,,,,,,  #####@@@     @@@@@@@ .,,,,,,,,,,,,,,,,,,,,",
",,,,,,,,,,,,,,,,,  ###@         @@@@   ,,,,,,,,,,,,,,,,,,,,,",
",,,,,,,,,,,,,,,,,  ###@    ,,,    @@  ,,,,,,,,,,,,,,,,,,,,,,",
",,,,,,,,,,,,,,,,,,  ##@  ,,,,,,,,    ,,,,,,,,,,,,,,,,,,,,,,,",
",,,,,,,,,,,,,,,,,,  @@@  ,,,,,,,,     ,,,,,,,,,,,,,,,,,,,,,,",
",,,,,,,,,,,,,,,,,,,  @   ,,,,,,,,     ,,,,,,,,,,,,,,,,,,,,,,",
",,,,,,,,,,,,,,,,,,,,    ,,,,,,,,,,,,,,,,,,,,,,,,,,,,,,,,,,,,",
",,,,,,,,,,,,,,,,,,,     ,,,,,,,,,,,,,,,,,,,,,,,,,,,,,,,,,,,,",
",,,,,,,,,,,,,,,,,,,     ,,,,,,,,,,,,,,,,,,,,,,,,,,,,,,,,,,,,",
",,,,,,,,,,,,,,,,,,,     ,,,,,,,,,,,,,,,,,,,,,,,,,,,,,,,,,,,,",
",,,,,,,,,,,,,,,,,,,,,,,,,,,,,,,,,,,,,,,,,,,,,,,,,,,,,,,,,,,,",
",,,,,,,,,,,,,,,,,,,,,,,,,,,,,,,,,,,,,,,,,,,,,,,,,,,,,,,,,,,,",
",,,,,,,,,,,,,,,,,,,,,,,,,,,,,,,,,,,,,,,,,,,,,,,,,,,,,,,,,,,,"
};
