/* XPM */
static char *eb7781467c8f485fde25524c04a15f7cx1bZwVAmKwPwZGUy[] = {
/* columns rows colors chars-per-pixel */
"60 60 15 1 ",
"  c None",
". c black",
"X c gray3",
"o c #7C2727",
"O c #585757",
"+ c #BE3939",
"@ c #DF4848",
"# c #A38574",
"$ c #77AAB0",
"% c #C9A793",
"& c #F8D0B8",
"* c #C8C6C6",
"= c #F9E0D1",
"- c #E4E2E2",
"; c #F4F4F4",
/* pixels */
"                                                            ",
"                                                            ",
"                                                            ",
"                                                            ",
"                                                            ",
"                                                            ",
"                        ..............                      ",
"                       ....O...O..O....                     ",
"                      ...O..O...O.......                    ",
"                      ...O.........O.....                   ",
"                     .....O.....O..O......                  ",
"                    ...%..O..O..O.....%%...                 ",
"                   ...&%..O..O..O..%%%%&&..                 ",
"                   ..&=%..O..O....%&&&&=&...                ",
"                   ..&=%..O......%&&&&&==&..                ",
"                   ..&&&%.O.....%&&&&&&&=&..                ",
"                   ..&&&%.....%%&&&&&&&&&&..                ",
"                   ..&&&%....%%&&&&&&&&&&&..                ",
"                   ..&===%..%%&&&&&&&&&&&&..                ",
"                   .........%&&&&&...&&&&&..                ",
"                   .%.$;;..%&&&&&..&.&&&&&..                ",
"                  ..%%...%%&&&&&&.%&.%&&&&..                ",
"                 ..=&&%%&&&&&&&&&%%%.#&&&&..                ",
"                ..==&&&&&&&&&&&&&%%..#&&&&..                ",
"                ..=&.%&&&&&&&&&&&%..#%&&&&..                ",
"                 .......&&&&&&&&&&##%&&&&&..                ",
"                 ....OO..&&&&&&&&&&&&&&&%%..                ",
"                 ......O..&&&&&&&&&&&&%%%%..                ",
"                 ..####....&&&&&&&&&&&&&&...                ",
"                  .%%.%##...&&&&&&&&&&&&...                 ",
"                   ..#&&%#..&&&&&&&&&&&...                  ",
"                  .##&&&%%%%%%%&&&&&&&...                   ",
"                  ..%%%%%%%##%%%%&&&&...                    ",
"                  ..########............                    ",
"                   ...........X.........                    ",
"                    ......%.o;;;;;;;;;..                    ",
"                        ..%.o*.;;;;;;*..                    ",
"                        ...@;*.;;--;.*..                    ",
"                        ..@;;;*.;-;;.*..                    ",
"                       ...;;;;*.;;;.**..                    ",
"                       ..;-;;;*.;;;.**..                    ",
"                       ..-;;;**.........                    ",
"                       ..*****.%%%%.....                    ",
"                        .......&&&&.oo..                    ",
"                        ............oo..                    ",
"                        ..ooooooooooo...                    ",
"                        ..o+++@@@@++o...                    ",
"                        ...oo++@@++o...                     ",
"                         ....o++++o...                      ",
"                           ...oooo...                       ",
"                            ........                        ",
"                              ....                          ",
"                             .....                          ",
"                             .....                          ",
"                                                            ",
"                                                            ",
"                                                            ",
"                                                            ",
"                                                            ",
"                                                            "
};
