/* XPM */
static char *result[] = {
/* columns rows colors chars-per-pixel */
"60 60 16 1 ",
"  c black",
". c #518D1C",
"X c #A38574",
"o c #D9B847",
"O c #F0C945",
"+ c #3B46B0",
"@ c #5767FF",
"# c #C9A793",
"$ c #FAE18C",
"% c #F8D0B8",
"& c #808AEC",
"* c #C8C6C6",
"= c #F9E0D1",
"- c #E4E2E2",
"; c #F4F4F4",
": c None",
/* pixels */
"::::::::::::::::::::::::::::::::::::::::::::::::::::::::::::",
"::::::::::::::::::::::::::::::::::::::::::::::::::::::::::::",
"::::::::::::::::::::::::::::::::::::::::::::::::::::::::::::",
"::::::::::::::::::::::::::::::::::::::::::::::::::::::::::::",
"::::::::::::::::::::::::::::::::::::::::::::::::::::::::::::",
":::::::::::::::::::::::::           ::::::::::::::::::::::::",
"::::::::::::::::::::::                ::::::::::::::::::::::",
":::::::::::::::::::::    OO$$$$$OOO    :::::::::::::::::::::",
"::::::::::::::::::::   OOOOOOOO$$$$OO   ::::::::::::::::::::",
"::::::::::::::::::::  OO$OOOOOOOOO$$O   ::::::::::::::::::::",
":::::::::::::::::::   o$OOO$$$$$OOO$$O  ::::::::::::::::::::",
"::::::::::::::::::     oo$oooooo$ooo$O  ::::::::::::::::::::",
"::::::::::::::::::   #   oo        oOOO ::::::::::::::::::::",
":::::::::::::::::   %###    ######  o$O  :::::::::::::::::::",
":::::::::::::::::   %%%######%%%%#  o$O  :::::::::::::::::::",
"::::::::::::::::   %%%%%%%%%%%%%%## oO    ::::::::::::::::::",
"::::::::::::::::   %%%%%%%%%%%%%%%#  O    ::::::::::::::::::",
":::::::::::::::   %%%%%%%%%%%%%%%%## O #   :::::::::::::::::",
":::::::::::::::   %%%%%%%%%%%%%%%%%# O #   :::::::::::::::::",
":::::::::::::::  %%%%%%===%%%%%%====  #%%  :::::::::::::::::",
"::::::::::::::   %%%%%     %%%%%      #%%   ::::::::::::::::",
":::::::::::::    %%%%  ;..  %%%  ..;  #%%%    ::::::::::::::",
":::::::::::::  # %%%%%#   # %%% #    #%%%% #  ::::::::::::::",
":::::::::::::  #=%%%%%%###%%%%%%%###%%%%%%=#  ::::::::::::::",
":::::::::::::  #=%%%%%%%%%%%%=%%%%%%%%%%%%=#  ::::::::::::::",
":::::::::::::  #%%%%%%%%%%# === #%%%%%%%%%%#  ::::::::::::::",
"::::::::::::::  # %%%%%%%         %%%%%%% #  :::::::::::::::",
":::::::::::::::   %%%%%% o$$OOO$$o %%%%%%   ::::::::::::::::",
":::::::::::::::::   %%% o$       $o %%%   ::::::::::::::::::",
":::::::::::::::::   %%% o  #####  o %%%   ::::::::::::::::::",
"::::::::::::::::::  %%%   %#####%   %%%  :::::::::::::::::::",
"::::::::::::::::::  %%%%%%%     %%%%%%%  :::::::::::::::::::",
"::::::::::::::::::  ####%%%%XXX%%%%####  :::::::::::::::::::",
"::::::::::::::::::    X##%%%%%%%%%##X    :::::::::::::::::::",
":::::::::::::::::      XXXXXXXXXXXXX      ::::::::::::::::::",
"::::::::::::::::   ;;                 ;;   :::::::::::::::::",
":::::::::::::::   ;;;;               ;;;;   ::::::::::::::::",
"::::::::::::::   ;;;;;;;;+ ##### +;;;;;;;;   :::::::::::::::",
":::::::::::::    ;;;;;;;;+ =###= +;;;;;;;;    ::::::::::::::",
"::::::::::::   # ;;;*;;;;;@ =%= @;;;;;*;;;;    :::::::::::::",
"::::::::::::  %#   **;;;;;;@   @;;;;;;**    #  :::::::::::::",
"::::::::::::  =### *;;;;-;;;@@@;;;-;;;;* ###=  :::::::::::::",
"::::::::::::  ==%% ****;;--;;;;;--;;**** %%==  :::::::::::::",
"::::::::::::::        **;;;;;;;;;;;**         ::::::::::::::",
"::::::::::::::        ***************         ::::::::::::::",
"::::::::::::::::   +++               +++   :::::::::::::::::",
"::::::::::::::::  @@@@               @@@@  :::::::::::::::::",
"::::::::::::::::  +@&&@@@@@@@@@@@@@@@&&@+  :::::::::::::::::",
":::::::::::::::::  +@&&@@@@++ ++@@@@&&@+  ::::::::::::::::::",
":::::::::::::::::  ++@@@+++     +++@@@++  ::::::::::::::::::",
"::::::::::::::::::  ++++     :     ++++  :::::::::::::::::::",
"::::::::::::::::::   ++     :::     ++   :::::::::::::::::::",
"::::::::::::::::::::    :::::::::::    :::::::::::::::::::::",
":::::::::::::::::::     :::::::::::     ::::::::::::::::::::",
":::::::::::::::::::     :::::::::::     ::::::::::::::::::::",
"::::::::::::::::::::::::::::::::::::::::::::::::::::::::::::",
"::::::::::::::::::::::::::::::::::::::::::::::::::::::::::::",
"::::::::::::::::::::::::::::::::::::::::::::::::::::::::::::",
"::::::::::::::::::::::::::::::::::::::::::::::::::::::::::::",
"::::::::::::::::::::::::::::::::::::::::::::::::::::::::::::"
};
