/* XPM */
static char *result[] = {
/* columns rows colors chars-per-pixel */
"60 60 14 1 ",
"  c black",
". c #7C2727",
"X c #585757",
"o c #BE3939",
"O c #DF4848",
"+ c #A38574",
"@ c #77AAB0",
"# c #C9A793",
"$ c #F8D0B8",
"% c #C8C6C6",
"& c #F9E0D1",
"* c #E4E2E2",
"= c #F4F4F4",
"- c None",
/* pixels */
"------------------------------------------------------------",
"------------------------------------------------------------",
"------------------------------------------------------------",
"------------------------------------------------------------",
"------------------------------------------------------------",
"-------------------------           ------------------------",
"----------------------                ----------------------",
"---------------------  X XXXXXXXX      ---------------------",
"--------------------  XX        XXXX    --------------------",
"--------------------  X            XX   --------------------",
"-------------------     X  XXXX     XX  --------------------",
"------------------     X       XXXXX    --------------------",
"------------------   #             XX   --------------------",
"-----------------   $###    ######  X    -------------------",
"-----------------   $$$######$$$$#  X    -------------------",
"----------------   $$$$$$$$$$$$$$##   X   ------------------",
"----------------   $$$$$$$$$$$$$$$#  XX   ------------------",
"---------------   $$$$$$$$$$$$$$$$## X #   -----------------",
"---------------   $$$$$$$$$$$$$$$$$# X #   -----------------",
"---------------  $$$$$$&&&$$$$$$&&&&  #$$  -----------------",
"--------------   $$$$$     $$$$$      #$$   ----------------",
"-------------    $$$$  =@@  $$$  @@=  #$$$    --------------",
"-------------  # $$$$$#   # $$$ #    #$$$$ #  --------------",
"-------------  #&$$$$$$###$$$$$$$###$$$$$$&#  --------------",
"-------------  #&$$$$$$$$$$$$&$$$$$$$$$$$$&#  --------------",
"-------------  #$$$$$$$$$$# &&& #$$$$$$$$$$#  --------------",
"--------------  # $$$$$$$         $$$$$$$ #  ---------------",
"---------------   $$$$$$ X      X  $$$$$$   ----------------",
"-----------------   $$$ X        X  $$$   ------------------",
"-----------------   $$    #######    $$   ------------------",
"------------------  $   ### ### ###   $  -------------------",
"------------------  $  ##$$+   +$$##  $  -------------------",
"------------------  $###$$$$+++$$$$####  -------------------",
"------------------    +##$$$$$$$$$##+    -------------------",
"-----------------      +++++++++++++      ------------------",
"----------------   ==                 ==   -----------------",
"---------------   ====               ====   ----------------",
"--------------   ========. ##### .========   ---------------",
"-------------    ========. &###& .========    --------------",
"------------   # ===%=====o &$& o=====%====    -------------",
"------------  $#   %%======o   O======%%    #  -------------",
"------------  &### %====*===ooo===*====% ###&  -------------",
"------------  &&$$ %%%%==**=====**==%%%% $$&&  -------------",
"--------------        %%===========%%         --------------",
"--------------        %%%%%%%%%%%%%%%         --------------",
"----------------   ...               ...   -----------------",
"----------------  oooo               oooo  -----------------",
"----------------  .oOOoooooooooooooooOOo.  -----------------",
"-----------------  .oOOoooo.. ..ooooOOo.  ------------------",
"-----------------  ..ooo...     ...ooo..  ------------------",
"------------------  ....     -     ....  -------------------",
"------------------   ..     ---     ..   -------------------",
"--------------------    -----------    ---------------------",
"-------------------     -----------     --------------------",
"-------------------     -----------     --------------------",
"------------------------------------------------------------",
"------------------------------------------------------------",
"------------------------------------------------------------",
"------------------------------------------------------------",
"------------------------------------------------------------"
};
