/* XPM */
static char *result[] = {
/* columns rows colors chars-per-pixel */
"60 60 14 1 ",
"  c black",
". c #D9B847",
"X c #F0C945",
"o c #3B46B0",
"O c #5767FF",
"+ c #C9A793",
"@ c #FAE18C",
"# c #F8D0B8",
"$ c #808AEC",
"% c #C8C6C6",
"& c #F9E0D1",
"* c #E4E2E2",
"= c #F4F4F4",
"- c None",
/* pixels */
"------------------------------------------------------------",
"------------------------------------------------------------",
"------------------------------------------------------------",
"------------------------------------------------------------",
"------------------------------------------------------------",
"-------------------------           ------------------------",
"----------------------                ----------------------",
"---------------------   XXXX@@@@@@@    ---------------------",
"--------------------  .XX@@@@XXXXXX@X   --------------------",
"--------------------  .X@XXXXX@@@@XXXX  --------------------",
"-------------------   .....@@X.      X  --------------------",
"------------------        ....  ++++    --------------------",
"------------------   ++++      ++####   --------------------",
"-----------------   ###+++++++++#####    -------------------",
"-----------------   #############&&###   -------------------",
"----------------   ###&&&########&&&###   ------------------",
"----------------   ####&&&######&&&####   ------------------",
"---------------   ######################   -----------------",
"---------------   ######################   -----------------",
"---------------  ########################  -----------------",
"--------------   ########################   ----------------",
"-------------    #########################    --------------",
"-------------  + ######################### +  --------------",
"-------------  ++#########################++  --------------",
"-------------  ++#########################++  --------------",
"-------------  +++#######################+++  --------------",
"--------------  + ####################### +  ---------------",
"---------------   #######################   ----------------",
"-----------------   #+###############+#   ------------------",
"-----------------   #+++###########+++#   ------------------",
"------------------  ###+++++++++++++###  -------------------",
"------------------  #####+++++++++#####  -------------------",
"------------------  ###################  -------------------",
"------------------    ###############    -------------------",
"-----------------                         ------------------",
"----------------   ===               ===   -----------------",
"---------------   =======================   ----------------",
"--------------   =========%%===%%=========   ---------------",
"-------------    ==========%%%%%==========    --------------",
"-------------  + ===%=================%====    -------------",
"------------- #+   %%=================%%    +  -------------",
"------------- &+++ %====*=========*====% +++&  -------------",
"------------- &&## %%%%==**=====**==%%%% ##&&  -------------",
"--------------      %%%%===========%%%%       --------------",
"--------------       %%%%%%%%%%%%%%%%%        --------------",
"----------------   o                   o   -----------------",
"----------------  OO                   OO  -----------------",
"----------------  oO$$OOOOOOOOOOOOOOO$$Oo  -----------------",
"-----------------  oO$$OOOOoo ooOOOO$$Oo  ------------------",
"-----------------  ooOOOooo     oooOOOoo  ------------------",
"------------------  oooo     -     oooo  -------------------",
"------------------   oo     ---     oo   -------------------",
"--------------------    -----------    ---------------------",
"-------------------     -----------     --------------------",
"-------------------     -----------     --------------------",
"------------------------------------------------------------",
"------------------------------------------------------------",
"------------------------------------------------------------",
"------------------------------------------------------------",
"------------------------------------------------------------"
};
