/* XPM */
static char *_3dc6177d77f4fadd5f106fb8bd04b60HabjSw4mnXp7SXZi[] = {
/* columns rows colors chars-per-pixel */
"60 60 15 1 ",
"  c None",
". c black",
"X c #010101",
"o c #090909",
"O c #7C2727",
"+ c #585757",
"@ c #BE3939",
"# c #DF4848",
"$ c #B39887",
"% c #C9A793",
"& c #F8D0B8",
"* c #C8C6C6",
"= c #F9E0D1",
"- c #E4E2E2",
"; c #F4F4F4",
/* pixels */
"                                                            ",
"                                                            ",
"                                                            ",
"                                                            ",
"                                                            ",
"                         ...........                        ",
"                      ................                      ",
"                     ..+.++++++++......                     ",
"                    ..++........++++....                    ",
"                    ..+............++...                    ",
"                   .....+..++++.....++..                    ",
"                  .....+.......+%%%%....                    ",
"                  ...%%%%......%%&&&&...                    ",
"                 ...&&&%%%%%%%%%&&&&&....                   ",
"                 ...&&&&&&&&&&&&&==&&&...                   ",
"                ...&&&===&&&&&&&&===&&&...                  ",
"                ...&&&&===&&&&&&===&&&&...                  ",
"               ...&&&&&&&&&&&&&&&&&&&&&&...                 ",
"               ...&&&&&&&&&&&&&&&&&&&&&&...                 ",
"               ..&&&&&&&&&&&&&&&&&&&&&&&&..                 ",
"              ...&&&&&&&&&&&&&&&&&&&&&&&&...                ",
"             ....&&&&&&&&&&&&&&&&&&&&&&&&&....              ",
"             ..%.&&&&&&&&&&&&&&&&&&&&&&&&&.%..              ",
"             ..%%&&&&&&&&&&&&&&&&&&&&&&&&&%%..              ",
"             ..%%&&&&&&&&&&&&&&&&&&&&&&&&&%%..              ",
"             ..%%%&&&&&&&&&&&&&&&&&&&&&&&%%%..              ",
"              ..%.&&&&&&&&&&&&&&&&&&&&&&&.%..               ",
"               ...&&&&&&&&&&&&&&&&&&&&&&&...                ",
"                 ...&%&&&&&&&&&&&&&&&%&...                  ",
"                 ...&%%%&&&&&&&&&&&%%%&...                  ",
"                  ..&&&%%%%%%%%%%%%%&&&..                   ",
"                  ..&&&&&%%%%%%%%%&&&&&..                   ",
"                  ..&&&&&&&&&&&&&&&&&&&..                   ",
"                  ....&&&&&&&&&&&&&&&.....                  ",
"                 ...........................                ",
"                ...;;;...............;;;;;....              ",
"               ...;;;;;;;;;;;;;;;;;;;;;;;;;;....            ",
"              o.*;o;;;;;;;**;;;**;;;;;;;;o;......           ",
"              oo**o;;;;;;;;*****;;;;;;;;;o..==&&..          ",
"             oooooo;*;;;;;;;;;;;;;;;;;*;;o.&&&&&..          ",
"            oo%%...**;;;;;;;;;;;;;;;;;***..%&&&%..          ",
"            oo$%%o.*;;;;-;;;;;;;;;-;;;;**...%%%%..          ",
"            ..$$$o.****;;--;;;;;--;;****.. ......           ",
"             .......****;;;;;;;;;;;****...  ....            ",
"                .....*****************...X                  ",
"                o.OO...................OOX.                 ",
"                 .OO...................OOX.                 ",
"                 ..@#OOOOOOOOOOOOOOOOO#@OO.                 ",
"                  ..@##@@@@OO.OOOOO@##@OOXX                 ",
"                  ..O@@@@OO.....OOOOOOOOXX                  ",
"                   ..O@@@.........OOOOXXX                   ",
"                   ..O@@....    ....OOXX                    ",
"                    ..@O..         XXXX                     ",
"                    ..OO..         XXXXX                    ",
"                     ..O..         XXXXX                    ",
"                      ....                                  ",
"                     .....                                  ",
"                     .....                                  ",
"                                                            ",
"                                                            "
};
