/* XPM */
static char *result[] = {
/* columns rows colors chars-per-pixel */
"60 60 17 1 ",
"  c black",
". c gray4",
"X c #601E1E",
"o c #7C2727",
"O c #585757",
"+ c #BE3939",
"@ c #DF4848",
"# c #A38574",
"$ c #77AAB0",
"% c #B1AFAF",
"& c #C9A793",
"* c #F8D0B8",
"= c #C8C6C6",
"- c #F9E0D1",
"; c #E4E2E2",
": c #F4F4F4",
"> c None",
/* pixels */
">>>>>>>>>>>>>>>>>>>>>>>>>>>>>>>>>>>>>>>>>>>>>>>>>>>>>>>>>>>>",
">>>>>>>>>>>>>>>>>>>>>>>>>>>>>>>>>>>>>>>>>>>>>>>>>>>>>>>>>>>>",
">>>>>>>>>>>>>>>>>>>>>>>>>>>>>>>>>>>>>>>>>>>>>>>>>>>>>>>>>>>>",
">>>>>>>>>>>>>>>>>>>>>>>>>>>>>>>>>>>>>>>>>>>>>>>>>>>>>>>>>>>>",
">>>>>>>>>>>>>>>>>>>>>>>>           >>>>>>>>>>>>>>>>>>>>>>>>>",
">>>>>>>>>>>>>>>>>>>>>>>>           >>>>>>>>>>>>>>>>>>>>>>>>>",
">>>>>>>>>>>>>>>>>>>>>                >>>>>>>>>>>>>>>>>>>>>>>",
">>>>>>>>>>>>>>>>>>>>  O OOOOOOOO      >>>>>>>>>>>>>>>>>>>>>>",
">>>>>>>>>>>>>>>>>>>  OO        OOOO    >>>>>>>>>>>>>>>>>>>>>",
">>>>>>>>>>>>>>>>>>>  O            OO   >>>>>>>>>>>>>>>>>>>>>",
">>>>>>>>>>>>>>>>>>     O  OOOO     OO  >>>>>>>>>>>>>>>>>>>>>",
">>>>>>>>>>>>>>>>>     O       OOOOO    >>>>>>>>>>>>>>>>>>>>>",
">>>>>>>>>>>>>>>>>   &             OO   >>>>>>>>>>>>>>>>>>>>>",
">>>>>>>>>>>>>>>>   *&&&    &&&&&&  O    >>>>>>>>>>>>>>>>>>>>",
">>>>>>>>>>>>>>>   **************&&   O   >>>>>>>>>>>>>>>>>>>",
">>>>>>>>>>>>>>>   ***************&  OO   >>>>>>>>>>>>>>>>>>>",
">>>>>>>>>>>>>>   ****************&& O &   >>>>>>>>>>>>>>>>>>",
">>>>>>>>>>>>>>   *****************& O &   >>>>>>>>>>>>>>>>>>",
">>>>>>>>>>>>>>  ******---******----  &**  >>>>>>>>>>>>>>>>>>",
">>>>>>>>>>>>>   *****     *****      &**   >>>>>>>>>>>>>>>>>",
">>>>>>>>>>>>    ****  :$$  ***  $$:  &***   >>>>>>>>>>>>>>>>",
">>>>>>>>>>>>  & *****&   & *** &    &**** & >>>>>>>>>>>>>>>>",
">>>>>>>>>>>>  &-******&&&*******&&&******-& >>>>>>>>>>>>>>>>",
">>>>>>>>>>>>  &-************-************-& >>>>>>>>>>>>>>>>",
">>>>>>>>>>>>  &**********& --- &**********& >>>>>>>>>>>>>>>>",
">>>>>>>>>>>>>  & *******         ******* & >>>>>>>>>>>>>>>>>",
">>>>>>>>>>>>>>   ****** O      O  ******   >>>>>>>>>>>>>>>>>",
">>>>>>>>>>>>>>>>   *** O        O  ***   >>>>>>>>>>>>>>>>>>>",
">>>>>>>>>>>>>>>>   **    &&&&&&&    **   >>>>>>>>>>>>>>>>>>>",
">>>>>>>>>>>>>>>>>  *   &&& &&& &&&   *  >>>>>>>>>>>>>>>>>>>>",
">>>>>>>>>>>>>>>>>  *  &&**#   #**&&  *  >>>>>>>>>>>>>>>>>>>>",
">>>>>>>>>>>>>>>>>..*&&&****###****&&&&..>>>>>>>>>>>>>>>>>>>>",
">>>>>>>>>>>>>>>>>    #&&*********&&#    >>>>>>>>>>>>>>>>>>>>",
">>>>>>>>>>>>>>>>>     #############    ..>>>>>>>>>>>>>>>>>>>",
">>>>>>>>>>>>>>>>   %                 ::...>>>>>>>>>>>>>>>>>>",
">>>>>>>>>>>>>>>>  %%=               ::::...>>>>>>>>>>>>>>>>>",
">>>>>>>>>>>>>>>  %%==:::o &&&&& o:::::::::...>>>>>>>>>>>>>>>",
">>>>>>>>>>>>>>   %==::::o -&&&- o::::::::.....>>>>>>>>>>>>>>",
">>>>>>>>>>>>>>  %%  :::::+ -*- +:::::=::..-**...>>>>>>>>>>>>",
">>>>>>>>>>>>>      =::::::@   +::::::==..****...>>>>>>>>>>>>",
">>>>>>>>>>>>  &&&  =:::;:::+++:::;::::=..&**&...>>>>>>>>>>>>",
">>>>>>>>>>>>  ##&  ===::;;:::::;;::====...&&&...>>>>>>>>>>>>",
">>>>>>>>>>>>>        ==:::::::::::==    >.....>>>>>>>>>>>>>>",
">>>>>>>>>>>>>>       ===============    >>...>>>>>>>>>>>>>>>",
">>>>>>>>>>>>>>>  ++++               +oo  >>>>>>>>>>>>>>>>>>>",
">>>>>>>>>>>>>>>  ++@@+++++++++++++++@ooX >>>>>>>>>>>>>>>>>>>",
">>>>>>>>>>>>>>>>  o+@@++++oo oo++++@oXX  >>>>>>>>>>>>>>>>>>>",
">>>>>>>>>>>>>>>>  +++++ooo     oooooXX .>>>>>>>>>>>>>>>>>>>>",
">>>>>>>>>>>>>>>>>  +++o         oooX   >>>>>>>>>>>>>>>>>>>>>",
">>>>>>>>>>>>>>>>>  +++o    >>>    XX  >>>>>>>>>>>>>>>>>>>>>>",
">>>>>>>>>>>>>>>>>>  ++o  >>>>>>>>    >>>>>>>>>>>>>>>>>>>>>>>",
">>>>>>>>>>>>>>>>>>  ooo  >>>>>>>>     >>>>>>>>>>>>>>>>>>>>>>",
">>>>>>>>>>>>>>>>>>>  o   >>>>>>>>     >>>>>>>>>>>>>>>>>>>>>>",
">>>>>>>>>>>>>>>>>>>>    >>>>>>>>>>>>>>>>>>>>>>>>>>>>>>>>>>>>",
">>>>>>>>>>>>>>>>>>>     >>>>>>>>>>>>>>>>>>>>>>>>>>>>>>>>>>>>",
">>>>>>>>>>>>>>>>>>>     >>>>>>>>>>>>>>>>>>>>>>>>>>>>>>>>>>>>",
">>>>>>>>>>>>>>>>>>>     >>>>>>>>>>>>>>>>>>>>>>>>>>>>>>>>>>>>",
">>>>>>>>>>>>>>>>>>>>>>>>>>>>>>>>>>>>>>>>>>>>>>>>>>>>>>>>>>>>",
">>>>>>>>>>>>>>>>>>>>>>>>>>>>>>>>>>>>>>>>>>>>>>>>>>>>>>>>>>>>",
">>>>>>>>>>>>>>>>>>>>>>>>>>>>>>>>>>>>>>>>>>>>>>>>>>>>>>>>>>>>"
};
