/* XPM */
static char *result[] = {
/* columns rows colors chars-per-pixel */
"60 60 17 1 ",
"  c black",
". c gray3",
"X c #518D1C",
"o c #A38574",
"O c #D9B847",
"+ c #F0C945",
"@ c #3B46B0",
"# c #5767FF",
"$ c #C9A793",
"% c #FAE18C",
"& c #F8D0B8",
"* c #808AEC",
"= c #C8C6C6",
"- c #F9E0D1",
"; c #E4E2E2",
": c #F4F4F4",
"> c None",
/* pixels */
">>>>>>>>>>>>>>>>>>>>>>>>>>>>>>>>>>>>>>>>>>>>>>>>>>>>>>>>>>>>",
">>>>>>>>>>>>>>>>>>>>>>>>>>>>>>>>>>>>>>>>>>>>>>>>>>>>>>>>>>>>",
">>>>>>>>>>>>>>>>>>>>>>>>>>>>>>>>>>>>>>>>>>>>>>>>>>>>>>>>>>>>",
">>>>>>>>>>>>>>>>>>>>>>>>>>>>>>>>>>>>>>>>>>>>>>>>>>>>>>>>>>>>",
">>>>>>>>>>>>>>>>>>>>>>>>>>>>>>>>>>>>>>>>>>>>>>>>>>>>>>>>>>>>",
">>>>>>>>>>>>>>>>>>>>>>>>>>>>>>>>>>>>>>>>>>>>>>>>>>>>>>>>>>>>",
">>>>>>>>>>>>>>>>>>>>>>              >>>>>>>>>>>>>>>>>>>>>>>>",
">>>>>>>>>>>>>>>>>>>>>  +%++%++%++%+  >>>>>>>>>>>>>>>>>>>>>>>",
">>>>>>>>>>>>>>>>>>>>  ++%++%+%%+%++%  >>>>>>>>>>>>>>>>>>>>>>",
">>>>>>>>>>>>>>>>>>>   +%++%++%++%+OO  >>>>>>>>>>>>>>>>>>>>>>",
">>>>>>>>>>>>>>>>>>     OO+%++++++O     >>>>>>>>>>>>>>>>>>>>>",
">>>>>>>>>>>>>>>>>   $$    OOOOOOOO $$   >>>>>>>>>>>>>>>>>>>>",
">>>>>>>>>>>>>>>>>  &&$$$$         $$&&   >>>>>>>>>>>>>>>>>>>",
">>>>>>>>>>>>>>>>   &-&&&$$$$$$$$$$$&&-&  >>>>>>>>>>>>>>>>>>>",
">>>>>>>>>>>>>>>>  &--&&&&&&&&&&&&&&&&-&  >>>>>>>>>>>>>>>>>>>",
">>>>>>>>>>>>>>>>  &-&&&&&&&&&&&&&&&&&&&  >>>>>>>>>>>>>>>>>>>",
">>>>>>>>>>>>>>>>  &&&&&&&&&&&&&&&&&&&&&  >>>>>>>>>>>>>>>>>>>",
">>>>>>>>>>>>>>>>  &&&&&&&&&&&&&&&&&&&&&  >>>>>>>>>>>>>>>>>>>",
">>>>>>>>>>>>>>>>  &&&&&&&&&&&&&&&&&---&  >>>>>>>>>>>>>>>>>>>",
">>>>>>>>>>>>>>>>  &&&&&   &&&&&&&&       >>>>>>>>>>>>>>>>>>>",
">>>>>>>>>>>>>>>>  &&&&& &  &&&&&&  ::X $ >>>>>>>>>>>>>>>>>>>",
">>>>>>>>>>>>>>>>  &&&&$ &$ &&&&&&&$   $$  >>>>>>>>>>>>>>>>>>",
">>>>>>>>>>>>>>>>  &&&&o $$$&&&&&&&&&$$&&-  >>>>>>>>>>>>>>>>>",
">>>>>>>>>>>>>>>>  &&&&o  $$&&&&&&&&&&&&&--  >>>>>>>>>>>>>>>>",
">>>>>>>>>>>>>>>>  &&&&$o  $&&&&&&&&&&&$ &-  >>>>>>>>>>>>>>>>",
">>>>>>>>>>>>>>>>  &&&&&$oo&&&&&&&&&&       >>>>>>>>>>>>>>>>>",
">>>>>>>>>>>>>>>>  $$&&&&&&&&&&&&&&& O%%++  >>>>>>>>>>>>>>>>>",
">>>>>>>>>>>>>>>>  $$$$&&&&&&&&&&&& O%      >>>>>>>>>>>>>>>>>",
">>>>>>>>>>>>>>>>   &&&&&&&&&&&&&&&   oooo  >>>>>>>>>>>>>>>>>",
">>>>>>>>>>>>>>>>>   &&&&&&&&&&&&&&&&&$$$$ >>>>>>>>>>>>>>>>>>",
">>>>>>>>>>>>>>>>>>   &&&&&&&&&&&&&&&&&   >>>>>>>>>>>>>>>>>>>",
">>>>>>>>>>>>>>>>>>>   &&&&&&&&&&&&&&&&&oo >>>>>>>>>>>>>>>>>>",
">>>>>>>>>>>>>>>>>>>>   &&&&$$$$oo$$$$$$$  >>>>>>>>>>>>>>>>>>",
">>>>>>>>>>>>>>>>>>>>            oooooooo  >>>>>>>>>>>>>>>>>>",
">>>>>>>>>>>>>>>>>>>>         .           >>>>>>>>>>>>>>>>>>>",
">>>>>>>>>>>>>>>>>>>>  ==  :::::@ $      >>>>>>>>>>>>>>>>>>>>",
">>>>>>>>>>>>>>>>>>>>  =  :::: =@ $    >>>>>>>>>>>>>>>>>>>>>>",
">>>>>>>>>>>>>>>>>>>>  = ::::  =:#   =  >>>>>>>>>>>>>>>>>>>>>",
">>>>>>>>>>>>>>>>>>>>    ::   =:::#  =    >>>>>>>>>>>>>>>>>>>",
">>>>>>>>>>>>>>>>>>>> $$$   ==:::::    $$ >>>>>>>>>>>>>>>>>>>",
">>>>>>>>>>>>>>>>>>>> &&&$ ==:::::;:  $$$ >>>>>>>>>>>>>>>>>>>",
">>>>>>>>>>>>>>>>>>>>  &&&    ==:::;     >>>>>>>>>>>>>>>>>>>>",
">>>>>>>>>>>>>>>>>>>>          =====  >>>>>>>>>>>>>>>>>>>>>>>",
">>>>>>>>>>>>>>>>>>>>  @@@@@@        >>>>>>>>>>>>>>>>>>>>>>>>",
">>>>>>>>>>>>>>>>>>>>  @####@        >>>>>>>>>>>>>>>>>>>>>>>>",
">>>>>>>>>>>>>>>>>>>>   @##**@@@@@@  >>>>>>>>>>>>>>>>>>>>>>>>",
">>>>>>>>>>>>>>>>>>>  @  @@##****#@  >>>>>>>>>>>>>>>>>>>>>>>>",
">>>>>>>>>>>>>>>>>>  @@@  @@@##*##@  >>>>>>>>>>>>>>>>>>>>>>>>",
">>>>>>>>>>>>>>>>>>    @@    @@@##@@    >>>>>>>>>>>>>>>>>>>>>",
">>>>>>>>>>>>>>>>>>             @@@     >>>>>>>>>>>>>>>>>>>>>",
">>>>>>>>>>>>>>>>>>>     >>>>>         >>>>>>>>>>>>>>>>>>>>>>",
">>>>>>>>>>>>>>>>>>>>    >>>>>>>>>    >>>>>>>>>>>>>>>>>>>>>>>",
">>>>>>>>>>>>>>>>>>>>>>>>>>>>>>>>>>>>>>>>>>>>>>>>>>>>>>>>>>>>",
">>>>>>>>>>>>>>>>>>>>>>>>>>>>>>>>>>>>>>>>>>>>>>>>>>>>>>>>>>>>",
">>>>>>>>>>>>>>>>>>>>>>>>>>>>>>>>>>>>>>>>>>>>>>>>>>>>>>>>>>>>",
">>>>>>>>>>>>>>>>>>>>>>>>>>>>>>>>>>>>>>>>>>>>>>>>>>>>>>>>>>>>",
">>>>>>>>>>>>>>>>>>>>>>>>>>>>>>>>>>>>>>>>>>>>>>>>>>>>>>>>>>>>",
">>>>>>>>>>>>>>>>>>>>>>>>>>>>>>>>>>>>>>>>>>>>>>>>>>>>>>>>>>>>",
">>>>>>>>>>>>>>>>>>>>>>>>>>>>>>>>>>>>>>>>>>>>>>>>>>>>>>>>>>>>",
">>>>>>>>>>>>>>>>>>>>>>>>>>>>>>>>>>>>>>>>>>>>>>>>>>>>>>>>>>>>"
};
