/* XPM */
static char *_e955ba1ec224d60c15356f8204311acpHAqZPM63AXikbUt[] = {
/* columns rows colors chars-per-pixel */
"60 60 15 1 ",
"  c None",
". c black",
"X c #010101",
"o c #090909",
"O c #7C2727",
"+ c #585757",
"@ c #BE3939",
"# c #DF4848",
"$ c #B39887",
"% c #C9A793",
"& c #F8D0B8",
"* c #C8C6C6",
"= c #F9E0D1",
"- c #E4E2E2",
"; c #F4F4F4",
/* pixels */
"                                                            ",
"                                                            ",
"                                                            ",
"                                                            ",
"                           ...........                      ",
"                        ................                    ",
"                       ..+.++++++++......                   ",
"                      ..++........++++....                  ",
"                      ..+............++...                  ",
"                     .....+..++++.....++..                  ",
"                    .....+.......+%%%%....                  ",
"                    ...%%%%......%%&&&&...                  ",
"                   ...&&&%%%%%%%%%&&&&&....                 ",
"                   ...&&&&&&&&&&&&&==&&&...                 ",
"                  ...&&&===&&&&&&&&===&&&...                ",
"                  ...&&&&===&&&&&&===&&&&...                ",
"                 ...&&&&&&&&&&&&&&&&&&&&&&...               ",
"                 ...&&&&&&&&&&&&&&&&&&&&&&...               ",
"                 ..&&&&&&&&&&&&&&&&&&&&&&&&..               ",
"                ...&&&&&&&&&&&&&&&&&&&&&&&&...              ",
"               ....&&&&&&&&&&&&&&&&&&&&&&&&&....            ",
"               ..%.&&&&&&&&&&&&&&&&&&&&&&&&&.%..            ",
"               ..%%&&&&&&&&&&&&&&&&&&&&&&&&&%%..            ",
"               ..%%&&&&&&&&&&&&&&&&&&&&&&&&&%%..            ",
"               ..%%%&&&&&&&&&&&&&&&&&&&&&&&%%%..            ",
"                ..%.&&&&&&&&&&&&&&&&&&&&&&&.%..             ",
"                 ...&&&&&&&&&&&&&&&&&&&&&&&...              ",
"                   ...&%&&&&&&&&&&&&&&&%&...                ",
"                   ...&%%%&&&&&&&&&&&%%%&...                ",
"                    ..&&&%%%%%%%%%%%%%&&&..                 ",
"                    ..&&&&&%%%%%%%%%&&&&&..                 ",
"                    ..&&&&&&&&&&&&&&&&&&&..                 ",
"                   .....&&&&&&&&&&&&&&&....                 ",
"                 ...........................                ",
"               ....;;;;;...............;;;...               ",
"             ....;;;;;;;;;;;;;;;;;;;;;;;;;;...              ",
"            ......;o;;;;;;;;**;;;**;;;;;;;o;*.o             ",
"           ..&&==..o;;;;;;;;;*****;;;;;;;;o**oo             ",
"           ..&&&&&.o;;*;;;;;;;;;;;;;;;;;*;oooooo            ",
"           ..%&&&%..***;;;;;;;;;;;;;;;;;**...%%oo           ",
"           ..%%%%...**;;;;-;;;;;;;;;-;;;;*.o%%$oo           ",
"            ...... ..****;;--;;;;;--;;****.o$$$..           ",
"             ....  XX.****;;;;;;;;;;;****.......            ",
"                   X...*****************.....               ",
"                  XXOO...................OO.o               ",
"                  XXOO...................OO.                ",
"                  XOO@#OOOOOOOOOOOOOOOOO#@..                ",
"                  XXOO@##@OOOOO.OO@@@@##@..                 ",
"                   ..OOOOOOOO.....OO@@@@O..                 ",
"                    ...OOOO.........@@@O..                  ",
"                     XXOO....    ....@@O..                  ",
"                      XXXX         ..O@..                   ",
"                     XXXXX         ..OO..                   ",
"                     XXXXX         ..O..                    ",
"                                   ....                     ",
"                                   .....                    ",
"                                   .....                    ",
"                                                            ",
"                                                            ",
"                                                            "
};
