/* XPM */
static char *result[] = {
/* columns rows colors chars-per-pixel */
"60 60 17 1 ",
"  c black",
". c #010101",
"X c #090909",
"o c #D9B847",
"O c #F0C945",
"+ c #3B46B0",
"@ c #5767FF",
"# c #B39887",
"$ c #C9A793",
"% c #FAE18C",
"& c #F8D0B8",
"* c #808AEC",
"= c #C8C6C6",
"- c #F9E0D1",
"; c #E4E2E2",
": c #F4F4F4",
"> c None",
/* pixels */
">>>>>>>>>>>>>>>>>>>>>>>>>>>>>>>>>>>>>>>>>>>>>>>>>>>>>>>>>>>>",
">>>>>>>>>>>>>>>>>>>>>>>>>>>>>>>>>>>>>>>>>>>>>>>>>>>>>>>>>>>>",
">>>>>>>>>>>>>>>>>>>>>>>>>>>>>>>>>>>>>>>>>>>>>>>>>>>>>>>>>>>>",
">>>>>>>>>>>>>>>>>>>>>>>>>>>>>>>>>>>>>>>>>>>>>>>>>>>>>>>>>>>>",
">>>>>>>>>>>>>>>>>>>>>>>>>           >>>>>>>>>>>>>>>>>>>>>>>>",
">>>>>>>>>>>>>>>>>>>>>>                >>>>>>>>>>>>>>>>>>>>>>",
">>>>>>>>>>>>>>>>>>>>>   OOOO%%%%%%%O   >>>>>>>>>>>>>>>>>>>>>",
">>>>>>>>>>>>>>>>>>>>  oOO%%%%OOOOOO%O   >>>>>>>>>>>>>>>>>>>>",
">>>>>>>>>>>>>>>>>>>>  oO%OOOOO%%%%OOOO  >>>>>>>>>>>>>>>>>>>>",
">>>>>>>>>>>>>>>>>>>   ooooo%%Oo      O  >>>>>>>>>>>>>>>>>>>>",
">>>>>>>>>>>>>>>>>>        oooo  $$$$    >>>>>>>>>>>>>>>>>>>>",
">>>>>>>>>>>>>>>>>>   $$$$      $$&&&&   >>>>>>>>>>>>>>>>>>>>",
">>>>>>>>>>>>>>>>>   &&&$$$$$$$$$&&&&&    >>>>>>>>>>>>>>>>>>>",
">>>>>>>>>>>>>>>>>   &&&&&&&&&&&&&--&&&   >>>>>>>>>>>>>>>>>>>",
">>>>>>>>>>>>>>>>   &&&---&&&&&&&&---&&&   >>>>>>>>>>>>>>>>>>",
">>>>>>>>>>>>>>>>   &&&---&&&&&&&&---&&&   >>>>>>>>>>>>>>>>>>",
">>>>>>>>>>>>>>>>   &&&&---&&&&&&---&&&&   >>>>>>>>>>>>>>>>>>",
">>>>>>>>>>>>>>    &&&&&&&&&&&&&&&&&&&&&&   >>>>>>>>>>>>>>>>>",
">>>>>>>>>>>>>>    &&&&&&&&&&&&&&&&&&&&&&   >>>>>>>>>>>>>>>>>",
">>>>>>>>>>>>>>   &&&&&&&&&&&&&&&&&&&&&&&&  >>>>>>>>>>>>>>>>>",
">>>>>>>>>>>>>    &&&&&&&&&&&&&&&&&&&&&&&&   >>>>>>>>>>>>>>>>",
">>>>>>>>>>>>     &&&&&&&&&&&&&&&&&&&&&&&&&    >>>>>>>>>>>>>>",
">>>>>>>>>>>>  $$ &&&&&&&&&&&&&&&&&&&&&&&&& $  >>>>>>>>>>>>>>",
">>>>>>>>>>>>  $$$&&&&&&&&&&&&&&&&&&&&&&&&&$$  >>>>>>>>>>>>>>",
">>>>>>>>>>>>  $$$&&&&&&&&&&&&&&&&&&&&&&&&&$$  >>>>>>>>>>>>>>",
">>>>>>>>>>>>  $$$$&&&&&&&&&&&&&&&&&&&&&&&$$$  >>>>>>>>>>>>>>",
">>>>>>>>>>>>>   $ &&&&&&&&&&&&&&&&&&&&&&& $   >>>>>>>>>>>>>>",
">>>>>>>>>>>>>>    &&&&&&&&&&&&&&&&&&&&&&&   >>>>>>>>>>>>>>>>",
">>>>>>>>>>>>>>>>>   &$&&&&&&&&&&&&&&&$&   >>>>>>>>>>>>>>>>>>",
">>>>>>>>>>>>>>>>>   &$$$&&&&&&&&&&&$$$&   >>>>>>>>>>>>>>>>>>",
">>>>>>>>>>>>>>>>>>  &&&$$$$$$$$$$$$$&&&  >>>>>>>>>>>>>>>>>>>",
">>>>>>>>>>>>>>>>>>  &&&&&$$$$$$$$$&&&&&  >>>>>>>>>>>>>>>>>>>",
">>>>>>>>>>>>>>>>>>  &&&&&&&&&&&&&&&&&&&  >>>>>>>>>>>>>>>>>>>",
">>>>>>>>>>>>>>>>>>    &&&&&&&&&&&&&&&     >>>>>>>>>>>>>>>>>>",
">>>>>>>>>>>>>>>>>                           >>>>>>>>>>>>>>>>",
">>>>>>>>>>>>>>>>   :::               :::::     >>>>>>>>>>>>>",
">>>>>>>>>>>>>>    ::::::::::::::::::::::::::     >>>>>>>>>>>",
">>>>>>>>>>>>>X  =:X:::::::==:::==::::::::X:       >>>>>>>>>>",
">>>>>>>>>>>>>XXX==X::::::::=====:::::::::X  ---&&  >>>>>>>>>",
">>>>>>>>>>>>XXXXXXX:=:::::::::::::::::=::X &&&&&&  >>>>>>>>>",
">>>>>>>>>>>XX$$$   ==:::::::::::::::::===  $&&&&$  >>>>>>>>>",
">>>>>>>>>>>XX#$$$X =::::;:::::::::;::::==   $$$$$  >>>>>>>>>",
">>>>>>>>>>>  ####X ====::;;:::::;;::====  >       >>>>>>>>>>",
">>>>>>>>>>>>        ====:::::::::::==== ..>>     >>>>>>>>>>>",
">>>>>>>>>>>>>>>>     =================   .>>>>>>>>>>>>>>>>>>",
">>>>>>>>>>>>>>>>     =================   .>>>>>>>>>>>>>>>>>>",
">>>>>>>>>>>>>>>>X ++                   ++..>>>>>>>>>>>>>>>>>",
">>>>>>>>>>>>>>>>> ++                   ++..>>>>>>>>>>>>>>>>>",
">>>>>>>>>>>>>>>>>  @*+++++++++++++++++*@++.>>>>>>>>>>>>>>>>>",
">>>>>>>>>>>>>>>>>>  @**@@@@++ +++++@**@++..>>>>>>>>>>>>>>>>>",
">>>>>>>>>>>>>>>>>>  +@@@@++     ++++++++..>>>>>>>>>>>>>>>>>>",
">>>>>>>>>>>>>>>>>>>  +@@@         ++++...>>>>>>>>>>>>>>>>>>>",
">>>>>>>>>>>>>>>>>>>  +@@    >>>>    ++..>>>>>>>>>>>>>>>>>>>>",
">>>>>>>>>>>>>>>>>>>>  @+  >>>>>>>>>....>>>>>>>>>>>>>>>>>>>>>",
">>>>>>>>>>>>>>>>>>>>  ++  >>>>>>>>>.....>>>>>>>>>>>>>>>>>>>>",
">>>>>>>>>>>>>>>>>>>>>  +  >>>>>>>>>.....>>>>>>>>>>>>>>>>>>>>",
">>>>>>>>>>>>>>>>>>>>>>    >>>>>>>>>>>>>>>>>>>>>>>>>>>>>>>>>>",
">>>>>>>>>>>>>>>>>>>>>     >>>>>>>>>>>>>>>>>>>>>>>>>>>>>>>>>>",
">>>>>>>>>>>>>>>>>>>>>     >>>>>>>>>>>>>>>>>>>>>>>>>>>>>>>>>>",
">>>>>>>>>>>>>>>>>>>>>>>>>>>>>>>>>>>>>>>>>>>>>>>>>>>>>>>>>>>>"
};
