/* XPM */
static char *result[] = {
/* columns rows colors chars-per-pixel */
"60 60 17 1 ",
"  c black",
". c #282727",
"X c #323232",
"o c #442A1B",
"O c #583621",
"+ c #6C4A35",
"@ c gray33",
"# c gray47",
"$ c #E1D514",
"% c #F5E706",
"& c #929191",
"* c #A7A3A3",
"= c #C5C5C5",
"- c #C9C5C5",
"; c #E4E3E3",
": c white",
"> c None",
/* pixels */
">>>>>>>>>>>>>>>>>>>>>>>>>>>>>>>>>>>>>>>>>>>>>>>>>>>>>>>>>>>>",
">>>>>>>>>>>>>>>>>>>>>>>>>>>>>>>>>>>>>>>>>>>>>>>>>>>>>>>>>>>>",
">>>>>>>>>>>>>>>>>>>>>>>>>>>>>>>>>>>>>>>>>>>>>>>>>>>>>>>>>>>>",
">>>>>>>>>>>>>>>>>>>>>>>>>>>>>>>>>>>>>>>>>>>>>>>>>>>>>>>>>>>>",
">>>>>>>>>>>>>>>>>  >>>>>>>>>>>>>>>>>>>>>  >>>>>>>>>>>>>>>>>>",
">>>>>>>>>>>>>>>>    >>>>>>>>>>>>>>>>>>>    >>>>>>>>>>>>>>>>>",
">>>>>>>>>>>>>>>>  =  >>>>>>>>>>>>>>>>>  =  >>>>>>>>>>>>>>>>>",
">>>>>>>>>>>>>>>>  ;   >>>>>     >>>>>   ;  >>>>>>>>>>>>>>>>>",
">>>>>>>>>>>>>>>>  ;=   >           >   =;  >>>>>>>>>>>>>>>>>",
">>>>>>>>>>>>>>>>  ===       ###       ===  >>>>>>>>>>>>>>>>>",
">>>>>>>>>>>>>>>>  =;==    ###@###    ==;=  >>>>>>>>>>>>>>>>>",
">>>>>>>>>>>>>>>>   ;;==    @@@@@    ==;;   >>>>>>>>>>>>>>>>>",
">>>>>>>>>>>>>>>>>  =;;==&  @@@@@  &==;;=  >>>>>>>>>>>>>>>>>>",
">>>>>>>>>>>>>>>>>   =;=&&  #@@@#  &&=;=   >>>>>>>>>>>>>>>>>>",
">>>>>>>> >>>>>>>>>   &&&  ##@@@##  &&&   >>>>>>>>> >>>>>>>>>",
">>>>>>>>  >>>>>>>>       ## X@X ##       >>>>>>>>  >>>>>>>>>",
">>>>>>>>    >>>>>    @@### X@@@X ###@@    >>>>>    >>>>>>>>>",
">>>>>>>>     >>>>   X    XX@@@@@XX    X   >>>>     >>>>>>>>>",
">>>>>>>>  #   >>   XX@@####@@@@@####@@XX   >>   #  >>>>>>>>>",
">>>>>>>>  @#   >   X@@#    #@@@#    #@@X   >   #@  >>>>>>>>>",
">>>>>>>>  @@#     XX@@ $$$  @@@  $$$ @@XX     #@@  >>>>>>>>>",
">>>>>>>>  @  #   XX@@  %%%$ @#@ $%%%  @@XX   #  @  >>>>>>>>>",
">>>>>>>>  @X  #@ X   XX     @#@     XX   X @#  X@  >>>>>>>>>",
">>>>>>>>   @X  @@X @@@@XXXX @#@ XXXX@@@@ X@@  X@   >>>>>>>>>",
">>>>>>>>>   XX  @X @  @@@@@@@@@@@@@@@  @ X@  XX   >>>>>>>>>>",
">>>>>>>>>>     @@@@@    @X @@@@@ X@    @@@@@     >>>>>>>>>>>",
">>>>>>>>>>>   XXX @@@ -     @#@     - @@@ XXX   >>>>>>>>>>>>",
">>>>>>>>>>>>      @@@ : - -*   *- - : @@@      >>>>>>>>>>>>>",
">>>>>>>>>>>>>       @   : ::* *:: :   @       >>>>>>>>>>>>>>",
">>>>>>>>>>>>>>>>>   @@               @@   >>>>>>>>>>>>>>>>>>",
">>>>>>>>>>>>>>>>>>  @@@   --- ---   @@@  >>>>>>>>>>>>>>>>>>>",
">>>>>>>>>>>>>>>>>>   @@@X         X@@@   >>>>>>>>>>>>>>>>>>>",
">>>>>>>>>>>>>>>>>>> . @@@XXXXXXXXX@@@ . >>>>>>>>>>>>>>>>>>>>",
">>>>>>>>>>>>>>>>>>     @@@@@   @@@@@     >>>>>>>>>>>>>>>>>>>",
">>>>>>>>>>>>>>>>>   X                 X   >>>>>>>>>>>>>>>>>>",
">>>>>>>>>>>>>>>>   XXX   ..  .  ..   XXX   >>>>>>>>>>>>>>>>>",
">>>>>>>>>>>>>>>   XX@XX   .. . ..   XX@XX   >>>>>>>>>>>>>>>>",
">>>>>>>>>>>>>>   XX@@@XXX  . . .  XXX@@@XX   >>>>>>>>>>>>>>>",
">>>>>>>>>>>>>    X@ X@@@XX   .   XX@@@X @X    >>>>>>>>>>>>>>",
">>>>>>>>>>>>    XX  X #@@XX  .  XX@@# X  XX    >>>>>>>>>>>>>",
">>>>>>>>>>>>  #    X@X ##@XX   XX@## X@X    #  >>>>>>>>>>>>>",
">>>>>>>>>>>>  X### X@XX    XXXXX    XX@X ###X  >>>>>>>>>>>>>",
">>>>>>>>>>>>  XXXX @@@XXXXX@@@@@XXXXX@@@ XXXX  >>>>>>>>>>>>>",
">>>>>>>>>>>>>>        @@@@@@@ @@@@@@@         >>>>>>>>>>>>>>",
">>>>>>>>>>>>>>        XXXXXX   XXXXXX         >>>>>>>>>>>>>>",
">>>>>>>>>>>>>>>>>   o                 o   >>>>>>>>>>>>>>>>>>",
">>>>>>>>>>>>>>>>>  ooo               ooo  >>>>>>>>>>>>>>>>>>",
">>>>>>>>>>>>>>>>>  ooooooooooooooooooooo  >>>>>>>>>>>>>>>>>>",
">>>>>>>>>>>>>>>>>   o+OOOOOOOOOOOOOOO+o   >>>>>>>>>>>>>>>>>>",
">>>>>>>>>>>>>>>>>>  oo+Oo  ooOoo  oO+oo  >>>>>>>>>>>>>>>>>>>",
">>>>>>>>>>>>>>>>>>>  o+o           o+o  >>>>>>>>>>>>>>>>>>>>",
">>>>>>>>>>>>>>>>>>>  oo  >>>>>>>>>  oo  >>>>>>>>>>>>>>>>>>>>",
">>>>>>>>>>>>>>>>>>>>    >>>>>>>>>>>    >>>>>>>>>>>>>>>>>>>>>",
">>>>>>>>>>>>>>>>>>>>    >>>>>>>>>>>    >>>>>>>>>>>>>>>>>>>>>",
">>>>>>>>>>>>>>>>>>>>    >>>>>>>>>>>    >>>>>>>>>>>>>>>>>>>>>",
">>>>>>>>>>>>>>>>>>>>>>>>>>>>>>>>>>>>>>>>>>>>>>>>>>>>>>>>>>>>",
">>>>>>>>>>>>>>>>>>>>>>>>>>>>>>>>>>>>>>>>>>>>>>>>>>>>>>>>>>>>",
">>>>>>>>>>>>>>>>>>>>>>>>>>>>>>>>>>>>>>>>>>>>>>>>>>>>>>>>>>>>",
">>>>>>>>>>>>>>>>>>>>>>>>>>>>>>>>>>>>>>>>>>>>>>>>>>>>>>>>>>>>",
">>>>>>>>>>>>>>>>>>>>>>>>>>>>>>>>>>>>>>>>>>>>>>>>>>>>>>>>>>>>"
};
