/* XPM */
static char *result[] = {
/* columns rows colors chars-per-pixel */
"60 60 18 1 ",
"  c black",
". c #282727",
"X c #323232",
"o c #3E3E3E",
"O c #442A1B",
"+ c #583621",
"@ c #6C4A35",
"# c gray33",
"$ c gray47",
"% c #E1D514",
"& c #F5E706",
"* c #929191",
"= c #A7A3A3",
"- c #C5C5C5",
"; c #C9C5C5",
": c #D8D5D5",
"> c #E4E3E3",
", c None",
/* pixels */
",,,,,,,,,,,,,,,,,,,,,,,,,,,,,,,,,,,,,,,,,,,,,,,,,,,,,,,,,,,,",
",,,,,,,,,,,,,,,,,,,,,,,,,,,,,,,,,,,,,,,,,,,,,,,,,,,,,,,,,,,,",
",,,,,,,,,,,,,,,,,,,,,,,  ,,,,,,,,,,,,,,,,,,,,,,,,,,,,,,,,,,,",
",,,,,,,,,,,,,,,,,,,,,,    ,,,,,,,,,,,,,,,,,,,,,,,,,,,,,,,,,,",
",,,,,,,,,,,,,,,,,,,,,,  >  ,,,,,,,,,,,,,,,,,,,,,,,,,,,,,,,,,",
",,,,,,,,,,,,,,,,,,,,,,  >   ,          ,,,,,,,,,,,,,,,,,,,,,",
",,,,,,,,,,,,,,,,,,,,,,  >-               ,,,,,,,,,,,,,,,,,,,",
",,,,,,,,,,,,,,,,,,,,,,  >--   XX$$$$$$    ,,,,,,,,,,,,,,,,,,",
",,,,,,,,,,,,,,,,,,,,,,  >>--   XX ###$$$   ,,,,,,,,,,,,,,,,,",
",,,,,,,,,,,,,,,,,,,,,,,  >---   X$ ####$    ,,,,,,,,,,,,,,,,",
",,,,,,,,,,,,,,,,,,,,,,   >>---*  $ ####$$    ,,,,,,,,,,,,,,,",
",,,,,,,,,,,,,,,,,,,,,     >>-**  $#########   ,,,,,,,,,,,,,,",
",,,,,,,,,,,,,,,,,,,,,  X   ***  $$#######   .  ,,,,,,,,,,,,,",
",,,,,,,,,,,,,,,,,,,,,  XXX     $$ ######  .  . ,,,,,,,,,,,,,",
",,,,,,,,,,,,,,,,,,,,,  X#XXX$$$$ ######    . . ,,,,,,,,,,,,,",
",,,,,,,,,,,,,,,,,,,,, XX###    #######   $ ..   ,,,,,,,,,,,,",
",,,,,,,,,,,,,,,,,,,,,  XX############   $$  . . ,,,,,,,,,,,,",
",,,,,,,,,,,,,,,,,,,,,   X###########   $$X  . .  ,,,,,,,,,,,",
",,,,,,,,,,,,,,,,,,,,,,  X    ####### #$$ X  . .  ,,,,,,,,,,,",
",,,,,,,,,,,,,,,,,,,,,     %%% ########XX X  . .   ,,,,,,,,,,",
",,,,,,,,,,,,,,,,,,,,   $ &&&%  XXXX##XX  X  . . . ,,,,,,,,,,",
",,,,,,,,,,,,,,,,,,,   $#     XX   XX#   X   . . . ,,,,,,,,,,",
",,,,,,,,,,,,,,,,,,,  $## XXXXX#$$  X###XX  .. . . ,,,,,,,,,,",
",,,,,,,,,,,,,,,,,,   ###########$$ X #XX  ..  .   ,,,,,,,,,,",
",,,,,,,,,,,,,,,,,,  $#### XX#  ##$ X XX      .   ,,,,,,,,,,,",
",,,,,,,,,,,,,,,,,,  $##   X    ##$ XX    XXX    ,,,,,,,,,,,,",
",,,,,,,,,,,,,,,,,,          : X#####XXXXXX#XX  ,,,,,,,,,,,,,",
",,,,,,,,,,,,,,,,,,,,,, = =:   X#######XXX###X  ,,,,,,,,,,,,,",
",,,,,,,,,,,,,,,,,,,,,,       XX#############   ,,,,,,,,,,,,,",
",,,,,,,,,,,,,,,,,,,,,, ; ;  XX#############   ,,,,,,,,,,,,,,",
",,,,,,,,,,,,,,,,,,,,,     XXX#############   ,,,,,,,,,,,,,,,",
",,,,,,,,,,,,,,,,,,,,, XXXXX##############   ,,,,,,,,,,,,,,,,",
",,,,,,,,,,,,,,,,,,,,,   ##$$### X#######   ,,,,,,,,,,,,,,,,,",
",,,,,,,,,,,,,,,,,,,,,  $$$$     X####XX    ,,,,,,,,,,,,,,,,,",
",,,,,,,,,,,,,,,,,,,,           XX##XXXXXX  ,,,,,,,,,,,,,,,,,",
",,,,,,,,,,,,,,,,,,,, ..  ..  XX$####$  XX  ,,,,,,,,,,,,,,,,,",
",,,,,,,,,,,,,,,,,,, ..  ..   $$ X ##$$  X  ,,,,,,,,,,,,,,,,,",
",,,,,,,,,,,,,,,,,, ..          XX  ##$$ X  ,,,,,,,,,,,,,,,,,",
",,,,,,,,,,,,,,,,, ..         XXXXX   #$    ,,,,,,,,,,,,,,,,,",
",,,,,,,,,,,,,,,,,       XX     X#XXX   $$$ ,,,,,,,,,,,,,,,,,",
",,,,,,,,,,,,,,,,,,,,,,, XX  $$  ###XX #### ,,,,,,,,,,,,,,,,,",
",,,,,,,,,,,,,,,,,,,,,,,,    ##$$###X  XXX  #,,,,,,,,,,,,,,,,",
",,,,,,,,,,,,,,,,,,,,,,,,,,  ######XX       #,#,,,,,,,,,,,,,,",
",,,,,,,,,,,,,,,,,,,,,,,,,,,            OO  ###,,,,,,,,,,,,,,",
",,,,,,,,,,,,,,,,,,,,,,,,,,,            OO  ,o,,,,,,,,,,,,,,,",
",,,,,,,,,,,,,,,,,,,,,,,,,,,    OOOOOOOOO   ,,,,,,,,,,,,,,,,,",
",,,,,,,,,,,,,,,,,,,,,,,,,,,  OOO+++@@++O  ,,,,,,,,,,,,,,,,,,",
",,,,,,,,,,,,,,,,,,,,,,,,,,,  OO+@@@@+OO   ,,,,,,,,,,,,,,,,,,",
",,,,,,,,,,,,,,,,,,,,,,,,,,, OO+@@+      O ,,,,,,,,,,,,,,,,,,",
",,,,,,,,,,,,,,,,,,,,,,,,,,  OOO+     OOOO  ,,,,,,,,,,,,,,,,,",
",,,,,,,,,,,,,,,,,,,,,,,,,    OO   ,,  OOO   ,,,,,,,,,,,,,,,,",
",,,,,,,,,,,,,,,,,,,,,,,,        ,,,,,,       ,,,,,,,,,,,,,,,",
",,,,,,,,,,,,,,,,,,,,,,,,     ,,,,,,,,,,,     ,,,,,,,,,,,,,,,",
",,,,,,,,,,,,,,,,,,,,,,,,,   ,,,,,,,,,,,,,   ,,,,,,,,,,,,,,,,",
",,,,,,,,,,,,,,,,,,,,,,,,,,,,,,,,,,,,,,,,,,,,,,,,,,,,,,,,,,,,",
",,,,,,,,,,,,,,,,,,,,,,,,,,,,,,,,,,,,,,,,,,,,,,,,,,,,,,,,,,,,",
",,,,,,,,,,,,,,,,,,,,,,,,,,,,,,,,,,,,,,,,,,,,,,,,,,,,,,,,,,,,",
",,,,,,,,,,,,,,,,,,,,,,,,,,,,,,,,,,,,,,,,,,,,,,,,,,,,,,,,,,,,",
",,,,,,,,,,,,,,,,,,,,,,,,,,,,,,,,,,,,,,,,,,,,,,,,,,,,,,,,,,,,",
",,,,,,,,,,,,,,,,,,,,,,,,,,,,,,,,,,,,,,,,,,,,,,,,,,,,,,,,,,,,"
};
