/* XPM */
static char *result[] = {
/* columns rows colors chars-per-pixel */
"60 60 11 1 ",
"  c black",
". c #282727",
"X c #323232",
"o c #442A1B",
"O c #583621",
"+ c #6C4A35",
"@ c gray33",
"# c gray39",
"$ c gray47",
"% c #949393",
"& c None",
/* pixels */
"&&&&&&&&&&&&&&&&&&&&&&&&&&&&&&&&&&&&&&&&&&&&&&&&&&&&&&&&&&&&",
"&&&&&&&&&&&&&&&&&&&&&&&&&&&&&&&&&&&&&&&&&&&&&&&&&&&&&&&&&&&&",
"&&&&&&&&&&&&&&&&&&&&&&&&&&&&&&&&&&&&&&&&&&&&&&&&&&&&&&&&&&&&",
"&&&&&&&&&&&&&&&&&&&&&&&&&&&&&&&&&&&&&&&&&&&&&&&&&&&&&&&&&&&&",
"&&&&&&&&&&&&&&&&&  &&&&&&&&&&&&&&&&&&&&&  &&&&&&&&&&&&&&&&&&",
"&&&&&&&&&&&&&&&&    &&&&&&&&&&&&&&&&&&&    &&&&&&&&&&&&&&&&&",
"&&&&&&&&&&&&&&&&  %  &&&&&&&&&&&&&&&&&  %  &&&&&&&&&&&&&&&&&",
"&&&&&&&&&&&&&&&&  %   &&&&&     &&&&&   %  &&&&&&&&&&&&&&&&&",
"&&&&&&&&&&&&&&&&  %%   &           &   %%  &&&&&&&&&&&&&&&&&",
"&&&&&&&&&&&&&&&&  %%#       $$$       #%%  &&&&&&&&&&&&&&&&&",
"&&&&&&&&&&&&&&&&  ##      $$$@$$$      ##  &&&&&&&&&&&&&&&&&",
"&&&&&&&&&&&&&&&&   #    $$$@@@@@$$$    #   &&&&&&&&&&&&&&&&&",
"&&&&&&&&&&&&&&&&&     @@@@@@@@@@@@@@@     &&&&&&&&&&&&&&&&&&",
"&&&&&&&&&&&&&&&&&     @@@@@@@@@@@@@@@     &&&&&&&&&&&&&&&&&&",
"&&&&&&&& &&&&&&&&&   @@$$@@@@@@@@@$$@@   &&&&&&&&& &&&&&&&&&",
"&&&&&&&&  &&&&&&&&   X@@$$$@@@@@$$$@@X   &&&&&&&&  &&&&&&&&&",
"&&&&&&&&    &&&&&   XX@@@@@@@@@@@@@@@XX   &&&&&    &&&&&&&&&",
"&&&&&&&&     &&&&   XXXX@@@@@@@@@@@XXXX   &&&&     &&&&&&&&&",
"&&&&&&&&  X   &&       XX@@@@@@@@@XX       &&   X  &&&&&&&&&",
"&&&&&&&&  XX   &   ..   XXXXXXXXXXX   ..   &   XX  &&&&&&&&&",
"&&&&&&&&  XXX      .                   .      XXX  &&&&&&&&&",
"&&&&&&&&  @XXX    ..  ..           ..  ..    XXX@  &&&&&&&&&",
"&&&&&&&&  @@XXX   .  ..  ..  .  ..  ..  .   XXX@@  &&&&&&&&&",
"&&&&&&&&   @@XXX  .  .  ..   .   ..  .  .  XXX@@   &&&&&&&&&",
"&&&&&&&&&   @@XXX    .  .    .    .  .    XXX@@   &&&&&&&&&&",
"&&&&&&&&&&    @XXX      .    .    .      XXX@    &&&&&&&&&&&",
"&&&&&&&&&&&   @@XXX                     XXX@@   &&&&&&&&&&&&",
"&&&&&&&&&&&&      XXX                 XXX      &&&&&&&&&&&&&",
"&&&&&&&&&&&&&       XX               XX       &&&&&&&&&&&&&&",
"&&&&&&&&&&&&&&&&&   @XXXXXXXXXXXXXXXXX@   &&&&&&&&&&&&&&&&&&",
"&&&&&&&&&&&&&&&&&&  @@@@@XXXXXXXXX@@@@@  &&&&&&&&&&&&&&&&&&&",
"&&&&&&&&&&&&&&&&&    @@@@@@@@@@@@@@@@@   &&&&&&&&&&&&&&&&&&&",
"&&&&&&&&&&&&&&&       @@@@@@@@@@@@@@@   &&&&&&&&&&&&&&&&&&&&",
"&&&&&&&&&&&&&    XXXXXX@@@@@@@@@@@@@XXX  &&&&&&&&&&&&&&&&&&&",
"&&&&&&&&&&&    @@@@@XXXXX@@@@@@@@@XXXXX   &&&&&&&&&&&&&&&&&&",
"&&&&&&&&&&   @@@@@X@@@@XXXX@@@@@XXXX@@XX   &&&&&&&&&&&&&&&&&",
"&&&&&&&&&  @@$$   X@@@@@@@@@@@@@@@@@@@XXXX  &&&&&&&&&&&&&&&&",
"&&&&&&&&&  @@@@@  X@@@@@@@@@@X@@@@@@@@X XX  &&&&&&&&&&&&&&&&",
"&&&&&&&&&  X@@@X  XX@@@@@@@@XXX@@@@@@@XX XX  &&&&&&&&&&&&&&&",
"&&&&&&&&&  XXXX   XX@@@XXX@@XXX@@XXX@@XX XXX  &&&&&&&&&&&&&&",
"&&&&&&&&&&      &  X@@@@@X@@XXX@@X@@@@XX XXX  &&&&&&&&&&&&&&",
"&&&&&&&&&&&    &&  X@@@@@@@@XXX@@@@@@@X   XX  &&&&&&&&&&&&&&",
"&&&&&&&&&&&&&&&&&  XXXX@@@@@XXX@@@@@XXX      &&&&&&&&&&&&&&&",
"&&&&&&&&&&&&&&&&&     X@@@@@@@@@@@@@X     &&&&&&&&&&&&&&&&&&",
"&&&&&&&&&&&&&&&&&     XXXXXXXXXXXXXXX     &&&&&&&&&&&&&&&&&&",
"&&&&&&&&&&&&&&&&&   o         @       o   &&&&&&&&&&&&&&&&&&",
"&&&&&&&&&&&&&&&&&  ooo      @  @     ooo  &&&&&&&&&&&&&&&&&&",
"&&&&&&&&&&&&&&&&&  oooooooooo@@@oooooooo  &&&&&&&&&&&&&&&&&&",
"&&&&&&&&&&&&&&&&&   oooooOOOOOoOOOO++++   &&&&&&&&&&&&&&&&&&",
"&&&&&&&&&&&&&&&&&&  ooooo ooooooo oO++o  &&&&&&&&&&&&&&&&&&&",
"&&&&&&&&&&&&&&&&&&&  oo            o++o &&&&&&&&&&&&&&&&&&&&",
"&&&&&&&&&&&&&&&&&&&&    &&&&&&&&&&  oo  &&&&&&&&&&&&&&&&&&&&",
"&&&&&&&&&&&&&&&&&&&&    &&&&&&&&&&  oo  &&&&&&&&&&&&&&&&&&&&",
"&&&&&&&&&&&&&&&&&&&&    &&&&&&&&&&&    &&&&&&&&&&&&&&&&&&&&&",
"&&&&&&&&&&&&&&&&&&&&&&&&&&&&&&&&&&&    &&&&&&&&&&&&&&&&&&&&&",
"&&&&&&&&&&&&&&&&&&&&&&&&&&&&&&&&&&&    &&&&&&&&&&&&&&&&&&&&&",
"&&&&&&&&&&&&&&&&&&&&&&&&&&&&&&&&&&&&&&&&&&&&&&&&&&&&&&&&&&&&",
"&&&&&&&&&&&&&&&&&&&&&&&&&&&&&&&&&&&&&&&&&&&&&&&&&&&&&&&&&&&&",
"&&&&&&&&&&&&&&&&&&&&&&&&&&&&&&&&&&&&&&&&&&&&&&&&&&&&&&&&&&&&",
"&&&&&&&&&&&&&&&&&&&&&&&&&&&&&&&&&&&&&&&&&&&&&&&&&&&&&&&&&&&&"
};
