/* XPM */
static char *result[] = {
/* columns rows colors chars-per-pixel */
"60 60 19 1 ",
"  c black",
". c #3D2E15",
"X c #282727",
"o c #323232",
"O c #432A19",
"+ c #523E1A",
"@ c #6D4326",
"# c #634129",
"$ c #494948",
"% c gray33",
"& c #706F6E",
"* c gray47",
"= c #842D4B",
"- c #99516A",
"; c #929191",
": c #9A9897",
"> c #C5C5C5",
", c #E4E3E3",
"< c None",
/* pixels */
"<<<<<<<<<<<<<<<<<  <<<<<<<<<<<<<<<<<<<<<  <<<<<<<<<<<<<<<<<<",
"<<<<<<<<<<<<<<<<    <<<<<<<<<<<<<<<<<<<    <<<<<<<<<<<<<<<<<",
"<<<<<<<<<<<<<<<<  >  <<<<<<<<<<<<<<<<<  >  <<<<<<<<<<<<<<<<<",
"<<<<<<<<<<<<<<<<  ,   <<<<<     <<<<<   ,  <<<<<<<<<<<<<<<<<",
"<<<<<<<<<<<<<<<<  ,>   <           <   >,  <<<<<<<<<<<<<<<<<",
"<<<<<<<<<<<<<<<<  >>>       ***       >>>  <<<<<<<<<<<<<<<<<",
"<<<<<<<<<<<<<<<<  >,>>    ***%***    >>,>  <<<<<<<<<<<<<<<<<",
"<<<<<<<<<<<<<<<<   ,,>>    %%%%%    >>,,   <<<<<<<<<<<<<<<<<",
"<<<<<<<<<<<<<<<<<  >,,>>;  %%%%%  ;>>,,>  <<<<<<<<<<<<<<<<<<",
"<<<<<<<<<<<<<<<<<   >,>;;  *%%%*  ;;>,>   <<<<<<<<<<<<<<<<<<",
"<<<<<<<< <<<<<<<<<   ;;;  **%%%**  ;;;   <<<<<<<<< <<<<<<<<<",
"<<<<<<<<  <<<<<<<<       ** o%o **       <<<<<<<<  <<<<<<<<<",
"<<<<<<<<    <<<<<    %%*** o%%%o ***%%    <<<<<    <<<<<<<<<",
"<<<<<<<<     <<<<   o    oo%%%%%oo    o   <<<<     <<<<<<<<<",
"<<<<<<<<  *   <<   oo%**%%*%%%%%*%%**%oo   <<   *  <<<<<<<<<",
"<<<<<<<<  %*   <   o%%  **  %%%  **  %%o   <   *%  <<<<<<<<<",
"<<<<<<<<  %%*     oo%%%    %%%%%    %%%oo     *%%  <<<<<<<<<",
"<<<<<<<<  %  *   oo%%%%%  %%%*%%%  %%%%%oo   *  %  <<<<<<<<<",
"<<<<<<<<  %o  *% o%%%%%    %%*%%    %%%%%o %*  o%  <<<<<<<<<",
"<<<<<<<<   %o  %%%%%%%  oo  %*%  oo  %%%%%%%  o%   <<<<<<<<<",
"<<<<<<<<<   oo  %%%**%%%%%%%%%%%%%%%%%**%%%  oo   <<<<<<<<<<",
"<<<<<<<<<<     %%%%*%%%%%o %%%%% o%%%%%*%%%%     <<<<<<<<<<<",
"<<<<<<<<<<<   ooo %%%%%%    %*%    %%%%%% ooo   <<<<<<<<<<<<",
"<<<<<<<<<<<<      %%%%%  ooo   oooo % %%%      <<<<<<<<<<<<<",
"<<<<<<<<<<<<<       %%% oo%%ooo%%%    %       <<<<<<<<<<<<<<",
"<<<<<<<<<<<<<<<<<   %% oo%%%%%     -- %   <<<<<<<<<<<<<<<<<<",
"<<<<<<<<<<<<<<<<<<  %%oo       %  ==- %  <<<<<<<<<<<<<<<<<<<",
"<<<<<<<<<<<<<<<<<<   oo%%%%*****%  ==    <<<<<<<<<<<<<<<<<<<",
"<<<<<<<<<<<<<<<<<<< X oo%%*%%%%%*o    X <<<<<<<<<<<<<<<<<<<<",
"<<<<<<<<<<<<<<<<<<<<   ooooo   ooooo   <<<<<<<<<<<<<<<<<<<<<",
"<<<<<<<<<<<<<<<<<<<<<                 <<<<<<<<<<<<<<<<<<<<<<",
"<<<<<<<<<<<<<<<<<<<<<<   XX  X  XX   <<<<<<<<<<<<<<<<<<<<<<<",
"<<<<<<<<<<<<<<<<<<<<<<<   XX X XX   <<<<<<<<<<<<<<<<<<<<<<<<",
"<<<<<<<<<<<<<<<<<<<<<<<<<  X X X  <<<<<<<<<<<<<<<<<<<<<<<<<<",
"<<<<<<<<<<<<<<<<<<<<<<<<<    X   <<<<<<<<<<<<<<<<<<<<<<<<<<<",
"<<<<<<<<<<<<<<<<<<<<<<<<<    X  <<<<<<<<<<<<<<<<<<<<<<<<<<<<",
"<<<<<<<<<<<<<<<<<<<<<<<<<  .   <<<<<<<<<<<<<<<<<<<<<<<<<<<<<",
"<<<<<<<<<<<<<<<<<<<<<<<<<  .  <<<<<<<<<<<<<<<<<<<<<<<<<<<<<<",
"<<<<<<<<<<<<<<<<<<<<<<<<<  .  <<<<<<<<<<<<<<<<<<<<<<<<<<<<<<",
"<<<<<<<<<<<<<<<<<<<<<<<<<  .  <<<<<<<<<<<<<<<<<<<<<<<<<<<<<<",
"<<<<<<<<<<<<<<<<<<<<<<<<<  +   <<<<<<<<<<<<<<<<<<<<<<<<<<<<<",
"<<<<<<<<<<<<<<<<<<<<<<<<<  ++   <<<<<<<<<<<<<<<<<<<<<<<<<<<<",
"<<<<<<<<<<<<<<<<<<<<<<<<<   ++  <<<<<<<<<<<<<<<<<<<<<<<<<<<<",
"<<<<<<<<<<<<<<<<<<<<<<<<<    +   <<<<<<<<<<<<<<<<<<<<<<<<<<<",
"<<<<<<<<<<<<<<<<<<<<<<<<<<   ++  <<<<<<<<<<<<<<<<<<<<<<<<<<<",
"<<<<<<<<<<<<<<<<<<<<<<<<<     +  <<<<<<<<<<<<<<<<<<<<<<<<<<<",
"<<<<<<<<<<<<<<<<<<<<<         +       <<<<<<<<<<<<<<<<<<<<<<",
"<<<<<<<<<<<<<<<<<<         O  ++         <<<<<<<<<<<<<<<<<<<",
"<<<<<<<<<<<<<<<<      @@@@OO   +  @@        <<<<<<<<<<<<<<<<",
"<<<<<<<<<<<<<<<     @###@@OOO  +   @O :       <<<<<<<<<<<<<<",
"<<<<<<<<<<<<<     @@@@@#@@@OO  ++  @O  O@@      <<<<<<<<<<<<",
"<<<<<<<<<<<     ##@    @@O@OO   +    OOO@##@@     <<<<<<<<<<",
"<<<<<<<<<<<    @@@  &:$ @@@     +  : @@@   @@O@    <<<<<<<<<",
"<<<<<<<<<<   #@O@O  $$ OO  :::        @O :  @#@#   <<<<<<<<<",
"<<<<<<<<<<   #@O@OO    OO $$&&&   ::   O $$ @####  <<<<<<<<<",
"<<<<<<<<<<   ##@@@OOOOO@O  $$$$   $$$  OO   @O@    <<<<<<<<<",
"<<<<<<<<<<      @@@@@@@@OOO    $$      OOOOO@@    <<<<<<<<<<",
"<<<<<<<<<<<       @@OO@#@@OOOO  $  OOOOO@@#      <<<<<<<<<<<",
"<<<<<<<<<<<<<                                   <<<<<<<<<<<<",
"<<<<<<<<<<<<<<<                                <<<<<<<<<<<<<"
};
