/* XPM */
static char *result[] = {
/* columns rows colors chars-per-pixel */
"60 60 27 1 ",
"  c black",
". c #1D1C1C",
"X c #3F321E",
"o c #282727",
"O c gray16",
"+ c #323232",
"@ c #442A1B",
"# c #583621",
"$ c #665232",
"% c #4E4E4E",
"& c gray31",
"* c #515151",
"= c gray33",
"- c gray47",
"; c #997B4C",
": c #FDB12D",
"> c #E1D514",
", c #F5E706",
"< c #FDF12D",
"1 c #B99863",
"2 c #929191",
"3 c #A7A3A3",
"4 c #C5C5C5",
"5 c #C9C5C5",
"6 c #E4E3E3",
"7 c white",
"8 c None",
/* pixels */
"888888888888888888888888888888888888888888888888888888888888",
"888888888888888888888888888888888888888888888888888888888888",
"888888888888888888888888888888888888888888888888888888888888",
"888888888888888888888888888888888888888888888888888888888888",
"88888888888888888  888888888888888888888  888888888888888888",
"8888888888888888    8888888888888888888    88888888888888888",
"8888888888888888  4  88888888888888888  4  88888888888888888",
"8888888888888888  6   88888     88888   6  88888888888888888",
"8888888888888888  64   8           8   46  88888888888888888",
"8888888888888888  444       ---       444  88888888888888888",
"8888888888888888  4644    ---=---    4464  88888888888888888",
"8888888888888888   6644    =====    4466   88888888888888888",
"88888888888888888  466442  =====  244664  888888888888888888",
"88888888888888888   46422  -===-  22464   888888888888888888",
"88888888 888888888   222  --===--  222   888888888 888888888",
"88888888  88888888       -- +=+ --       88888888  888888888",
"88888888    88888    ==--- +===+ ---==    88888    888888888",
"88888888     8888   +    ++=====++    +   8888     888888888",
"88888888  -   88   ++==----=====----==++   88   -  888888888",
"88888888  =-   8   +==-    -===-    -==+   8   -=  888888888",
"88888888  ==-     ++== >>>  ===  >>> ==++     -==  888888888",
"88888888  =  -   ++==  ,,,> =-= >,,,  ==++   -  =  888888888",
"88888888  =+  -= +   ++     =-=     ++   + =-  +=  888888888",
"88888888   =+  ==+ ====++++ =-= ++++==== +==  +=   888888888",
"888888888   ++  =+ =  ===============  = +=  ++   8888888888",
"8888888888     =====    =+ ===== +=    =====     88888888888",
"88888888888   +++ === 5     =-=     5 === +++   888888888888",
"888888888888      === 7 5 53   35 5 7 ===      8888888888888",
"8888888888888       =   7 773 377 7   =       88888888888888",
"88888888888888888   *&               &*   888888888888888888",
"88888888888888       O=   555 555   =O       888888888888888",
"88888888888888  11$  %==+         +==%  $11  888888888888888",
"888888888888888  $  . ===+++++++++=== .  $  8888888888888888",
"88888888888888         =====   =====         888888888888888",
"8888888888888  -----                   -----  88888888888888",
"8888888888888  ====-     oo  o  oo     -====  88888888888888",
"8888888888888  oooo   +   oo o oo   +   oooo  88888888888888",
"88888888888888       ++++  o o o  ++++       888888888888888",
"8888888888888        +++++   o   +++++       888888888888888",
"888888888888          -==++  o  ++==-          8888888888888",
"8888888888    111111   --=++   ++=--   111111    88888888888",
"888888888    111111111     +++++     111111111    8888888888",
"88888888   111;;;;;;11   ++=====++   11;;;;;;111   888888888",
"88888888  111;;;;;;;;11  ==== ====  11;;;;;;;;111  888888888",
"8888888   ;XXX;XXX;X;X;$  ++   ++  $;XXX;XXX;X;X;   88888888",
"8888888  $;X;;;X;X;X;X;$           $;X;;;X;X;X;X;$  88888888",
"8888888  $;X;;;XXX;XXX;$           $;X;;;XXX;XXX;$  88888888",
"8888888  $;X;;;X;;;X;X;$  @@@@@@@  $;X;;;X;;;X;X;$  88888888",
"88:::88  $;X;;;X;;;X;X;$  #######  $;X;;;X;;;X;X;$  888:::88",
"88:<::8  $$;;;;;;;;;;;$$   @@#@@   $$;;;;;;;;;;;$$  88:<<<:8",
"88:<<:8   $$$$$$$$$$$$$             $$$$$$$$$$$$$   88:<<::8",
"888:::88    $$$$$$$$$    888888888    $$$$$$$$$    8888:::88",
"888888888               88888888888               8888888888",
"8888:::::88             88888888888             888:::::8888",
"8888:<<<::8888888888    88888888888    888888888888:<<<:8888",
"8888:<<<::88888888888888888888888888888888888888888:<<::8888",
"8888::<<:888888888888888888888888888888888888888888::::88888",
"88888:::8888888888888888888888888888888888888888888888888888",
"888888888888888888888888888888888888888888888888888888888888",
"888888888888888888888888888888888888888888888888888888888888"
};
