/* XPM */
static char *result[] = {
/* columns rows colors chars-per-pixel */
"60 60 18 1 ",
"  c black",
". c #282727",
"X c #323232",
"o c #3E3E3E",
"O c #442A1B",
"+ c #583621",
"@ c #6C4A35",
"# c gray33",
"$ c gray47",
"% c #E1D514",
"& c #F5E706",
"* c #929191",
"= c #A7A3A3",
"- c #C5C5C5",
"; c #C9C5C5",
": c #D8D5D5",
"> c #E4E3E3",
", c None",
/* pixels */
",,,,,,,,,,,,,,,,,,,,,,,,,,,,,,,,,,,,,,,,,,,,,,,,,,,,,,,,,,,,",
",,,,,,,,,,,,,,,,,,,,,,,,,,,,,,,,,,,,,,,,,,,,,,,,,,,,,,,,,,,,",
",,,,,,,,,,,,,,,,,,,,,,,,,,,,,,,,,,,,,,  ,,,,,,,,,,,,,,,,,,,,",
",,,,,,,,,,,,,,,,,,,,,,,,,,,,,,,,,,,,,    ,,,,,,,,,,,,,,,,,,,",
",,,,,,,,,,,,,,,,,,,,,,,,,,,,,,,,,,,,  >  ,,,,,,,,,,,,,,,,,,,",
",,,,,,,,,,,,,,,,,,,,,,,,          ,   >  ,,,,,,,,,,,,,,,,,,,",
",,,,,,,,,,,,,,,,,,,,,,               ->  ,,,,,,,,,,,,,,,,,,,",
",,,,,,,,,,,,,,,,,,,,,    $$$$$$XX   -->  ,,,,,,,,,,,,,,,,,,,",
",,,,,,,,,,,,,,,,,,,,   $$$### XX   -->>  ,,,,,,,,,,,,,,,,,,,",
",,,,,,,,,,,,,,,,,,,    $#### $X   --->  ,,,,,,,,,,,,,,,,,,,,",
",,,,,,,,,,,,,,,,,,    $$#### $  *--->>   ,,,,,,,,,,,,,,,,,,,",
",,,,,,,,,,,,,,,,,   #########$  **->>     ,,,,,,,,,,,,,,,,,,",
",,,,,,,,,,,,,,,,  .   #######$$  ***   X  ,,,,,,,,,,,,,,,,,,",
",,,,,,,,,,,,,,,, .  .  ###### $$     XXX  ,,,,,,,,,,,,,,,,,,",
",,,,,,,,,,,,,,,, . .    ###### $$$$XXX#X  ,,,,,,,,,,,,,,,,,,",
",,,,,,,,,,,,,,,   .. $   #######    ###XX ,,,,,,,,,,,,,,,,,,",
",,,,,,,,,,,,,,, . .  $$   ############XX  ,,,,,,,,,,,,,,,,,,",
",,,,,,,,,,,,,,  . .  X$$   ###########X   ,,,,,,,,,,,,,,,,,,",
",,,,,,,,,,,,,,  . .  X $$# #######    X  ,,,,,,,,,,,,,,,,,,,",
",,,,,,,,,,,,,   . .  X XX######## %%%     ,,,,,,,,,,,,,,,,,,",
",,,,,,,,,,,,, . . .  X  XX##XXXX  %&&& $   ,,,,,,,,,,,,,,,,,",
",,,,,,,,,,,,, . . .   X   #XX   XX     #$   ,,,,,,,,,,,,,,,,",
",,,,,,,,,,,,, . . ..  XX###X  $$#XXXXX ##$  ,,,,,,,,,,,,,,,,",
",,,,,,,,,,,,,   .  ..  XX# X $$###########   ,,,,,,,,,,,,,,,",
",,,,,,,,,,,,,,   .      XX X $##  #XX ####$  ,,,,,,,,,,,,,,,",
",,,,,,,,,,,,,,,    XXX    XX $##    X   ##$  ,,,,,,,,,,,,,,,",
",,,,,,,,,,,,,,,,  XX#XXXXXX#####X :          ,,,,,,,,,,,,,,,",
",,,,,,,,,,,,,,,,  X###XXX#######X   := = ,,,,,,,,,,,,,,,,,,,",
",,,,,,,,,,,,,,,,   #############XX       ,,,,,,,,,,,,,,,,,,,",
",,,,,,,,,,,,,,,,,   #############XX  ; ; ,,,,,,,,,,,,,,,,,,,",
",,,,,,,,,,,,,,,,,,   #############XXX     ,,,,,,,,,,,,,,,,,,",
",,,,,,,,,,,,,,,,,,,   ##############XXXXX ,,,,,,,,,,,,,,,,,,",
",,,,,,,,,,,,,,,,,,,,   #######X ###$$##   ,,,,,,,,,,,,,,,,,,",
",,,,,,,,,,,,,,,,,,,,    XX####X     $$$$  ,,,,,,,,,,,,,,,,,,",
",,,,,,,,,,,,,,,,,,,,  XXXXXX##XX           ,,,,,,,,,,,,,,,,,",
",,,,,,,,,,,,,,,,,,,,  XXXXX## XXXX  ..  .. ,,,,,,,,,,,,,,,,,",
",,,,,,,,,,,,,,,,,,,   X  ###$  X##   ..  .. ,,,,,,,,,,,,,,,,",
",,,,,,,,,,,,,,,,,,    X  ###$  XXX  ,     .. ,,,,,,,,,,,,,,,",
",,,,,,,,,,,,,,,,,, X  XX  ##$$      ,,,    .. ,,,,,,,,,,,,,,",
",,,,,,,,,,,,,,,,,, X  XXX   #$$$$$   ,,,      ,,,,,,,,,,,,,,",
",,,,,,,,,,,,,,,,,,    XXXXX  X#### # ,,,,,,,,,,,,,,,,,,,,,,,",
",,,,,,,,,,,,,,,,,,,#       X  XX  #  ,,,,,,,,,,,,,,,,,,,,,,,",
",,,,,,,,,,,,,,,,,#,#       XX    X#  ,,,,,,,,,,,,,,,,,,,,,,,",
",,,,,,,,,,,,,,,,,###  OO            ,,,,,,,,,,,,,,,,,,,,,,,,",
",,,,,,,,,,,,,,,,,,o,  OO            ,,,,,,,,,,,,,,,,,,,,,,,,",
",,,,,,,,,,,,,,,,,,,,  OOOOOOOOOOO   ,,,,,,,,,,,,,,,,,,,,,,,,",
",,,,,,,,,,,,,,,,,,,,, O++@@@+++   O ,,,,,,,,,,,,,,,,,,,,,,,,",
",,,,,,,,,,,,,,,,,,,,, O+@@@+++  OOO ,,,,,,,,,,,,,,,,,,,,,,,,",
",,,,,,,,,,,,,,,,,,,,, O@@@++   OOOO ,,,,,,,,,,,,,,,,,,,,,,,,",
",,,,,,,,,,,,,,,,,,,,  O@++     OOOO  ,,,,,,,,,,,,,,,,,,,,,,,",
",,,,,,,,,,,,,,,,,,,   OOO  ,,,  OO    ,,,,,,,,,,,,,,,,,,,,,,",
",,,,,,,,,,,,,,,,,,       ,,,,,,        ,,,,,,,,,,,,,,,,,,,,,",
",,,,,,,,,,,,,,,,,,     ,,,,,,,,,,,     ,,,,,,,,,,,,,,,,,,,,,",
",,,,,,,,,,,,,,,,,,,   ,,,,,,,,,,,,,   ,,,,,,,,,,,,,,,,,,,,,,",
",,,,,,,,,,,,,,,,,,,,,,,,,,,,,,,,,,,,,,,,,,,,,,,,,,,,,,,,,,,,",
",,,,,,,,,,,,,,,,,,,,,,,,,,,,,,,,,,,,,,,,,,,,,,,,,,,,,,,,,,,,",
",,,,,,,,,,,,,,,,,,,,,,,,,,,,,,,,,,,,,,,,,,,,,,,,,,,,,,,,,,,,",
",,,,,,,,,,,,,,,,,,,,,,,,,,,,,,,,,,,,,,,,,,,,,,,,,,,,,,,,,,,,",
",,,,,,,,,,,,,,,,,,,,,,,,,,,,,,,,,,,,,,,,,,,,,,,,,,,,,,,,,,,,",
",,,,,,,,,,,,,,,,,,,,,,,,,,,,,,,,,,,,,,,,,,,,,,,,,,,,,,,,,,,,"
};
