/* XPM */
static char *result[] = {
/* columns rows colors chars-per-pixel */
"60 60 162 2 ",
"   c black",
".  c #010000",
"X  c #010100",
"o  c #010101",
"O  c #020100",
"+  c #020101",
"@  c #020201",
"#  c #030201",
"$  c #030301",
"%  c #050101",
"&  c #0C0401",
"*  c #10130C",
"=  c #210803",
"-  c #2E221E",
";  c #501809",
":  c #472205",
">  c #463A14",
",  c #612013",
"<  c #622113",
"1  c #632213",
"2  c #692514",
"3  c #6A2614",
"4  c #732312",
"5  c #752312",
"6  c #7F2D15",
"7  c #7D3017",
"8  c #4D3931",
"9  c #703E22",
"0  c #5F473D",
"q  c #7F502D",
"w  c #78533C",
"e  c #7C6337",
"r  c #812816",
"t  c #853517",
"y  c #8D3518",
"u  c #8B3819",
"i  c #8C3919",
"p  c #8E3A1A",
"a  c #8F3A1A",
"s  c #8F3B1A",
"d  c #913718",
"f  c #923718",
"g  c #9D371A",
"h  c #93381C",
"j  c #953A1C",
"k  c #953F1E",
"l  c #9F381A",
"z  c #9F391A",
"x  c #9E3B1C",
"c  c #983D1D",
"v  c #B72E00",
"b  c #A13A1B",
"n  c #A13F1D",
"m  c #A73E20",
"M  c #B23F24",
"N  c #B63F27",
"B  c #C22A00",
"V  c #D52402",
"C  c #C8350A",
"Z  c #D92E1C",
"A  c #D03A19",
"S  c #E33600",
"D  c #E1350F",
"F  c #F23300",
"G  c #FF3100",
"H  c #F0300B",
"J  c #834319",
"K  c #9B401B",
"L  c #99431D",
"P  c #AB4300",
"I  c #A2401F",
"U  c #A5421D",
"Y  c #A1451C",
"T  c #AF471D",
"R  c #B0471C",
"E  c #B56300",
"W  c #9D4620",
"Q  c #8D5728",
"!  c #995124",
"~  c #9C5525",
"^  c #935C29",
"/  c #8A5A31",
"(  c #AA4527",
")  c #A94A20",
"_  c #A94B20",
"`  c #B04B20",
"'  c #B74C22",
"]  c #B1412B",
"[  c #A85D2C",
"{  c #896D3F",
"}  c #926037",
"|  c #926137",
" . c #936137",
".. c #946238",
"X. c #AA6530",
"o. c #CF4305",
"O. c #D64400",
"+. c #D04615",
"@. c #D5401F",
"#. c #D74E18",
"$. c #F16532",
"%. c #FF7F31",
"&. c #FF7839",
"*. c #EC8E34",
"=. c #FF8130",
"-. c #FF8433",
";. c #FF8737",
":. c #F68E35",
">. c #FE8238",
",. c #F18E3B",
"<. c #FA8B3C",
"1. c #E9933C",
"2. c #F1913A",
"3. c #FE913F",
"4. c #D89443",
"5. c #F58546",
"6. c #FB8643",
"7. c #FF8445",
"8. c #FB8942",
"9. c #FD8D45",
"0. c #F88849",
"q. c #E69141",
"w. c #E2914F",
"e. c #FF914B",
"r. c #FF8350",
"t. c #FF8F50",
"y. c #FF825C",
"u. c #EAAA40",
"i. c #FCA74D",
"p. c #F7A655",
"a. c #EDDF4B",
"s. c #F3D24E",
"d. c #FFD34C",
"f. c #F1DB49",
"g. c #FFC258",
"h. c #FBCD59",
"j. c #EED757",
"k. c #EFD950",
"l. c #FFD057",
"z. c #FFDD51",
"x. c #F4DC58",
"c. c #FADB5C",
"v. c #E7E45F",
"b. c #F0E454",
"n. c #F1E05E",
"m. c #FFE66F",
"M. c #FFE470",
"N. c #F2EB79",
"B. c #FFEE7A",
"V. c #FBF182",
"C. c #FDE992",
"Z. c #FFEC90",
"A. c #FFEB95",
"S. c #F6E29D",
"D. c #F9E69A",
"F. c #FFE898",
"G. c #FCEB9B",
"H. c #FFEB9B",
"J. c #FDED98",
"K. c #FFEA9D",
"L. c #FFEC9F",
"P. c None",
/* pixels */
"P.P.P.P.P.P.P.P.P.P.P.P.P.P.P.P.P.P.P.P.P.P.P.P.P.P.P.P.P.P.P.P.P.P.P.P.P.P.P.P.P.P.P.P.P.P.P.P.P.P.P.P.P.P.P.P.P.P.P.P.",
"P.P.P.P.P.P.P.P.P.P.P.P.P.P.P.P.P.P.P.P.P.P.P.P.P.P.P.P.P.P.P.P.P.P.P.P.P.P.P.P.P.P.P.P.P.P.P.P.P.P.P.P.P.P.P.P.P.P.P.P.",
"P.P.P.P.P.P.P.P.P.P.P.P.P.P.P.P.P.P.P.P.P.P.P.P.P.P.P.P.P.P.P.P.P.P.P.P.P.P.P.P.P.P.P.P.P.P.P.P.P.P.P.P.P.P.P.P.P.P.P.P.",
"P.P.P.P.P.P.P.P.P.P.P.P.P.P.P.P.P.P.P.P.P.P.P.P.P.P.P.P.P.P.P.P.P.P.P.P.P.P.P.P.P.P.P.P.P.P.P.P.P.P.P.P.P.P.P.P.P.P.P.P.",
"P.P.P.P.P.P.P.P.P.P.P.P.P.P.P.P.P.P.P.P.P.P.P.P.P.P.P.P.P.P.P.P.P.P.P.P.P.P.P.P.P.P.P.P.P.P.P.P.P.P.P.P.P.P.P.P.P.P.P.P.",
"P.P.P.P.P.P.P.P.P.P.P.P.P.P.P.P.P.P.P.P.P.P.P.P.P.P.P.P.P.P.P.P.P.P.P.P.P.P.P.P.P.P.P.P.P.P.P.P.P.P.P.P.P.P.P.P.P.P.P.P.",
"P.P.P.P.P.P.P.P.P.P.P.P.P.P.P.P.P.P.P.P.P.P.P.P.P.P.P.P.P.P.P.P.P.P.P.P.P.P.P.P.P.P.P.P.P.P.P.P.P.P.P.P.P.P.P.P.P.P.P.P.",
"P.P.P.P.P.P.P.P.P.P.P.P.P.P.P.P.P.P.P.P.P.P.P.P.P.P.P.P.P.P.P.P.P.P.P.P.P.P.P.P.P.P.P.P.P.P.P.P.P.P.P.P.P.P.P.P.P.P.P.P.",
"P.P.P.P.P.P.P.P.P.P.P.P.P.P.P.P.P.P.P.P.P.P.P.P.P.P.P.P.P.P.P.P.P.P.P.P.P.P.P.P.P.P.P.P.P.P.P.P.P.P.P.P.P.P.P.P.P.P.P.P.",
"P.P.P.P.P.P.P.P.P.P.P.P.P.P.P.P.P.P.P.P.P.P.P.P.P.P.P.P.P.P.P.P.P.P.P.P.P.P.P.P.P.P.P.P.P.P.P.P.P.P.P.P.P.P.P.P.P.P.P.P.",
"P.P.P.P.P.P.P.P.P.P.P.P.P.P.P.P.P.P.P.P.P.P.P.P.P.P.P.P.P.P.P.P.P.P.P.P.P.P.P.P.P.P.P.P.P.P.P.P.P.P.P.P.P.P.P.P.P.P.P.P.",
"P.P.P.P.P.P.P.P.P.P.P.P.P.P.P.P.P.P.P.P.P.P.P.P.P.P.P.P.P.P.P.P.P.P.P.P.P.P.P.P.P.P.P.P.P.P.P.P.P.P.P.P.P.P.P.P.P.P.P.P.",
"P.P.P.P.P.P.P.P.P.P.P.P.P.P.P.P.P.P.P.P.P.P.P.P.P.P.P.P.P.P.P.P.P.P.P.P.P.P.P.P.P.P.P.P.P.P.P.P.P.P.P.P.P.P.P.P.P.P.P.P.",
"P.P.P.P.P.P.P.P.P.P.P.P.P.P.P.P.P.P.P.P.P.P.P.P.P.P.P.P.P.P.P.P.P.P.P.P.P.P.P.P.P.P.P.P.P.P.P.P.P.P.P.P.P.P.P.P.P.P.P.P.",
"P.P.P.P.P.P.P.P.P.P.P.P.P.P.P.P.P.P.P.P.P.P.P.P.P.P.P.P.P.P.P.P.P.P.P.P.P.P.P.P.P.P.P.P.P.P.P.P.P.P.P.P.P.P.P.P.P.P.P.P.",
"P.P.P.P.P.P.P.P.P.P.P.P.P.P.P.P.P.P.P.P.P.P.P.P.P.P.P.P.P.P.P.P.P.P.P.P.P.P.P.P.P.P.P.P.P.P.P.P.P.P.P.P.P.P.P.P.P.P.P.P.",
"P.P.P.P.P.P.P.P.P.P.P.P.P.P.P.P.P.P.P.P.P.P.P.P.P.P.P.P.P.P.P.P.P.P.P.P.P.P.P.P.P.P.P.P.P.P.P.P.P.P.P.P.P.P.P.P.P.P.P.P.",
"P.P.P.P.P.P.P.P.P.P.P.P.P.P.P.P.P.P.P.P.P.P.P.P.P.P.P.P.P.P.P.P.P.P.P.P.P.P.P.P.P.P.P.P.P.P.P.P.P.P.P.P.P.P.P.P.P.P.P.P.",
"P.P.P.P.P.P.P.P.P.P.P.P.P.P.P.P.P.P.P.P.P.P.P.P.P.P.P.P.P.P.P.P.P.P.P.P.P.P.P.P.P.P.P.P.P.P.P.P.P.P.P.P.P.P.P.P.P.P.P.P.",
"P.P.P.P.P.P.P.P.P.P.P.P.P.P.P.P.P.P.P.P.P.P.P.P.P.P.P.P.P.P.P.P.P.P.P.P.P.P.P.P.P.P.P.P.P.P.P.P.P.P.P.P.P.P.P.P.P.P.P.P.",
"P.P.P.P.P.P.P.P.P.P.P.P.P.P.P.P.P.P.P.P.P.P.P.P.P.P.P.P.P.P.P.P.P.P.P.P.P.P.P.P.P.P.P.P.P.P.P.P.P.P.P.P.P.P.P.P.P.P.P.P.",
"P.P.P.P.P.P.P.P.P.P.P.P.P.P.P.P.P.P.P.P.P.P.P.P.P.P.P.P.P.P.P.P.P.P.P.P.P.P.P.P.P.P.P.P.P.P.P.P.P.P.P.P.P.P.P.P.P.P.P.P.",
"P.P.P.P.P.P.P.P.P.P.P.P.P.P.P.P.P.P.P.P.P.P.P.P.P.P.P.P.P.P.P.P.P.P.P.P.P.P.P.P.P.P.P.P.P.P.P.P.P.P.P.P.P.P.P.P.P.P.P.P.",
"P.P.P.P.P.P.P.P.P.P.P.P.P.P.P.P.P.P.P.P.P.P.P.P.P.P.P.P.P.P.P.P.P.P.P.P.P.P.P.P.P.P.P.P.P.P.P.P.P.P.P.P.P.P.P.P.P.P.P.P.",
"P.P.P.P.P.P.P.P.P.P.P.P.P.P.P.P.P.P.P.P.P.P.P.P.P.P.P.P.P.P.P.P.P.P.P.P.P.P.P.P.P.P.P.P.P.P.P.P.P.P.P.P.P.P.P.P.P.P.P.P.",
"P.P.P.P.P.P.P.P.P.P.P.P.P.P.P.P.P.P.P.P.P.P.P.P.P.P.P.P.P.P.P.P.P.P.P.P.P.P.P.P.P.P.P.P.P.P.P.P.P.P.P.P.P.P.P.P.P.P.P.P.",
"P.P.P.P.P.P.P.P.P.P.P.P.P.P.P.P.P.P.P.P.P.P.P.P.P.P.P.P.P.P.P.P.P.P.P.P.P.P.P.P.P.P.P.P.P.P.P.P.P.P.P.P.P.P.P.P.P.P.P.P.",
"P.P.P.P.P.P.P.P.P.P.P.P.P.P.P.P.P.P.P.P.P.P.P.P.P.P.P.P.P.P.P.P.P.P.P.P.P.P.P.P.P.P.P.P.P.P.P.P.P.P.P.P.P.P.P.P.P.P.P.P.",
"P.P.P.P.P.P.P.P.P.P.P.P.P.P.P.P.P.P.P.P.P.P.P.P.P.P.P.P.P.P.P.P.P.P.P.P.P.P.P.P.P.P.P.P.P.P.P.P.P.P.P.P.P.P.P.P.P.P.P.P.",
"P.P.P.P.P.P.P.P.P.P.P.P.P.P.P.P.P.P.P.P.P.P.P.P.P.P.P.P.P.P.P.P.P.P.P.P.P.P.P.P.P.P.P.P.P.P.P.P.P.P.P.P.P.P.P.P.P.P.P.P.",
"P.P.P.P.P.P.P.P.P.P.P.P.P.P.P.P.P.P.P.P.P.P.P.P.P.P.P.P.P.P.P.P.P.P.P.P.P.P.P.P.P.P.P.P.P.P.P.P.P.P.P.P.P.P.P.P.P.P.P.P.",
"P.P.P.P.P.P.P.P.P.P.P.P.P.P.P.P.P.P.P.P.P.P.P.P.P.P.P.P.P.P.P.P.P.P.P.P.P.P.P.P.P.P.P.P.P.P.P.P.P.P.P.P.P.P.P.P.P.P.P.P.",
"P.P.P.P.P.P.P.P.P.P.P.P.P.P.P.P.P.P.P.P.P.P.P.P.P.P.P.P.P.P.P.P.P.P.P.P.P.P.P.P.P.P.P.P.P.P.P.P.P.P.P.P.P.P.P.P.P.P.P.P.",
"P.P.P.P.P.P.P.P.P.P.P.P.P.P.P.P.P.P.P.P.P.P.P.P.P.P.P.P.P.P.P.P.P.P.P.P.P.P.P.P.P.P.P.P.P.P.P.P.P.P.P.P.P.P.P.P.P.P.P.P.",
"P.P.P.P.P.P.P.P.P.P.P.P.P.P.P.P.P.P.P.P.P.P.P.P.P.P.P.P.P.P.P.P.P.P.P.P.P.P.P.P.P.P.P.P.P.P.P.P.P.P.P.P.P.P.P.P.P.P.P.P.",
"P.P.P.P.P.P.P.P.P.P.P.P.P.P.P.P.P.P.P.P.P.P.P.P.P.P.P.P.P.P.P.P.P.P.P.P.P.P.P.P.P.P.P.P.P.P.P.P.P.P.P.P.P.P.P.P.P.P.P.P.",
"P.P.P.P.P.P.P.P.P.P.P.P.P.P.P.P.P.        P.P.P.P.P.P.P.P.P.P.P.P.P.P.P.P.P.P.P.P.P.P.P.P.P.P.P.        P.P.P.P.P.P.P.P.",
"P.P.P.P.P.P.P.P.P.P.P.P.P.P.P.P.    - -   P.P.P.P.P.P.P.P.P.P.P.P.P.P.P.P.P.P.P.P.P.P.P.P.P.      8 8     P.P.P.P.P.P.P.",
"P.P.P.P.P.P.P.P.P.P.P.P.P.P.P.P.  -       P.P.P.P.P.P.P.P.P.P.j.P.P.P.P.P.P.P.P.P.P.P.P.P.P.    8 8 8 8   P.P.P.P.P.P.P.",
"P.P.P.P.P.P.P.P.P.P.P.P.P.P.P.P.P.    P.P.P.P.P.P.P.P.P.P.A P.c.P.P.P.P.P.P.P.P.P.P.P.P.P.P.P.    8 8     P.P.P.P.P.P.P.",
"P.P.P.P.P.P.P.P.P.P.P.P.P.P.P.P.P.P.P.P.P.P.          & . V &.E     J %                 P.P.P.P.P.      P.P.P.P.P.P.P.P.",
"P.P.P.P.P.P.P.P.P.P.P.P.P.P.P.P.P.P.      > > { { { { w { { r.u.q { p.} ....{ { { {         P.P.P.P.P.P.P.P.P.P.P.P.P.P.",
"P.P.P.P.P.P.P.P.P.P.P.P.P.            { { { { { ....N H ....3.z.G ..r  .| ..........{ { 0         P.P.P.P.P.P.P.P.P.P.P.",
"P.P.P.P.P.P.P.P.P.P.      > { { { { { ../ / / [ [ X.] 7./ ' * v.,.D [ [ [ [ / e / / / / ..{ { {     P.P.P.P.P.P.P.P.P.P.",
"P.P.P.P.P.P.P.P.        { { { { / / / [ ~ ~ ~ ~ R T ( o.-.T T 6.;.: T ` +.T ~ ~ ~ ^ [ [ [ / ..{ 0     P.P.P.P.P.P.P.P.P.",
"P.P.P.P.P.P.P.P.    { { { { / / [ ~ ~ ~ ~ T T T I b M 2.9.C @.8.b.; _ P l._ _ _ T T T ~ [ [ / ..{       P.P.P.P.P.P.P.P.",
"P.P.P.P.P.P.        { { / / e [ ! n U T T T K f t O.y.*.f.B t.x.n.v Z %.F y y y y l z T T [ [ [ [ {     P.P.P.P.P.P.P.P.",
"P.P.P.P.P.    - -     8 / [ ~ ~ Q k h W Y d y y y S q.:.J.i.d.m.N.#.$.M.>.i a a a a a x g g m X.[ e     P.P.P.P.P.P.P.P.",
"P.P.P.P.P.  - - - -     e [ ~ ^ ) j y a a p 7 2 < e.w.4.D.L.H.G.F.k.0.B.<., 1 , 1 < 3 a u x g T ~ = =   P.P.P.P.P.P.P.P.",
"P.P.P.P.P.      -           9 ^ _ L s a p < , < 4 =.g.S.A.A.A.A.A.Z.K.V.1.4 4 4 4 , , , a a c _       P.P.P.P.P.P.P.P.P.",
"P.P.P.P.P.P.P.      8 8 8 8               < , 4 4 5 5.a.A.A.A.A.A.C.s.h.6 4 4 4 4 4 , ,             P.P.P.P.P.P.P.P.P.P.",
"P.P.P.P.P.P.P.P.  8 8 8 8 8     0 0 0 0           . O O @ @ @ o @ @ + .                           P.P.P.P.P.P.P.P.P.P.P.",
"P.P.P.P.P.P.P.P.      8       0 0 0 0 0                 . # X $ $ O .                     P.P.P.P.P.P.P.P.P.P.P.P.P.P.P.",
"P.P.P.P.P.P.P.P.P.P.      P.  0 0 0 0 0     P.P.P.P.P.P.P.P.P.P.P.P.P.P.P.P.P.P.P.P.P.P.P.P.P.P.      P.P.P.P.P.P.P.P.P.",
"P.P.P.P.P.P.P.P.P.P.P.P.P.P.P.  0 0 0 0   P.P.P.P.    P.P.P.P.P.P.P.P.P.P.P.P.P.P.P.P.P.P.P.P.    8     P.P.P.P.P.P.P.P.",
"P.P.P.P.P.P.P.P.P.P.P.P.P.P.P.            P.P.P.        P.P.P.P.P.P.P.P.P.P.P.P.P.P.P.P.P.P.P.    8 8   P.P.P.P.P.P.P.P.",
"P.P.P.P.P.P.P.P.P.P.P.P.P.P.P.P.P.P.P.P.P.P.P.P.    0 0   P.P.P.P.P.P.P.P.P.P.P.P.P.P.P.P.P.P.P.        P.P.P.P.P.P.P.P.",
"P.P.P.P.P.P.P.P.P.P.P.P.P.P.P.P.P.P.P.P.P.P.P.P.P.    0   P.P.P.P.P.P.P.P.P.P.P.P.P.P.P.P.P.P.P.P.P.P.P.P.P.P.P.P.P.P.P.",
"P.P.P.P.P.P.P.P.P.P.P.P.P.P.P.P.P.P.P.P.P.P.P.P.P.P.      P.P.P.P.P.P.P.P.P.P.P.P.P.P.P.P.P.P.P.P.P.P.P.P.P.P.P.P.P.P.P.",
"P.P.P.P.P.P.P.P.P.P.P.P.P.P.P.P.P.P.P.P.P.P.P.P.P.P.P.P.P.P.P.P.P.P.P.P.P.P.P.P.P.P.P.P.P.P.P.P.P.P.P.P.P.P.P.P.P.P.P.P."
};
