/* XPM */
static char *result[] = {
/* columns rows colors chars-per-pixel */
"60 60 211 2 ",
"   c black",
".  c #080200",
"X  c #090603",
"o  c #0F0600",
"O  c #0C0A05",
"+  c #0C0806",
"@  c #0D0C08",
"#  c #0F0E09",
"$  c #100401",
"%  c #111008",
"&  c #13120B",
"*  c #15140D",
"=  c #1E0B1E",
"-  c #280000",
";  c #2A0001",
":  c #210803",
">  c #380C00",
",  c #2C1300",
"<  c #2A1500",
"1  c #3E0D11",
"2  c #2E221E",
"3  c #3B0127",
"4  c #12203B",
"5  c #410600",
"6  c #5D0000",
"7  c #570900",
"8  c #590800",
"9  c #4F1605",
"0  c #571600",
"q  c #5C1200",
"w  c #5F1105",
"e  c #4C0012",
"r  c #4B0412",
"t  c #661400",
"y  c #631A00",
"u  c #463A14",
"i  c #5D3212",
"p  c #612013",
"a  c #622113",
"s  c #632213",
"d  c #6A2614",
"f  c #732312",
"g  c #7D3017",
"h  c #4D3931",
"j  c #703E22",
"k  c #5F473D",
"l  c #7C6337",
"z  c #9C2C00",
"x  c #8D3518",
"c  c #8E3518",
"v  c #8B3819",
"b  c #8C3919",
"n  c #8E3A1A",
"m  c #8F3A1A",
"M  c #8F3B1A",
"N  c #913718",
"B  c #9D371A",
"V  c #93381C",
"C  c #953A1C",
"Z  c #953F1E",
"A  c #9F381A",
"S  c #9F391A",
"D  c #9E3B1C",
"F  c #983D1D",
"G  c #A32703",
"H  c #A52E00",
"J  c #B52B00",
"K  c #B32C00",
"L  c #B82B00",
"P  c #BF2800",
"I  c #AF3700",
"U  c #BB3000",
"Y  c #BC3204",
"T  c #B43900",
"R  c #BE3B07",
"E  c #A13F1D",
"W  c #B83D13",
"Q  c #982B26",
"!  c #8B3224",
"~  c #8B3E22",
"^  c #9C3522",
"/  c #99342C",
"(  c #A73E20",
")  c #C22000",
"_  c #CD2000",
"`  c #CD2302",
"'  c #C32B02",
"]  c #C52800",
"[  c #C72800",
"{  c #C52A00",
"}  c #C52903",
"|  c #D12700",
" . c #CF3400",
".. c #C53C00",
"X. c #D03B00",
"o. c #D83A00",
"O. c #D7350E",
"+. c #DE320C",
"@. c #DF3909",
"#. c #CC3B1E",
"$. c #DC3812",
"%. c #E92807",
"&. c #FC2E00",
"*. c #E43603",
"=. c #EE3200",
"-. c #E53800",
";. c #E73A00",
":. c #F03700",
">. c #E73310",
",. c #9B401B",
"<. c #99431D",
"1. c #B84C0E",
"2. c #A5421D",
"3. c #A1451C",
"4. c #A4471F",
"5. c #AC441D",
"6. c #AF471D",
"7. c #9D4620",
"8. c #8D5728",
"9. c #995124",
"0. c #9C5525",
"q. c #935C29",
"w. c #8A5A31",
"e. c #A94A20",
"r. c #A94B20",
"t. c #A85D2C",
"y. c #B24F3A",
"u. c #B6543B",
"i. c #896D3F",
"p. c #946238",
"a. c #AA6530",
"s. c #C54100",
"d. c #C54300",
"f. c #CF4200",
"g. c #CB4A06",
"h. c #C1460B",
"j. c #D44600",
"k. c #D14900",
"l. c #E94506",
"z. c #E9460D",
"x. c #F04A0C",
"c. c #C95227",
"v. c #C74932",
"b. c #E67F30",
"n. c #FF713B",
"m. c #9E334F",
"M. c #BD4F42",
"N. c #FF7441",
"B. c #F37054",
"V. c #EA8E39",
"C. c #EE8F3F",
"Z. c #F78A37",
"A. c #F0833E",
"S. c #FE8439",
"D. c #FF863F",
"F. c #F6923C",
"G. c #FC9B3C",
"H. c #EFAC37",
"J. c #F7B23D",
"K. c #FFD21A",
"L. c #F68646",
"P. c #FF8242",
"I. c #FD8741",
"U. c #FF8547",
"Y. c #FF8B46",
"T. c #FF8049",
"R. c #FF8B4A",
"E. c #ED8E54",
"W. c #F1B249",
"Q. c #FFBA4B",
"!. c #F0BA56",
"~. c #FFC543",
"^. c #FFC94F",
"/. c #EFDA4B",
"(. c #F4DD4F",
"). c #FFCC56",
"_. c #FCC858",
"`. c #FFD156",
"'. c #F3D951",
"]. c #F4DA52",
"[. c #FAD850",
"{. c #FBD951",
"}. c #FFDD53",
"|. c #FDD05A",
" X c #FDD25F",
".X c #F4D85A",
"XX c #F6DD5E",
"oX c #F9DB5F",
"OX c #E9E254",
"+X c #FAE856",
"@X c #F5D564",
"#X c #FAE371",
"$X c #FAE07F",
"%X c #FFEE7A",
"&X c #FCE484",
"*X c #F4E18E",
"=X c #F8E08E",
"-X c #FFEB8A",
";X c #FDEE89",
":X c #FEEB8F",
">X c #FDED8D",
",X c #FFEB92",
"<X c #FBEC91",
"1X c #FBEE92",
"2X c #FFEB94",
"3X c #FFEB95",
"4X c #FFEE97",
"5X c #FFEA99",
"6X c #FFEF9B",
"7X c #FAED9F",
"8X c None",
/* pixels */
"8X8X8X8X8X8X8X8X8X8X8X8X8X8X8X8X8X8X8X8X8X8X8X8X8X8X8X8X8X8X8X8X8X8X8X8X8X8X8X8X8X8X8X8X8X8X8X8X8X8X8X8X8X8X8X8X8X8X8X8X",
"8X8X8X8X8X8X8X8X8X8X8X8X8X8X8X8X8X8X8X8X8X8X8X8X8X8X8X8X8X8X8X8X8X8X8X8X8X8X8X8X8X8X8X8X8X8X8X8X8X8X8X8X8X8X8X8X8X8X8X8X",
"8X8X8X8X8X8X8X8X8X8X8X8X8X8X8X8X8X8X8X8X8X8X8X8X8X8X8X8X8X8X8X8X8X8X8X8X8X8X8X8X8X8X8X8X8X8X8X8X8X8X8X8X8X8X8X8X8X8X8X8X",
"8X8X8X8X8X8X8X8X8X8X8X8X8X8X8X8X8X8X8X8X8X8X8X8X8X8X8X8X8X8X8X8X8X8X8X8X8X8X8X8X8X8X8X8X8X8X8X8X8X8X8X8X8X8X8X8X8X8X8X8X",
"8X8X8X8X8X8X8X8X8X8X8X8X8X8X8X8X8X8X8X8X8X8X8X8X8X8X8X8X8X8X8X8X8X8X8X8X8X8X8X8X8X8X8X8X8X8X8X8X8X8X8X8X8X8X8X8X8X8X8X8X",
"8X8X8X8X8X8X8X8X8X8X8X8X8X8X8X8X8X8X8X8X8X8X8X8X8X8X8X8X8X8X8X8X8X8X8X8X8X8X8X8X8X8X8X8X8X8X8X8X8X8X8X8X8X8X8X8X8X8X8X8X",
"8X8X8X8X8X8X8X8X8X8X8X8X8X8X8X8X8X8X8X8X8X8X8X8X8X8X8X8X8X8X8X8X8X8X8X8X8X8X8X8X8X8X8X8X8X8X8X8X8X8X8X8X8X8X8X8X8X8X8X8X",
"8X8X8X8X8X8X8X8X8X8X8X8X8X8X8X8X8X8X8X8X8X8X8X8X8X8X8X8X8X8X8X8X8X8X8X8X8X8X8X8X8X8X8X8X8X8X8X8X8X8X8X8X8X8X8X8X8X8X8X8X",
"8X8X8X8X8X8X8X8X8X8X8X8X8X8X8X8X8X8X8X8X8X8X8X8X8X8X8X8X8X8X8X8X8X8X8X8X8X8X8X8X8X8X8X8X8X8X8X8X8X8X8X8X8X8X8X8X8X8X8X8X",
"8X8X8X8X8X8X8X8X8X8X8X8X8X8X8X8X8X8X8X8X8X8X8X8X8X8X8X8X8X8X8X8X8X8X8X8X8X8X8X8X8X8X8X8X8X8X8X8X8X8X8X8X8X8X8X8X8X8X8X8X",
"8X8X8X8X8X8X8X8X8X8X8X8X8X8X8X8X8X8X8X8X8X8X8X8X8X8X8X8X8X8X8X8X8X8X8X8X8X8X8X8X8X8X8X8X8X8X8X8X8X8X8X8X8X8X8X8X8X8X8X8X",
"8X8X8X8X8X8X8X8X8X8X8X8X8X8X8X8X8X8X8X8X8X8X8X8X8X8X8X8X8X8X8X8X8X8X8X8X8X8X8X8X8X8X8X8X8X8X8X8X8X8X8X8X8X8X8X8X8X8X8X8X",
"8X8X8X8X8X8X8X8X8X8X8X8X8X8X8X8X8X8X8X8X8X8X8X8X8X8X8X8X8X8X8X8X8X8X8X8X8X8X8X8X8X8X8X8X8X8X8X8X8X8X8X8X8X8X8X8X8X8X8X8X",
"8X8X8X8X8X8X8X8X8X8X8X8X8X8X8X8X8X8X8X8X8X8X8X8X8X8X8X8X8X8X8X8X8X8X8X8X8X8X8X8X8X8X8X8X8X8X8X8X8X8X8X8X8X8X8X8X8X8X8X8X",
"8X8X8X8X8X8X8X8X8X8X8X8X8X8X8X8X8X8X8X8X8X8X8X8X8X8X8X8X8X8X8X8X8X8X8X8X8X8X8X8X8X8X8X8X8X8X8X8X8X8X8X8X8X8X8X8X8X8X8X8X",
"8X8X8X8X8X8X8X8X8X8X8X8X8X8X8X8X8X8X8X8X8X8X8X8X8X8X8X8X8X8X8X8X8X8X8X8X8X8X8X8X8X8X8X8X8X8X8X8X8X8X8X8X8X8X8X8X8X8X8X8X",
"8X8X8X8X8X8X8X8X8X8X8X8X8X8X8X8X8X8X8X8X8X8X8X8X8X8X8X8X8X8X8X8X8X8X8X8X8X8X8X8X8X8X8X8X8X8X8X8X8X8X8X8X8X8X8X8X8X8X8X8X",
"8X8X8X8X8X8X8X8X8X8X8X8X8X8X8X8X8X8X8X8X8X8X8X8X8X8X8X8X8X8X8X8X8X8X8X8X8X8X8X8X8X8X8X8X8X8X8X8X8X8X8X8X8X8X8X8X8X8X8X8X",
"8X8X8X8X8X8X8X8X8X8X8X8X8X8X8X8X8X8X8X8X8X8X8X8X8X8X8X8X8X8X8X8X8Xh.8X8X~ 8X8X/ T 8X8X8X8X8X8X8X8X8X8X8X8X8X8X8X8X8X8X8X",
"8X8X8X8X8X8X8X8X8X8X8X8X8X8X8X8X8X8X8X8X8X8X8X8X8X8X8X8X8X8X0 8X@.8X8X8X8X8X8 _ 9 8X8X8X8X8X8X8X8X8X8X8X8X8X8X8X8X8X8X8X",
"8X8X8X8X8X8X8X8X8X8X8X8X8X8X8X8X8X8X8X8X8X8X8X8X8X8X8X8X8X< ) 8X3 8X8X8X8X8XE.L 8X8X8X8X8X8X8X8X8X8X8X8X8X8X8X8X8X8X8X8X",
"8X8X8X8X8X8X8X8X8X8X8X8X8X8X8X8X8X        8X8X8X8X8Xd.8X8X>.8X8X8Xc.8X8X:.8XI 8X8X8X8X8X8X8X8X8X        8X8X8X8X8X8X8X8X",
"8X8X8X8X8X8X8X8X8X8X8X8X8X8X8X8X    2 2   8X8X8X8X8X8X8XK Y.8X8X8X8X8Xy A.8X, 8X8X8X8X8X8X8X      h h     8X8X8X8X8X8X8X",
"8X8X8X8X8X8X8X8X8X8X8X8X8X8X8X8X  2       8X8X8X1.8X8X8XJ g.F.8X8Xu.8Xq R.#.8X8X8X8X8X8X8X8X    h h h h   8X8X8X8X8X8X8X",
"8X8X8X8X8X8X8X8X8X8X8X8X8X8X8X8X8X    8X8X8X8XM.+X^ 8X8X8X6 f.y.8XQ.8Xt L.~.8X8X8X8X8X8X8X8X8X    h h     8X8X8X8X8X8X8X",
"8X8X8X8X8X8X8X8X8X8X8X8X8X8X8X8X8X8X8X8X8X8Xz z.6X`         P R   H.  w G._.            8X8X8X8X8X      8X8X8X8X8X8X8X8X",
"8X8X8X8X8X8X8X8X8X8X8X8X8X8X8X8X8X8X      u G @X4XW i.- i.i.i.i.=.i.r p.&.}.i.i.i.i.        8X8X8X8X8X8X8X8X8X8X8X8X8X8X",
"8X8X8X8X8X8X8X8X8X8X8X8X8X            i.i.i.Q +.[ p.p.S.p.p.p.p.k.p.p.p.$.| p.p.p.p.i.i.k         8X8X8X8X8X8X8X8X8X8X8X",
"8X8X8X8X8X8X8X8X8X8X      u i.i.i.i.i.p.w.w.w.t.U a.-.; w.7 *.j.= l.t.t.t.] w.l w.w.w.w.p.i.i.i.    8X8X8X8X8X8X8X8X8X8X",
"8X8X8X8X8X8X8X8X        i.i.i.i.w.w.w.t.0.0.0.0.e 6.6.6.! o.oX`.Y 6.6.m.6.6.0.0.0.q.t.t.t.w.p.i.k     8X8X8X8X8X8X8X8X8X",
"8X8X8X8X8X8X8X8X    i.i.i.i.w.w.t.0.0.0.0.6.6.1 P.v.5.4.B.).%X{.} r.O.b.r.r.r.r.6.6.6.0.t.t.w.p.i.      8X8X8X8X8X8X8X8X",
"8X8X8X8X8X8X        i.i.w.w.l t.9.E 2.6.6.6.,.> #XU.i c !.$X,X[. .;.N.W.x x x x x A S 6.6.t.t.t.t.i.    8X8X8X8X8X8X8X8X",
"8X8X8X8X8X    2 2     h w.t.0.0.8.Z V 7.3.N x T.;XV.H D./.3X3X XC.X.^.J.x.b %.m m m m D B B ( a.t.l     8X8X8X8X8X8X8X8X",
"8X8X8X8X8X  2 2 2 2     l t.0.q.e.C x m m n g ..>X<XZ.3X3X3X3X3X'.].&X(.' 4 K.p s a d m v D B 6.0.: :   8X8X8X8X8X8X8X8X",
"8X8X8X8X8X      2           j q.r.<.M m n a p s..X7X-X3X3X3X3X3X2X2X:XXX{ f f f f p p p m m F r.      8X8X8X8X8X8X8X8X8X",
"8X8X8X8X8X8X8X      h h h h               a p 5 I.|.*X=X3X3X5X5X,X1XOXn.f f f f f f p p             8X8X8X8X8X8X8X8X8X8X",
"8X8X8X8X8X8X8X8X  h h h h h     k k k k           . O @ X % # & * o $ +                           8X8X8X8X8X8X8X8X8X8X8X",
"8X8X8X8X8X8X8X8X      h       k k k k k                                                   8X8X8X8X8X8X8X8X8X8X8X8X8X8X8X",
"8X8X8X8X8X8X8X8X8X8X      8X  k k k k k     8X8X8X8X8X8X8X8X8X8X8X8X8X8X8X8X8X8X8X8X8X8X8X8X8X8X      8X8X8X8X8X8X8X8X8X",
"8X8X8X8X8X8X8X8X8X8X8X8X8X8X8X  k k k k   8X8X8X8X    8X8X8X8X8X8X8X8X8X8X8X8X8X8X8X8X8X8X8X8X    h     8X8X8X8X8X8X8X8X",
"8X8X8X8X8X8X8X8X8X8X8X8X8X8X8X            8X8X8X        8X8X8X8X8X8X8X8X8X8X8X8X8X8X8X8X8X8X8X    h h   8X8X8X8X8X8X8X8X",
"8X8X8X8X8X8X8X8X8X8X8X8X8X8X8X8X8X8X8X8X8X8X8X8X    k k   8X8X8X8X8X8X8X8X8X8X8X8X8X8X8X8X8X8X8X        8X8X8X8X8X8X8X8X",
"8X8X8X8X8X8X8X8X8X8X8X8X8X8X8X8X8X8X8X8X8X8X8X8X8X    k   8X8X8X8X8X8X8X8X8X8X8X8X8X8X8X8X8X8X8X8X8X8X8X8X8X8X8X8X8X8X8X",
"8X8X8X8X8X8X8X8X8X8X8X8X8X8X8X8X8X8X8X8X8X8X8X8X8X8X      8X8X8X8X8X8X8X8X8X8X8X8X8X8X8X8X8X8X8X8X8X8X8X8X8X8X8X8X8X8X8X",
"8X8X8X8X8X8X8X8X8X8X8X8X8X8X8X8X8X8X8X8X8X8X8X8X8X8X8X8X8X8X8X8X8X8X8X8X8X8X8X8X8X8X8X8X8X8X8X8X8X8X8X8X8X8X8X8X8X8X8X8X",
"8X8X8X8X8X8X8X8X8X8X8X8X8X8X8X8X8X8X8X8X8X8X8X8X8X8X8X8X8X8X8X8X8X8X8X8X8X8X8X8X8X8X8X8X8X8X8X8X8X8X8X8X8X8X8X8X8X8X8X8X",
"8X8X8X8X8X8X8X8X8X8X8X8X8X8X8X8X8X8X8X8X8X8X8X8X8X8X8X8X8X8X8X8X8X8X8X8X8X8X8X8X8X8X8X8X8X8X8X8X8X8X8X8X8X8X8X8X8X8X8X8X",
"8X8X8X8X8X8X8X8X8X8X8X8X8X8X8X8X8X8X8X8X8X8X8X8X8X8X8X8X8X8X8X8X8X8X8X8X8X8X8X8X8X8X8X8X8X8X8X8X8X8X8X8X8X8X8X8X8X8X8X8X",
"8X8X8X8X8X8X8X8X8X8X8X8X8X8X8X8X8X8X8X8X8X8X8X8X8X8X8X8X8X8X8X8X8X8X8X8X8X8X8X8X8X8X8X8X8X8X8X8X8X8X8X8X8X8X8X8X8X8X8X8X",
"8X8X8X8X8X8X8X8X8X8X8X8X8X8X8X8X8X8X8X8X8X8X8X8X8X8X8X8X8X8X8X8X8X8X8X8X8X8X8X8X8X8X8X8X8X8X8X8X8X8X8X8X8X8X8X8X8X8X8X8X",
"8X8X8X8X8X8X8X8X8X8X8X8X8X8X8X8X8X8X8X8X8X8X8X8X8X8X8X8X8X8X8X8X8X8X8X8X8X8X8X8X8X8X8X8X8X8X8X8X8X8X8X8X8X8X8X8X8X8X8X8X",
"8X8X8X8X8X8X8X8X8X8X8X8X8X8X8X8X8X8X8X8X8X8X8X8X8X8X8X8X8X8X8X8X8X8X8X8X8X8X8X8X8X8X8X8X8X8X8X8X8X8X8X8X8X8X8X8X8X8X8X8X",
"8X8X8X8X8X8X8X8X8X8X8X8X8X8X8X8X8X8X8X8X8X8X8X8X8X8X8X8X8X8X8X8X8X8X8X8X8X8X8X8X8X8X8X8X8X8X8X8X8X8X8X8X8X8X8X8X8X8X8X8X",
"8X8X8X8X8X8X8X8X8X8X8X8X8X8X8X8X8X8X8X8X8X8X8X8X8X8X8X8X8X8X8X8X8X8X8X8X8X8X8X8X8X8X8X8X8X8X8X8X8X8X8X8X8X8X8X8X8X8X8X8X",
"8X8X8X8X8X8X8X8X8X8X8X8X8X8X8X8X8X8X8X8X8X8X8X8X8X8X8X8X8X8X8X8X8X8X8X8X8X8X8X8X8X8X8X8X8X8X8X8X8X8X8X8X8X8X8X8X8X8X8X8X",
"8X8X8X8X8X8X8X8X8X8X8X8X8X8X8X8X8X8X8X8X8X8X8X8X8X8X8X8X8X8X8X8X8X8X8X8X8X8X8X8X8X8X8X8X8X8X8X8X8X8X8X8X8X8X8X8X8X8X8X8X",
"8X8X8X8X8X8X8X8X8X8X8X8X8X8X8X8X8X8X8X8X8X8X8X8X8X8X8X8X8X8X8X8X8X8X8X8X8X8X8X8X8X8X8X8X8X8X8X8X8X8X8X8X8X8X8X8X8X8X8X8X",
"8X8X8X8X8X8X8X8X8X8X8X8X8X8X8X8X8X8X8X8X8X8X8X8X8X8X8X8X8X8X8X8X8X8X8X8X8X8X8X8X8X8X8X8X8X8X8X8X8X8X8X8X8X8X8X8X8X8X8X8X",
"8X8X8X8X8X8X8X8X8X8X8X8X8X8X8X8X8X8X8X8X8X8X8X8X8X8X8X8X8X8X8X8X8X8X8X8X8X8X8X8X8X8X8X8X8X8X8X8X8X8X8X8X8X8X8X8X8X8X8X8X",
"8X8X8X8X8X8X8X8X8X8X8X8X8X8X8X8X8X8X8X8X8X8X8X8X8X8X8X8X8X8X8X8X8X8X8X8X8X8X8X8X8X8X8X8X8X8X8X8X8X8X8X8X8X8X8X8X8X8X8X8X"
};
