/* XPM */
static char *result[] = {
/* columns rows colors chars-per-pixel */
"60 60 63 1 ",
"  c black",
". c #210803",
"X c #2E221E",
"o c #463A14",
"O c #612013",
"+ c #622113",
"@ c #632213",
"# c #642213",
"$ c #672414",
"% c #692514",
"& c #6A2614",
"* c #732312",
"= c #722A15",
"- c #7D3017",
"; c #4D3931",
": c #703E22",
"> c #5F473D",
", c #7C6337",
"< c #8D3518",
"1 c #8E3518",
"2 c #8B3819",
"3 c #8C3919",
"4 c #8E3A1A",
"5 c #8F3A1A",
"6 c #8F3B1A",
"7 c #983317",
"8 c #913718",
"9 c #923718",
"0 c #9D371A",
"q c #93381C",
"w c #953A1C",
"e c #953F1E",
"r c #9E381A",
"t c #9F381A",
"y c #9F391A",
"u c #9E3B1C",
"i c #983D1D",
"p c #A13A1B",
"a c #A13F1D",
"s c #A73E20",
"d c #9B401B",
"f c #99431D",
"g c #9C401D",
"h c #A5421D",
"j c #A1451C",
"k c #A4471F",
"l c #AC441D",
"z c #AF471D",
"x c #9D4620",
"c c #8D5728",
"v c #995124",
"b c #9C5525",
"n c #935C29",
"m c #8A5A31",
"M c #A94A20",
"N c #A94B20",
"B c #B04B20",
"V c #B74C22",
"C c #A85D2C",
"Z c #896D3F",
"A c #946238",
"S c #AA6530",
"D c None",
/* pixels */
"DDDDDDDDDDDDDDDDDDDDDDDDDDDDDDDDDDDDDDDDDDDDDDDDDDDDDDDDDDDD",
"DDDDDDDDDDDDDDDDDDDDDDDDDDDDDDDDDDDDDDDDDDDDDDDDDDDDDDDDDDDD",
"DDDDDDDDDDDDDDDDDDDDDDDDDDDDDDDDDDDDDDDDDDDDDDDDDDDDDDDDDDDD",
"DDDDDDDDDDDDDDDDDDDDDDDDDDDDDDDDDDDDDDDDDDDDDDDDDDDDDDDDDDDD",
"DDDDDDDDDDDDDDDDDDDDDDDDDDDDDDDDDDDDDDDDDDDDDDDDDDDDDDDDDDDD",
"DDDDDDDDDDDDDDDDDDDDDDDDDDDDDDDDDDDDDDDDDDDDDDDDDDDDDDDDDDDD",
"DDDDDDDDDDDDDDDDDDDDDDDDDDDDDDDDDDDDDDDDDDDDDDDDDDDDDDDDDDDD",
"DDDDDDDDDDDDDDDDDDDDDDDDDDDDDDDDDDDDDDDDDDDDDDDDDDDDDDDDDDDD",
"DDDDDDDDDDDDDDDDDDDDDDDDDDDDDDDDDDDDDDDDDDDDDDDDDDDDDDDDDDDD",
"DDDDDDDDDDDDDDDDDDDDDDDDDDDDDDDDDDDDDDDDDDDDDDDDDDDDDDDDDDDD",
"DDDDDDDDDDDDDDDDDDDDDDDDDDDDDDDDDDDDDDDDDDDDDDDDDDDDDDDDDDDD",
"DDDDDDDDDDDDDDDDDDDDDDDDDDDDDDDDDDDDDDDDDDDDDDDDDDDDDDDDDDDD",
"DDDDDDDDDDDDDDDDDDDDDDDDDDDDDDDDDDDDDDDDDDDDDDDDDDDDDDDDDDDD",
"DDDDDDDDDDDDDDDDDDDDDDDDDDDDDDDDDDDDDDDDDDDDDDDDDDDDDDDDDDDD",
"DDDDDDDDDDDDDDDDDDDDDDDDDDDDDDDDDDDDDDDDDDDDDDDDDDDDDDDDDDDD",
"DDDDDDDDDDDDDDDDDDDDDDDDDDDDDDDDDDDDDDDDDDDDDDDDDDDDDDDDDDDD",
"DDDDDDDDDDDDDDDDDDDDDDDDDDDDDDDDDDDDDDDDDDDDDDDDDDDDDDDDDDDD",
"DDDDDDDDDDDDDDDDDDDDDDDDDDDDDDDDDDDDDDDDDDDDDDDDDDDDDDDDDDDD",
"DDDDDDDDDDDDDDDDDDDDDDDDDDDDDDDDDDDDDDDDDDDDDDDDDDDDDDDDDDDD",
"DDDDDDDDDDDDDDDDDDDDDDDDDDDDDDDDDDDDDDDDDDDDDDDDDDDDDDDDDDDD",
"DDDDDDDDDDDDDDDDDDDDDDDDDDDDDDDDDDDDDDDDDDDDDDDDDDDDDDDDDDDD",
"DDDDDDDDDDDDDDDDDDDDDDDDDDDDDDDDDDDDDDDDDDDDDDDDDDDDDDDDDDDD",
"DDDDDDDDDDDDDDDDDDDDDDDDDDDDDDDDDDDDDDDDDDDDDDDDDDDDDDDDDDDD",
"DDDDDDDDDDDDDDDDDDDDDDDDDDDDDDDDDDDDDDDDDDDDDDDDDDDDDDDDDDDD",
"DDDDDDDDDDDDDDDDDDDDDDDDDDDDDDDDDDDDDDDDDDDDDDDDDDDDDDDDDDDD",
"DDDDDDDDDDDDDDDDDDDDDDDDDDDDDDDDDDDDDDDDDDDDDDDDDDDDDDDDDDDD",
"DDDDDDDDDDDDDDDDDDDDDDDDDDDDDDDDDDDDDDDDDDDDDDDDDDDDDDDDDDDD",
"DDDDDDDDDDDDDDDDDDDDDDDDDDDDDDDDDDDDDDDDDDDDDDDDDDDDDDDDDDDD",
"DDDDDDDDDDDDDDDDDDDDDDDDDDDDDDDDDDDDDDDDDDDDDDDDDDDDDDDDDDDD",
"DDDDDDDDDDDDDDDDDDDDDDDDDDDDDDDDDDDDDDDDDDDDDDDDDDDDDDDDDDDD",
"DDDDDDDDDDDDDDDDDDDDDDDDDDDDDDDDDDDDDDDDDDDDDDDDDDDDDDDDDDDD",
"DDDDDDDDDDDDDDDDDDDDDDDDDDDDDDDDDDDDDDDDDDDDDDDDDDDDDDDDDDDD",
"DDDDDDDDDDDDDDDDDDDDDDDDDDDDDDDDDDDDDDDDDDDDDDDDDDDDDDDDDDDD",
"DDDDDDDDDDDDDDDDDDDDDDDDDDDDDDDDDDDDDDDDDDDDDDDDDDDDDDDDDDDD",
"DDDDDDDDDDDDDDDDDDDDDDDDDDDDDDDDDDDDDDDDDDDDDDDDDDDDDDDDDDDD",
"DDDDDDDDDDDDDDDDDDDDDDDDDDDDDDDDDDDDDDDDDDDDDDDDDDDDDDDDDDDD",
"DDDDDDDDDDDDDDDDD    DDDDDDDDDDDDDDDDDDDDDDDDDDD    DDDDDDDD",
"DDDDDDDDDDDDDDDD  XX DDDDDDDDDDDDDDDDDDDDDDDDD   ;;  DDDDDDD",
"DDDDDDDDDDDDDDDD X   DDDDDDDDDDDDDDDDDDDDDDDDD  ;;;; DDDDDDD",
"DDDDDDDDDDDDDDDDD  DDDDDDDDDDDDDDDDDDDDDDDDDDDD  ;;  DDDDDDD",
"DDDDDDDDDDDDDDDDDDDDDD                      DDDDD   DDDDDDDD",
"DDDDDDDDDDDDDDDDDD   ooZZZZZZZZZZZAAAAZZZZ    DDDDDDDDDDDDDD",
"DDDDDDDDDDDDD      ZZZZZAAAAAAAAAAAAAAAAAAZZ>    DDDDDDDDDDD",
"DDDDDDDDDD   oZZZZZAmmmCCSmmmVCCCCCCCCm,mmmmAZZZ  DDDDDDDDDD",
"DDDDDDDD    ZZZZmmmCbbbbzzzzzzzzzzzBzzbbbnCCCmAZ>  DDDDDDDDD",
"DDDDDDDD  ZZZZmmCbbbbzzzrplkg0lzzNNNNNNNzzzbCCmAZ   DDDDDDDD",
"DDDDDD    ZZmm,Cvahzzzd95<<1<<<<7555<<<<<tyzzCCCCZ  DDDDDDDD",
"DDDDD  XX  ;mCbbceqxj8<<<=%$#<<<<<<<<355555u00sSC,  DDDDDDDD",
"DDDDD XXXX  ,CbnMw<554-%+OOOOOOOOOOOOO@O@+&52u0zb.. DDDDDDDD",
"DDDDD   X     :nNf654+O+*****************OOO55iN   DDDDDDDDD",
"DDDDDDD   ;;;;       +O*******************OO      DDDDDDDDDD",
"DDDDDDDD ;;;;;  >>>>                             DDDDDDDDDDD",
"DDDDDDDD   ;   >>>>>                         DDDDDDDDDDDDDDD",
"DDDDDDDDDD   D >>>>>  DDDDDDDDDDDDDDDDDDDDDDDDDD   DDDDDDDDD",
"DDDDDDDDDDDDDDD >>>> DDDD  DDDDDDDDDDDDDDDDDDDD  ;  DDDDDDDD",
"DDDDDDDDDDDDDDD      DDD    DDDDDDDDDDDDDDDDDDD  ;; DDDDDDDD",
"DDDDDDDDDDDDDDDDDDDDDDDD  >> DDDDDDDDDDDDDDDDDDD    DDDDDDDD",
"DDDDDDDDDDDDDDDDDDDDDDDDD  > DDDDDDDDDDDDDDDDDDDDDDDDDDDDDDD",
"DDDDDDDDDDDDDDDDDDDDDDDDDD   DDDDDDDDDDDDDDDDDDDDDDDDDDDDDDD",
"DDDDDDDDDDDDDDDDDDDDDDDDDDDDDDDDDDDDDDDDDDDDDDDDDDDDDDDDDDDD"
};
