/* XPM */
static char *result[] = {
/* columns rows colors chars-per-pixel */
"60 60 183 2 ",
"   c black",
".  c #010000",
"X  c #000001",
"o  c #020201",
"O  c #050402",
"+  c #080200",
"@  c #0B0702",
"#  c #090803",
"$  c #0B0903",
"%  c #0D0803",
"&  c #110903",
"*  c #100904",
"=  c #140B05",
"-  c #180D06",
";  c #0B1F14",
":  c #210803",
">  c #2C0F00",
",  c #2D0A04",
"<  c #340900",
"1  c #370409",
"2  c #3F0209",
"3  c #330D0A",
"4  c #2B1200",
"5  c #241800",
"6  c #391507",
"7  c #0D200D",
"8  c #2E221E",
"9  c #130F30",
"0  c #161B39",
"q  c #270A3A",
"w  c #450500",
"e  c #421005",
"r  c #531D01",
"t  c #54190B",
"y  c #551B0F",
"u  c #571D11",
"i  c #7A0100",
"p  c #463A14",
"a  c #7B250E",
"s  c #612013",
"d  c #622113",
"f  c #632213",
"g  c #642213",
"h  c #672414",
"j  c #692514",
"k  c #6A2614",
"l  c #732312",
"z  c #43282F",
"x  c #4E3E2F",
"c  c #4E223B",
"v  c #4D3931",
"b  c #703E22",
"n  c #5F473D",
"m  c #7C6337",
"M  c #8D3518",
"N  c #8B3819",
"B  c #8C3919",
"V  c #8E3A1A",
"C  c #8F3A1A",
"Z  c #8F3B1A",
"A  c #923718",
"S  c #9D371A",
"D  c #93381C",
"F  c #953A1C",
"G  c #953F1E",
"H  c #9E381A",
"J  c #9F381A",
"K  c #9F391A",
"L  c #9E3B1C",
"P  c #983D1D",
"I  c #BC2E00",
"U  c #BF2E01",
"Y  c #BB3400",
"T  c #BF3D00",
"R  c #B9340B",
"E  c #BB380C",
"W  c #A6321B",
"Q  c #A13A1B",
"!  c #A13F1D",
"~  c #802E22",
"^  c #A73E20",
"/  c #C42B00",
"(  c #C52C03",
")  c #CA2800",
"_  c #CC330A",
"`  c #CF330D",
"'  c #DE3403",
"]  c #DF3706",
"[  c #D73800",
"{  c #DC3C02",
"}  c #D9330B",
"|  c #E72E00",
" . c #FD2D00",
".. c #E73300",
"X. c #E53400",
"o. c #E23A00",
"O. c #E73900",
"+. c #E53B00",
"@. c #E03D00",
"#. c #FF3302",
"$. c #FB3906",
"%. c #F63808",
"&. c #EA3A13",
"*. c #EE3A15",
"=. c #F03F16",
"-. c #99431D",
";. c #9C401D",
":. c #A1401D",
">. c #A5421D",
",. c #A1451C",
"<. c #A4471F",
"1. c #AC441D",
"2. c #AF471D",
"3. c #B55B1D",
"4. c #9D4620",
"5. c #8D5728",
"6. c #995124",
"7. c #9C5525",
"8. c #935C29",
"9. c #804132",
"0. c #8A5A31",
"q. c #A94A20",
"w. c #A94B20",
"e. c #A1462B",
"r. c #B04B20",
"t. c #B74C22",
"y. c #A85D2C",
"u. c #896D3F",
"i. c #946238",
"p. c #AA6530",
"a. c #C54100",
"s. c #CE4205",
"d. c #C2400C",
"f. c #DA4600",
"g. c #DB4E00",
"h. c #C04013",
"j. c #CF4215",
"k. c #E54000",
"l. c #E64300",
"z. c #E94200",
"x. c #EB4304",
"c. c #ED552C",
"v. c #BF7665",
"b. c #FF764A",
"n. c #D3922A",
"m. c #DF9939",
"M. c #D89C3C",
"N. c #FD823E",
"B. c #FF9733",
"V. c #FF9636",
"C. c #FFD036",
"Z. c #ED8C45",
"A. c #F58144",
"S. c #FD8C46",
"D. c #E49749",
"F. c #F7A553",
"G. c #FFD446",
"H. c #F3DF42",
"J. c #FED845",
"K. c #FFD74D",
"L. c #F2D948",
"P. c #F5DC4E",
"I. c #F9D952",
"U. c #FAD852",
"Y. c #F9DF56",
"T. c #F2D95A",
"R. c #F0E04D",
"E. c #F0E24D",
"W. c #F7E054",
"Q. c #FFDE6A",
"!. c #EBE166",
"~. c #EEF37D",
"^. c #E9CE87",
"/. c #FFEA8D",
"(. c #FDE79C",
"). c #F7EF9A",
"_. c #FFEA99",
"`. c #FFE99B",
"'. c #FFEA9A",
"]. c #FFEA9B",
"[. c #FCEB9D",
"{. c #FFE9A0",
"}. c None",
/* pixels */
"}.}.}.}.}.}.}.}.}.}.}.}.}.}.}.}.}.}.}.}.}.}.}.}.}.}.}.}.}.}.}.}.}.}.}.}.}.}.}.}.}.}.}.}.}.}.}.}.}.}.}.}.}.}.}.}.}.}.}.}.",
"}.}.}.}.}.}.}.}.}.}.}.}.}.}.}.}.}.}.}.}.}.}.}.}.}.}.}.}.}.}.}.}.}.}.}.}.}.}.}.}.}.}.}.}.}.}.}.}.}.}.}.}.}.}.}.}.}.}.}.}.",
"}.}.}.}.}.}.}.}.}.}.}.}.}.}.}.}.}.}.}.}.}.}.}.}.}.}.}.}.}.}.}.}.}.}.}.}.}.}.}.}.}.}.}.}.}.}.}.}.}.}.}.}.}.}.}.}.}.}.}.}.",
"}.}.}.}.}.}.}.}.}.}.}.}.}.}.}.}.}.}.}.}.}.}.}.}.}.}.}.}.}.}.}.}.}.}.}.}.}.}.}.}.}.}.}.}.}.}.}.}.}.}.}.}.}.}.}.}.}.}.}.}.",
"}.}.}.}.}.}.}.}.}.}.}.}.}.}.}.}.}.}.}.}.}.}.}.}.}.}.}.}.}.}.}.}.}.}.}.}.}.}.}.}.}.}.}.}.}.}.}.}.}.}.}.}.}.}.}.}.}.}.}.}.",
"}.}.}.}.}.}.}.}.}.}.}.}.}.}.}.}.}.}.}.}.}.}.}.}.}.}.}.}.}.}.}.}.}.}.}.}.}.}.}.}.}.}.}.}.}.}.}.}.}.}.}.}.}.}.}.}.}.}.}.}.",
"}.}.}.}.}.}.}.}.}.}.}.}.}.}.}.}.}.}.}.}.}.}.}.}.}.}.}.}.}.}.}.}.}.}.}.}.}.}.}.}.}.}.}.}.}.}.}.}.}.}.}.}.}.}.}.}.}.}.}.}.",
"}.}.}.}.}.}.}.}.}.}.}.}.}.}.}.}.}.}.}.}.}.}.}.}.}.}.}.}.}.}.}.}.}.}.}.}.}.}.}.}.}.}.}.}.}.}.}.}.}.}.}.}.}.}.}.}.}.}.}.}.",
"}.}.}.}.}.}.}.}.}.}.}.}.}.}.}.}.}.}.}.}.}.}.}.}.}.}.}.}.}.}.}.}.}.}.}.}.}.}.}.}.}.}.}.}.}.}.}.}.}.}.}.}.}.}.}.}.}.}.}.}.",
"}.}.}.}.}.}.}.}.}.}.}.}.}.}.}.}.}.}.}.}.}.}.}.}.}.}.}.}.}.}.}.}.}.}.}.}.}.}.}.}.}.}.}.}.}.}.}.}.}.}.}.}.}.}.}.}.}.}.}.}.",
"}.}.}.}.}.}.}.}.}.}.}.}.}.}.}.}.}.}.}.}.}.}.}.}.}.}.}.}.}.}.}.}.}.}.}.}.}.}.}.}.}.}.}.}.}.}.}.}.}.}.}.}.}.}.}.}.}.}.}.}.",
"}.}.}.}.}.}.}.}.}.}.}.}.}.}.}.}.}.}.}.}.}.}.}.}.}.}.}.}.}.}.}.}.}.}.}.}.}.}.}.}.}.}.}.}.}.}.}.}.}.}.}.}.}.}.}.}.}.}.}.}.",
"}.}.}.}.}.}.}.}.}.}.}.}.}.}.}.}.}.}.}.}.}.}.}.}.}.}.}.}.}.}.}.}.}.}.}.}.}.}.}.}.}.}.}.}.}.}.}.}.}.}.}.}.}.}.}.}.}.}.}.}.",
"}.}.}.}.}.}.}.}.}.}.}.}.}.}.}.}.}.}.}.}.}.}.}.}.}.}.}.}.}.}.}.}.}.}.}.}.}.}.}.}.}.}.}.}.}.}.}.}.}.}.}.}.}.}.}.}.}.}.}.}.",
"}.}.}.}.}.}.}.}.}.}.}.}.}.}.}.}.}.}.}.}.}.}.}.}.}.}.}.}.}.}.}.}.}.}.}.}.}.}.}.}.}.}.}.}.}.}.}.}.}.}.}.}.}.}.}.}.}.}.}.}.",
"}.}.}.}.}.}.}.}.}.}.}.}.}.}.}.}.}.}.}.}.}.}.}.}.}.}.}.}.}.}.}.}.}.}.}.}.}.}.}.}.}.}.}.}.}.}.}.}.}.}.}.}.}.}.}.}.}.}.}.}.",
"}.}.}.}.}.}.}.}.}.}.}.}.}.}.}.}.}.}.}.}.}.}.}.}.}.}.}.}.}.}.}.}.}.}.}.}.}.}.}.}.}.}.}.}.}.}.}.}.}.}.}.}.}.}.}.}.}.}.}.}.",
"}.}.}.}.}.}.}.}.}.}.}.}.}.}.}.}.}.}.}.}.}.}.}.}.}.}.}.}.}.}.}.}.}.}.}.}.}.}.}.}.}.}.}.}.}.}.}.}.}.}.}.}.}.}.}.}.}.}.}.}.",
"}.}.}.}.}.}.}.}.}.}.}.}.}.}.}.}.}.}.}.}.}.}.}.}.}.}.}.}.}.}.}.}.}.}.}.}.}.}.}.}.}.}.}.}.}.}.}.}.}.}.}.}.}.}.}.}.}.}.}.}.",
"}.}.}.}.}.}.}.}.}.}.}.}.}.}.}.}.}.}.}.}.}.}.}.}.}.}.}.}.}.}.}.}.}.}.}.}.}.}.}.}.6 }.}.}.}.}.}.}.}.}.}.}.}.}.}.}.}.}.}.}.",
"}.}.}.}.}.}.}.}.}.}.}.}.}.}.}.}.}.}.}.}.}.}.}.}.}.}.}.}.}.}.}.}.}.}.}.}.}.}.}.0 ) 3 }.}.}.}.}.}.}.}.}.}.}.}.}.}.}.}.}.}.",
"}.}.}.}.}.}.}.}.}.}.}.}.}.}.}.}.}.        }.}.}.}.}.}.}.}.}.}.}.M.}.}.}.}.; }.}.}.}.}.}.}.}.}.}.        }.}.}.}.}.}.}.}.",
"}.}.}.}.}.}.}.}.}.}.}.}.}.}.}.}.    8 8   }.}.}.}.h.d.}.}.}.}.}.Q.}.j.}.}.}.}.}.}.}.}.}.}.}.      v v     }.}.}.}.}.}.}.",
"}.}.}.}.}.}.}.}.}.}.}.}.}.}.}.}.  8       }.}.}.}.[ I }.}.}.}.}.a.}.}.}.}.}.}.}.}.}.}.}.}.}.    v v v v   }.}.}.}.}.}.}.",
"}.}.}.}.}.}.}.}.}.}.}.}.}.}.}.}.}.    }.}.}.}.}.}.}.i }.}.}.}.}.}.:.}.}.}.}.e.}.}.}.}.}.}.}.}.    v v     }.}.}.}.}.}.}.",
"}.}.}.}.}.}.}.}.}.}.}.}.}.}.}.}.}.}.}.}.}.}.> u                     z 1     c y         }.}.}.}.}.      }.}.}.}.}.}.}.}.",
"}.}.}.}.}.}.}.}.}.}.}.}.}.}.}.}.}.}.      p p  .4 u.u.u.x.u.u.z.u.u.A.t i.g.*...u.u.        }.}.}.}.}.}.}.}.}.}.}.}.}.}.",
"}.}.}.}.}.}.}.}.}.}.}.}.}.            u.u.u.u.u.V.7 i.k.O.i.i.i.i.i.H.i.i.i.i.S.i.i.u.u.n         }.}.}.}.}.}.}.}.}.}.}.",
"}.}.}.}.}.}.}.}.}.}.      p u.u.u.u.u.i.0.0.q y.G.p.0.f.F.t.y.] y.y.y.y.y.y.0.=., 0.0.0.i.u.u.u.    }.}.}.}.}.}.}.}.}.}.",
"}.}.}.}.}.}.}.}.        u.u.u.u.0.0.0.y.7.7.7.7.Y 2.2.&.} 2.3.2 o.2.2.r.e 2.7.7.7.8.y.y.y.0.i.u.n     }.}.}.}.}.}.}.}.}.",
"}.}.}.}.}.}.}.}.    u.u.u.u.0.0.y.7.7.7.7.2.2.2.H Q 1.<.;.S 1.W b.w.w.w.` w.w.w.2.2.2.7.y.y.0.i.u.      }.}.}.}.}.}.}.}.",
"}.}.}.}.}.}.        u.u.0.0.m y.6.! >.2.2.x 9.A C a M w M M M c.L.@.C C ~ M M M M J K 2.2.y.y.y.y.u.    }.}.}.}.}.}.}.}.",
"}.}.}.}.}.    8 8     v 0.y.7.7.5.G D 4.,.s.v.M M ' j h g < / D.Y.U M M M B C C C C C L S S ^ p.y.m     }.}.}.}.}.}.}.}.",
"}.}.}.}.}.  8 8 8 8     m y.7.8.q.F M C C ^.B.j d %.+._ ( { n.T.E.Z.E s s 5 l.s f d k C N L S 2.7.: :   }.}.}.}.}.}.}.}.",
"}.}.}.}.}.      8           b 8.w.-.Z C V d #.d R !.U.J.J.I.(._./.R.N.T 9 | m.l l s s s C C P w.      }.}.}.}.}.}.}.}.}.",
"}.}.}.}.}.}.}.      v v v v               d s X.C.P.K.`.].[.[.[.{.'.W.~.).$.r l l l s s             }.}.}.}.}.}.}.}.}.}.",
"}.}.}.}.}.}.}.}.  v v v v v     n n n n           + # @ & = - * % $ O o .                         }.}.}.}.}.}.}.}.}.}.}.",
"}.}.}.}.}.}.}.}.      v       n n n n n                     X                             }.}.}.}.}.}.}.}.}.}.}.}.}.}.}.",
"}.}.}.}.}.}.}.}.}.}.      }.  n n n n n     }.}.}.}.}.}.}.}.}.}.}.}.}.}.}.}.}.}.}.}.}.}.}.}.}.}.      }.}.}.}.}.}.}.}.}.",
"}.}.}.}.}.}.}.}.}.}.}.}.}.}.}.  n n n n   }.}.}.}.    }.}.}.}.}.}.}.}.}.}.}.}.}.}.}.}.}.}.}.}.    v     }.}.}.}.}.}.}.}.",
"}.}.}.}.}.}.}.}.}.}.}.}.}.}.}.            }.}.}.        }.}.}.}.}.}.}.}.}.}.}.}.}.}.}.}.}.}.}.    v v   }.}.}.}.}.}.}.}.",
"}.}.}.}.}.}.}.}.}.}.}.}.}.}.}.}.}.}.}.}.}.}.}.}.    n n   }.}.}.}.}.}.}.}.}.}.}.}.}.}.}.}.}.}.}.        }.}.}.}.}.}.}.}.",
"}.}.}.}.}.}.}.}.}.}.}.}.}.}.}.}.}.}.}.}.}.}.}.}.}.    n   }.}.}.}.}.}.}.}.}.}.}.}.}.}.}.}.}.}.}.}.}.}.}.}.}.}.}.}.}.}.}.",
"}.}.}.}.}.}.}.}.}.}.}.}.}.}.}.}.}.}.}.}.}.}.}.}.}.}.      }.}.}.}.}.}.}.}.}.}.}.}.}.}.}.}.}.}.}.}.}.}.}.}.}.}.}.}.}.}.}.",
"}.}.}.}.}.}.}.}.}.}.}.}.}.}.}.}.}.}.}.}.}.}.}.}.}.}.}.}.}.}.}.}.}.}.}.}.}.}.}.}.}.}.}.}.}.}.}.}.}.}.}.}.}.}.}.}.}.}.}.}.",
"}.}.}.}.}.}.}.}.}.}.}.}.}.}.}.}.}.}.}.}.}.}.}.}.}.}.}.}.}.}.}.}.}.}.}.}.}.}.}.}.}.}.}.}.}.}.}.}.}.}.}.}.}.}.}.}.}.}.}.}.",
"}.}.}.}.}.}.}.}.}.}.}.}.}.}.}.}.}.}.}.}.}.}.}.}.}.}.}.}.}.}.}.}.}.}.}.}.}.}.}.}.}.}.}.}.}.}.}.}.}.}.}.}.}.}.}.}.}.}.}.}.",
"}.}.}.}.}.}.}.}.}.}.}.}.}.}.}.}.}.}.}.}.}.}.}.}.}.}.}.}.}.}.}.}.}.}.}.}.}.}.}.}.}.}.}.}.}.}.}.}.}.}.}.}.}.}.}.}.}.}.}.}.",
"}.}.}.}.}.}.}.}.}.}.}.}.}.}.}.}.}.}.}.}.}.}.}.}.}.}.}.}.}.}.}.}.}.}.}.}.}.}.}.}.}.}.}.}.}.}.}.}.}.}.}.}.}.}.}.}.}.}.}.}.",
"}.}.}.}.}.}.}.}.}.}.}.}.}.}.}.}.}.}.}.}.}.}.}.}.}.}.}.}.}.}.}.}.}.}.}.}.}.}.}.}.}.}.}.}.}.}.}.}.}.}.}.}.}.}.}.}.}.}.}.}.",
"}.}.}.}.}.}.}.}.}.}.}.}.}.}.}.}.}.}.}.}.}.}.}.}.}.}.}.}.}.}.}.}.}.}.}.}.}.}.}.}.}.}.}.}.}.}.}.}.}.}.}.}.}.}.}.}.}.}.}.}.",
"}.}.}.}.}.}.}.}.}.}.}.}.}.}.}.}.}.}.}.}.}.}.}.}.}.}.}.}.}.}.}.}.}.}.}.}.}.}.}.}.}.}.}.}.}.}.}.}.}.}.}.}.}.}.}.}.}.}.}.}.",
"}.}.}.}.}.}.}.}.}.}.}.}.}.}.}.}.}.}.}.}.}.}.}.}.}.}.}.}.}.}.}.}.}.}.}.}.}.}.}.}.}.}.}.}.}.}.}.}.}.}.}.}.}.}.}.}.}.}.}.}.",
"}.}.}.}.}.}.}.}.}.}.}.}.}.}.}.}.}.}.}.}.}.}.}.}.}.}.}.}.}.}.}.}.}.}.}.}.}.}.}.}.}.}.}.}.}.}.}.}.}.}.}.}.}.}.}.}.}.}.}.}.",
"}.}.}.}.}.}.}.}.}.}.}.}.}.}.}.}.}.}.}.}.}.}.}.}.}.}.}.}.}.}.}.}.}.}.}.}.}.}.}.}.}.}.}.}.}.}.}.}.}.}.}.}.}.}.}.}.}.}.}.}.",
"}.}.}.}.}.}.}.}.}.}.}.}.}.}.}.}.}.}.}.}.}.}.}.}.}.}.}.}.}.}.}.}.}.}.}.}.}.}.}.}.}.}.}.}.}.}.}.}.}.}.}.}.}.}.}.}.}.}.}.}.",
"}.}.}.}.}.}.}.}.}.}.}.}.}.}.}.}.}.}.}.}.}.}.}.}.}.}.}.}.}.}.}.}.}.}.}.}.}.}.}.}.}.}.}.}.}.}.}.}.}.}.}.}.}.}.}.}.}.}.}.}.",
"}.}.}.}.}.}.}.}.}.}.}.}.}.}.}.}.}.}.}.}.}.}.}.}.}.}.}.}.}.}.}.}.}.}.}.}.}.}.}.}.}.}.}.}.}.}.}.}.}.}.}.}.}.}.}.}.}.}.}.}.",
"}.}.}.}.}.}.}.}.}.}.}.}.}.}.}.}.}.}.}.}.}.}.}.}.}.}.}.}.}.}.}.}.}.}.}.}.}.}.}.}.}.}.}.}.}.}.}.}.}.}.}.}.}.}.}.}.}.}.}.}.",
"}.}.}.}.}.}.}.}.}.}.}.}.}.}.}.}.}.}.}.}.}.}.}.}.}.}.}.}.}.}.}.}.}.}.}.}.}.}.}.}.}.}.}.}.}.}.}.}.}.}.}.}.}.}.}.}.}.}.}.}."
};
