/* XPM */
static char *result[] = {
/* columns rows colors chars-per-pixel */
"60 60 114 2 ",
"   c black",
".  c #010000",
"X  c #010100",
"o  c #020201",
"O  c #050300",
"+  c #040301",
"@  c #060200",
"#  c #050402",
"$  c #070702",
"%  c #080200",
"&  c #090200",
"*  c #0B0300",
"=  c #0C0C08",
"-  c #2E0006",
";  c #220A00",
":  c #210803",
">  c #3A0809",
",  c #211C00",
"<  c #3F1800",
"1  c #3A0710",
"2  c #3C081F",
"3  c #2E221E",
"4  c #0E192F",
"5  c #171433",
"6  c #250F3E",
"7  c #4F0000",
"8  c #422215",
"9  c #463A14",
"0  c #6A270C",
"q  c #612013",
"w  c #622113",
"e  c #632213",
"r  c #642213",
"t  c #672414",
"y  c #692514",
"u  c #6A2614",
"i  c #732312",
"p  c #7D3017",
"a  c #4D3931",
"s  c #703E22",
"d  c #5F473D",
"f  c #7C6337",
"g  c #912600",
"h  c #962D0D",
"j  c #8D3518",
"k  c #8E3518",
"l  c #8B3819",
"z  c #8C3919",
"x  c #8E3A1A",
"c  c #8F3A1A",
"v  c #8F3B1A",
"b  c #983317",
"n  c #913718",
"m  c #923718",
"M  c #9D371A",
"N  c #93381C",
"B  c #953A1C",
"V  c #953F1E",
"C  c #9E381A",
"Z  c #9F381A",
"A  c #9F391A",
"S  c #9E3B1C",
"D  c #983D1D",
"F  c #BD3E00",
"G  c #A13A1B",
"H  c #A13F1D",
"J  c #A73E20",
"K  c #D92C00",
"L  c #CD3700",
"P  c #D93301",
"I  c #D23800",
"U  c #EB3300",
"Y  c #E13A00",
"T  c #9B401B",
"R  c #99431D",
"E  c #A5421D",
"W  c #A1451C",
"Q  c #A4471F",
"!  c #AC441D",
"~  c #AF471D",
"^  c #B2471B",
"/  c #9D4620",
"(  c #8D5728",
")  c #995124",
"_  c #9C5525",
"`  c #935C29",
"'  c #8A5A31",
"]  c #A94A20",
"[  c #A94B20",
"{  c #B74C22",
"}  c #A85D2C",
"|  c #896D3F",
" . c #946238",
".. c #AA6530",
"X. c #D04700",
"o. c #E04904",
"O. c #D14921",
"+. c #DB5925",
"@. c #CE4330",
"#. c #C14F35",
"$. c #FF7D4F",
"%. c #DD8225",
"&. c #FF8B26",
"*. c #E6883F",
"=. c #F0863E",
"-. c #F8803D",
";. c #FFDB3D",
":. c #F38240",
">. c #E78777",
",. c #FFD454",
"<. c #EDEE77",
"1. c #F2EF92",
"2. c #F7F3B3",
"3. c None",
/* pixels */
"3.3.3.3.3.3.3.3.3.3.3.3.3.3.3.3.3.3.3.3.3.3.3.3.3.3.3.3.3.3.3.3.3.3.3.3.3.3.3.3.3.3.3.3.3.3.3.3.3.3.3.3.3.3.3.3.3.3.3.3.",
"3.3.3.3.3.3.3.3.3.3.3.3.3.3.3.3.3.3.3.3.3.3.3.3.3.3.3.3.3.3.3.3.3.3.3.3.3.3.3.3.3.3.3.3.3.3.3.3.3.3.3.3.3.3.3.3.3.3.3.3.",
"3.3.3.3.3.3.3.3.3.3.3.3.3.3.3.3.3.3.3.3.3.3.3.3.3.3.3.3.3.3.3.3.3.3.3.3.3.3.3.3.3.3.3.3.3.3.3.3.3.3.3.3.3.3.3.3.3.3.3.3.",
"3.3.3.3.3.3.3.3.3.3.3.3.3.3.3.3.3.3.3.3.3.3.3.3.3.3.3.3.3.3.3.3.3.3.3.3.3.3.3.3.3.3.3.3.3.3.3.3.3.3.3.3.3.3.3.3.3.3.3.3.",
"3.3.3.3.3.3.3.3.3.3.3.3.3.3.3.3.3.3.3.3.3.3.3.3.3.3.3.3.3.3.3.3.3.3.3.3.3.3.3.3.3.3.3.3.3.3.3.3.3.3.3.3.3.3.3.3.3.3.3.3.",
"3.3.3.3.3.3.3.3.3.3.3.3.3.3.3.3.3.3.3.3.3.3.3.3.3.3.3.3.3.3.3.3.3.3.3.3.3.3.3.3.3.3.3.3.3.3.3.3.3.3.3.3.3.3.3.3.3.3.3.3.",
"3.3.3.3.3.3.3.3.3.3.3.3.3.3.3.3.3.3.3.3.3.3.3.3.3.3.3.3.3.3.3.3.3.3.3.3.3.3.3.3.3.3.3.3.3.3.3.3.3.3.3.3.3.3.3.3.3.3.3.3.",
"3.3.3.3.3.3.3.3.3.3.3.3.3.3.3.3.3.3.3.3.3.3.3.3.3.3.3.3.3.3.3.3.3.3.3.3.3.3.3.3.3.3.3.3.3.3.3.3.3.3.3.3.3.3.3.3.3.3.3.3.",
"3.3.3.3.3.3.3.3.3.3.3.3.3.3.3.3.3.3.3.3.3.3.3.3.3.3.3.3.3.3.3.3.3.3.3.3.3.3.3.3.3.3.3.3.3.3.3.3.3.3.3.3.3.3.3.3.3.3.3.3.",
"3.3.3.3.3.3.3.3.3.3.3.3.3.3.3.3.3.3.3.3.3.3.3.3.3.3.3.3.3.3.3.3.3.3.3.3.3.3.3.3.3.3.3.3.3.3.3.3.3.3.3.3.3.3.3.3.3.3.3.3.",
"3.3.3.3.3.3.3.3.3.3.3.3.3.3.3.3.3.3.3.3.3.3.3.3.3.3.3.3.3.3.3.3.3.3.3.3.3.3.3.3.3.3.3.3.3.3.3.3.3.3.3.3.3.3.3.3.3.3.3.3.",
"3.3.3.3.3.3.3.3.3.3.3.3.3.3.3.3.3.3.3.3.3.3.3.3.3.3.3.3.3.3.3.3.3.3.3.3.3.3.3.3.3.3.3.3.3.3.3.3.3.3.3.3.3.3.3.3.3.3.3.3.",
"3.3.3.3.3.3.3.3.3.3.3.3.3.3.3.3.3.3.3.3.3.3.3.3.3.3.3.3.3.3.3.3.3.3.3.3.3.3.3.3.3.3.3.3.3.3.3.3.3.3.3.3.3.3.3.3.3.3.3.3.",
"3.3.3.3.3.3.3.3.3.3.3.3.3.3.3.3.3.3.3.3.3.3.3.3.3.3.3.3.3.3.3.3.3.3.3.3.3.3.3.3.3.3.3.3.3.3.3.3.3.3.3.3.3.3.3.3.3.3.3.3.",
"3.3.3.3.3.3.3.3.3.3.3.3.3.3.3.3.3.3.3.3.3.3.3.3.3.3.3.3.3.3.3.3.3.3.3.3.3.3.3.3.3.3.3.3.3.3.3.3.3.3.3.3.3.3.3.3.3.3.3.3.",
"3.3.3.3.3.3.3.3.3.3.3.3.3.3.3.3.3.3.3.3.3.3.3.3.3.3.3.3.3.3.3.3.3.3.3.3.3.3.3.3.3.3.3.3.3.3.3.3.3.3.3.3.3.3.3.3.3.3.3.3.",
"3.3.3.3.3.3.3.3.3.3.3.3.3.3.3.3.3.3.3.3.3.3.3.3.3.3.3.3.3.3.3.3.3.3.3.3.3.3.3.3.3.3.3.3.3.3.3.3.3.3.3.3.3.3.3.3.3.3.3.3.",
"3.3.3.3.3.3.3.3.3.3.3.3.3.3.3.3.3.3.3.3.3.3.3.3.3.3.3.3.3.3.3.3.3.3.3.3.3.3.3.3.3.3.3.3.3.3.3.3.3.3.3.3.3.3.3.3.3.3.3.3.",
"3.3.3.3.3.3.3.3.3.3.3.3.3.3.3.3.3.3.3.3.3.3.3.3.3.3.3.3.3.3.3.3.3.3.3.3.3.3.3.3.3.3.3.3.3.3.3.3.3.3.3.3.3.3.3.3.3.3.3.3.",
"3.3.3.3.3.3.3.3.3.3.3.3.3.3.3.3.3.3.3.3.3.3.3.3.3.3.3.3.3.3.3.3.3.3.3.3.3.3.3.3.3.3.3.3.3.3.3.3.3.3.3.3.3.3.3.3.3.3.3.3.",
"3.3.3.3.3.3.3.3.3.3.3.3.3.3.3.3.3.3.3.3.3.3.3.3.3.3.3.3.3.3.3.3.3.3.3.3.3.3.3.3.3.3.3.3.3.3.3.3.3.3.3.3.3.3.3.3.3.3.3.3.",
"3.3.3.3.3.3.3.3.3.3.3.3.3.3.3.3.3.3.3.3.3.3.3.3.3.3.3.3.3.3.3.3.3.3.3.3.3.3.3.3.3.3.3.3.3.3.3.3.3.3.3.3.3.3.3.3.3.3.3.3.",
"3.3.3.3.3.3.3.3.3.3.3.3.3.3.3.3.3.3.3.3.3.3.3.3.3.3.3.3.3.3.3.3.3.3.3.3.3.3.3.3.3.3.3.3.3.3.3.3.3.3.3.3.3.3.3.3.3.3.3.3.",
"3.3.3.3.3.3.3.3.3.3.3.3.3.3.3.3.3.3.3.3.3.3.3.3.3.3.3.3.3.3.3.3.3.3.3.3.3.3.3.3.3.3.3.3.3.3.3.3.3.3.3.3.3.3.3.3.3.3.3.3.",
"3.3.3.3.3.3.3.3.3.3.3.3.3.3.3.3.3.3.3.3.3.3.3.3.3.3.3.3.3.3.3.3.3.3.3.3.3.3.3.3.3.3.3.3.3.3.3.3.3.3.3.3.3.3.3.3.3.3.3.3.",
"3.3.3.3.3.3.3.3.3.3.3.3.3.3.3.3.3.3.3.3.3.3.3.3.3.3.3.3.3.3.3.3.3.3.3.3.3.3.3.3.3.3.3.3.3.3.3.3.3.3.3.3.3.3.3.3.3.3.3.3.",
"3.3.3.3.3.3.3.3.3.3.3.3.3.3.3.3.3.3.3.3.3.3.3.3.3.3.3.3.3.3.3.3.3.3.3.3.3.3.3.3.3.3.3.3.3.3.3.3.3.3.3.3.3.3.3.3.3.3.3.3.",
"3.3.3.3.3.3.3.3.3.3.3.3.3.3.3.3.3.3.3.3.3.3.3.3.3.3.3.3.3.3.3.3.3.3.3.3.3.3.3.3.3.3.3.3.3.3.3.3.3.3.3.3.3.3.3.3.3.3.3.3.",
"3.3.3.3.3.3.3.3.3.3.3.3.3.3.3.3.3.3.3.3.3.3.3.3.3.3.3.3.3.3.3.3.3.3.3.3.3.3.3.3.3.3.3.3.3.3.3.3.3.3.3.3.3.3.3.3.3.3.3.3.",
"3.3.3.3.3.3.3.3.3.3.3.3.3.3.3.3.3.3.3.3.3.3.3.3.3.3.3.3.3.3.3.3.3.3.3.3.3.3.3.3.3.3.3.3.3.3.3.3.3.3.3.3.3.3.3.3.3.3.3.3.",
"3.3.3.3.3.3.3.3.3.3.3.3.3.3.3.3.3.3.3.3.3.3.3.3.3.3.3.3.3.3.3.3.3.3.3.3.3.3.3.3.3.3.3.3.3.3.3.3.3.3.3.3.3.3.3.3.3.3.3.3.",
"3.3.3.3.3.3.3.3.3.3.3.3.3.3.3.3.3.3.3.3.3.3.3.3.3.3.3.3.3.3.3.3.3.3.3.3.3.3.3.3.3.3.3.3.3.3.3.3.3.3.3.3.3.3.3.3.3.3.3.3.",
"3.3.3.3.3.3.3.3.3.3.3.3.3.3.3.3.3.3.3.3.3.3.3.3.3.3.3.3.3.3.3.3.3.3.3.3.3.3.3.3.3.3.3.3.3.3.3.3.3.3.3.3.3.3.3.3.3.3.3.3.",
"3.3.3.3.3.3.3.3.3.3.3.3.3.3.3.3.3.3.3.3.3.3.3.3.3.3.3.3.3.3.3.3.3.3.3.3.3.3.3.3.3.3.3.3.3.3.3.3.3.3.3.3.3.3.3.3.3.3.3.3.",
"3.3.3.3.3.3.3.3.3.3.3.3.3.3.3.3.3.3.3.3.3.3.3.3.3.3.3.3.3.3.3.3.3.3.3.3.3.3.3.3.3.3.3.3.3.3.3.3.3.3.3.3.3.3.3.3.3.3.3.3.",
"3.3.3.3.3.3.3.3.3.3.3.3.3.3.3.3.3.3.3.3.3.3.3.3.3.3.3.3.3.3.3.3.3.3.3.3.3.3.3.3.3.3.3.3.3.3.3.3.3.3.3.3.3.3.3.3.3.3.3.3.",
"3.3.3.3.3.3.3.3.3.3.3.3.3.3.3.3.3.        3.3.3.3.3.3.3.3.3.3.3.3.3.3.3.3.3.3.4 3.3.3.3.3.3.3.3.        3.3.3.3.3.3.3.3.",
"3.3.3.3.3.3.3.3.3.3.3.3.3.3.3.3.    3 3   3.3.3.3.3.3.3.3.3.3.3.3.3.3.3.3.3.3.3.3.3.3.3.3.3.      a a     3.3.3.3.3.3.3.",
"3.3.3.3.3.3.3.3.3.3.3.3.3.3.3.3.  3       3.3.3.3.3.3.3.3.3.> 3.3.3.3.3.3.3.O.3.3.3.3.3.3.3.    a a a a   3.3.3.3.3.3.3.",
"3.3.3.3.3.3.3.3.3.3.3.3.3.3.3.3.3.    3.3.3.3.3.3.3.3.3.3.3.3.3.3.3.3.3.3.3.3.3.3.3.3.3.3.3.3.    a a     3.3.3.3.3.3.3.",
"3.3.3.3.3.3.3.3.3.3.3.3.3.3.3.3.3.3.3.3.3.3.                                            3.3.3.3.3.      3.3.3.3.3.3.3.3.",
"3.3.3.3.3.3.3.3.3.3.3.3.3.3.3.3.3.3.      9 9 | | | | | | | | | | |  . . . .| | | |         3.3.3.3.3.3.3.3.3.3.3.3.3.3.",
"3.3.3.3.3.3.3.3.3.3.3.3.3.            | | | | |  . . . . .Y <  . . .U  . . . . . . .| | d         3.3.3.3.3.3.3.3.3.3.3.",
"3.3.3.3.3.3.3.3.3.3.      9 | | | | |  .' ' ' } } ..' L ' { , } } } 2 } } } ' f ' ' ' '  .| | |     3.3.3.3.3.3.3.3.3.3.",
"3.3.3.3.3.3.3.3.        | | | | ' ' ' } _ _ _ _ ~ ~ ~ ~ ~ ~ ~ ~ #.~ ~ 1 F ~ _ _ _ ` } } } '  .| d     3.3.3.3.3.3.3.3.3.",
"3.3.3.3.3.3.3.3.    | | | | ' ' } _ _ _ _ ~ ~ ~ C G 2.Q @.M ! ~ $.[ [ [ 7 [ [ [ ~ ~ ~ _ } } '  .|       3.3.3.3.3.3.3.3.",
"3.3.3.3.3.3.        | | ' ' f } ) H E ~ ~ ~ T m c g h k j j j j b I c c j j j j j Z A ~ ~ } } } } |     3.3.3.3.3.3.3.3.",
"3.3.3.3.3.    3 3     a ' } _ _ ( V N / W n j j ^ ,.y t r P j j - X.j 1.j z 6 c c c c S M M J ..} f     3.3.3.3.3.3.3.3.",
"3.3.3.3.3.  3 3 3 3     f } _ ` ] B j c c x p y >.:.q q 5 <.q 8 q q q q q %.e q ;.w u c l S M ~ _ : :   3.3.3.3.3.3.3.3.",
"3.3.3.3.3.      3           s ` [ R v c x w q w i i i i i &.i K i i i i i +.i i i q q q c c D [       3.3.3.3.3.3.3.3.3.",
"3.3.3.3.3.3.3.      a a a a               w q i i o.i i i i i 0 =.*.i -.i i i i i i q q             3.3.3.3.3.3.3.3.3.3.",
"3.3.3.3.3.3.3.3.  a a a a a     d d d d         ; O = * & % @ $ # + o X . .                       3.3.3.3.3.3.3.3.3.3.3.",
"3.3.3.3.3.3.3.3.      a       d d d d d                                                   3.3.3.3.3.3.3.3.3.3.3.3.3.3.3.",
"3.3.3.3.3.3.3.3.3.3.      3.  d d d d d     3.3.3.3.3.3.3.3.3.3.3.3.3.3.3.3.3.3.3.3.3.3.3.3.3.3.      3.3.3.3.3.3.3.3.3.",
"3.3.3.3.3.3.3.3.3.3.3.3.3.3.3.  d d d d   3.3.3.3.    3.3.3.3.3.3.3.3.3.3.3.3.3.3.3.3.3.3.3.3.    a     3.3.3.3.3.3.3.3.",
"3.3.3.3.3.3.3.3.3.3.3.3.3.3.3.            3.3.3.        3.3.3.3.3.3.3.3.3.3.3.3.3.3.3.3.3.3.3.    a a   3.3.3.3.3.3.3.3.",
"3.3.3.3.3.3.3.3.3.3.3.3.3.3.3.3.3.3.3.3.3.3.3.3.    d d   3.3.3.3.3.3.3.3.3.3.3.3.3.3.3.3.3.3.3.        3.3.3.3.3.3.3.3.",
"3.3.3.3.3.3.3.3.3.3.3.3.3.3.3.3.3.3.3.3.3.3.3.3.3.    d   3.3.3.3.3.3.3.3.3.3.3.3.3.3.3.3.3.3.3.3.3.3.3.3.3.3.3.3.3.3.3.",
"3.3.3.3.3.3.3.3.3.3.3.3.3.3.3.3.3.3.3.3.3.3.3.3.3.3.      3.3.3.3.3.3.3.3.3.3.3.3.3.3.3.3.3.3.3.3.3.3.3.3.3.3.3.3.3.3.3.",
"3.3.3.3.3.3.3.3.3.3.3.3.3.3.3.3.3.3.3.3.3.3.3.3.3.3.3.3.3.3.3.3.3.3.3.3.3.3.3.3.3.3.3.3.3.3.3.3.3.3.3.3.3.3.3.3.3.3.3.3."
};
