/* XPM */
static char *result[] = {
/* columns rows colors chars-per-pixel */
"60 60 10 1 ",
"  c #33531C",
". c #3E5F21",
"X c #5B6C4F",
"o c #6B7861",
"O c #8A321B",
"+ c #558B2F",
"@ c #689F38",
"# c #CECC24",
"$ c #95BC74",
"% c #D7D7D7",
/* pixels */
"@@@@@@@@@@@@@@@@@@@@@@@@@@@@++@@@@@@@@@@@@@@@@@@@@@@@@@@@@@@",
"@@@+@+@+@@@@@@@@@@@@+@@@@@@@@@@@@@@@@@@@@@@@@@@@@@@@@+@@@@@@",
"@@ +@+@ @@@@@@@@+@@ @@@@@%@@@@@@@@@@@@@@@@$@@@@@@@@@@ @@@@@@",
"@@@ @ @@@@@+@@@@@+@@@@@@%#%@@@+$@@+@@@++@@$$++@@@@@@+@@@@@@@",
"@@@@+@@@@@+@@@@@@@@@+@@@@%@@@@+@@@++@++ @@@++@@@$@@@ @@@@@@@",
"@@@@ @@@@@@@@@@@+@@ @@@@@@@@@++@@@@+@+ @@@@@@@@@@$@@@@@$@@@@",
"@@@@@@@@@@++@@@@@ @@@@@@@@@@ +@+@@@ @+@@@@@@@@@+@$@@$@$@@@@@",
"@@@@@@Xoo@@++@@@@+@@@@@@@@@@@ +@@@@@@@@+@@@$@@@@@@@$@@@@@@@@",
"+@@@@@XXoo@ +@@$@@@@@@@@@@@@@@@@@@@@@@@ +@++@@@@@@@$@@@@@@@@",
"@@+@@@@XXX@ +@+$@@@@@@@@@@@@@@@@@@@@@@@@+@+ @@@@@@@@Xoo@@+@@",
"@@ @@@@@@@@@ @+ @@@@O@@@@@@@+@@@@@@@@@@@ @ @@@@@@@@@XXoo@ @@",
"@+@@@$$@@@@@@+ @@@@O#O@@@@@+@@@+@@@@@@@@@@@@@@@@@@@@@XXX@@+@",
"@ @@$@@@@@@@@ @@@@@@O@@@@@@@@@+@@@@@@@@@@@@@@@@@@@@@@@@@@@ @",
"@@@@@@@@@@@@@@@@@@@@@@@@@@@@+@@@@@@@@@@@@@@@@@@@+@@@@@@@@@@@",
"@$@@@@$@@@@@@@@@@@@@@@@+@@@@@@@+@@@@@@++@@@@@@@@@@++@@@@@@@@",
"@@@@@@@@@@@@@@@@@@@@@@@@@@@@@@+@@@@++@@+@@@@@@@@@@@+@@@@@@@@",
"@@@@%@@@@@@@@@@@@@@@@@@@@@@+@@@@@@@@++@.+@@+@@@@@@@ +@@+@@@@",
"@@@%#%@@@$@@@@$@@@@@@@@@@@+@@@ooo@@@@ +@ @++@@@@@@@@ @++@@@@",
"@@@@%@@@@@$+@@+@@@+@@@@@@@@@@XXXoo@@@ +@@+ @@+@@@@@@@+ @@@@@",
"@@@@@@@@@@@+@@ +@@+@@@@@@@@@@XXXXo@@@@@@+ @@@++@@@@@+ @@@@@@",
"@@@@@@@@@@@@ +@ +++@@@@$@@@@@@XXXo@@@@@@@@@@@+@@++@@@@@@@O@@",
"@@@+@+@@@@@@ +@@+ @@@@@@$@@$@@XXX@@@@@@@%@@@@@@@@++@@@@@O#O@",
"@@@@+@@@@@@@@ @+ @@@@@@@@@$@@@@@@@@@@@@%#%@@@@@@@@ +@@@@@O@@",
"@@@@@@@@+@@@@@@@@@@@@@@@@@@@+@@@@@@@@@@@%@@@@@@@@@ +@@@@@@@@",
"@@@@@++++@@@@@@@@@@@+@@@$@@@+++@@@+@@@@@@@@+@@@@@@@@@@@+@@@@",
"@@@@@@@++@@@@@@@@@@++@@@@$@@@++@@@@@+@@@@@+@@@@@@@@@@@@@+@@@",
"@++@@@@@@@@@@$@@@@++@@@@@$@@@@@@@@@@@+@@@@@@@@@$@@@@@@@@@@@@",
"@@@++@@@@@@@@@$+@@@@@@@@@@@@@@@@+@@@@@@@@@@@@@@@$@@$@@@@@@@@",
"++@@+@@@@@@@@@ +@@@@@@@@@@@@@@@@@@@@$@@@+@@@@@@@@@$@@@@@@@@@",
"@@ +@ @$+$@@@@ +@@@+@@@@@@@@@+@@@@@$+@@@@@@@@@@@$@@@$@@@@@@@",
"@@ +@@$ @@@@@@@@@@@@@@@@@@@@@ @@@@@+@@@@@@@@@@@@@$@@@@@@@@@@",
"@@@@@+ @@@$+@@@@@@@@@@@@@+@@@@@@@@@@@@@@@@@@@@@@@$@@@@@@@@@@",
"@@@@$@$@@@@$+@@@@@@@@@@@ +@+@@@@@@@@@@@@@@@@@@@@@@@@@@$@@@@@",
"++@@@$@@+@@ +@+@@@@@@$@@ +@+@@@oo@@@@@@$++@@@@@@@@@@@@+$@@@@",
"@++@@@@@@+@ +@+@@@@@@@$+@ @ @@XXoo@@@@@@$++@@@@@@@@@@@@ @@@@",
"@ +@@$@@@ +@ @ @@@@@@@ +@@+@@@XXXo@@@@@@@ +@+++@@@@@@@@ @@@+",
"@ +@+$@@@ +@@+@@@@@@@@ +@@ @@@@XXX@@@+++@@ @+ @@@@$@@@@@ @@@",
"+@ @+ @@@@@@@ @@@@@@@@@@@@@@@@@@@@@@@@ ++@@@ @@@@++$@@@@@@@@",
"+@@+ @@$@$@@@@@@@@@@@+@@@@@@@@@@@@@++@@  +@@@@@@@@@@@@@+@@@@",
"@@@ @@@@$@@@@@@@@@@@@@+@@@@@@@@@@@@@++@@@@@@@@@@@@@@@@@@ @@@",
"@@@@@@@@@@@@@@@@@@@@@@@@@@@@@@@@@@@@ +@@$@@@@@@@@@@@@@@@@@@@",
"@@@@@@@@+@@@@@@@@@@%@@@@@+@@@+@@@@@@ +@+$@@@@@@@@+@+@@@@@@@@",
"@@@@@@@ +@@+@@@+@@%#%@@@@++@+ @@@@@@@ @+ @@@@@@@@@+@@@@%@@@@",
"@@@@@@@ +@@+@@+@@@@%@@@@@@+@+@@@@@@@@@@ @@@@@@@@@@@@@@%#%@@@",
"@@ @@@@@ +@ @@@@@@@@@@@@@@@@@+@@@++@@@ @@@@+@@@@@@@@@@@%@@@@",
"@@@+@@@@@++@@@@@@@@@@@@@@@@@@ +@+$+@@@@@@@+@@@@@@@@@@@@@@@+@",
"@@@ @@@@@@ @@@oo@@@@@@@@@@@@@@+@$ @@@@@@@@@@@@@@+@@@+$@@@@+@",
"@@@@@@@@@@@@@XXXo@@@@@@@@@@@@@ @ @@@@@@@@@@@@@@@ +@+$+@@@@++",
"@@@@@@@@@@@@@XXX@@+@@@@@+@@@+@@@@@@@@@@@@+@+@@@@@+@+ @@@@+++",
"+@@@$@@@$$@@@@@@@@@+@@@@ +@++@@@@@@@@@@@@++@@@@@@ @ @@@@@@@@",
"@@+@@$@$@@@@@@@@@@@@@@@@@ @+ @@@@@@$+@@@@@@@ooo@@@@@@@@@@@@@",
"@@+@@@$$@$$@@@@@@@+@@@@@@ @+@@@@@@@@ +@+@@@XXXo@@@@@@@@@@@@@",
"@@@@@@@@$@@@++@@@@@+@@@@@@@@@+@@@@@@@ ++@@@XXXX@@@@@@@@@@@@@",
"++@@++@@@@@@+@@@@@@@@@@O@@++@+@@@@@@@ +@@@@@XX@@@@@@@++@@@@@",
"+@@@@+@@@@@@@@@@@@@+@@O#O@@++.+@@+@@@@@@@@@@@@@@@@@@@@$+@@@+",
"+@@@@@@@@@@@@@+@@@@@+@@O@@@@ @ @$+@@@@@@@@@@@@@@@@@@+@@$ @@+",
"@@@@@@@@@+@@@@ @@@@@@@@@@@@@ @@$ @@@@+@@@@@@@@@+@@@+@ @ @@  ",
"@++@@@@@@@+@@@@+@@@@@@@@@@@@@@+ @@@@++@@@@@+@@@@@@@@@@ @@ @@",
"+@@@@@@@@@@@@@@ @@@@@@@@@@@@@@@@@@@@+@@@@@+@@@@@@@@@@@@@+@@ ",
"@@@@@@@@@@@@@@@@@@@@@@@@@@@@@@@@@@@@@@@@@@@@@@@@@@+@@@@@@@@@"
};
