/* XPM */
static char *result[] = {
/* columns rows colors chars-per-pixel */
"60 60 11 1 ",
"  c #DB6D22",
". c #F07925",
"X c #F1842A",
"o c #F1852A",
"O c #FFA72B",
"+ c #FCD11E",
"@ c #FEDC1C",
"# c #FCE148",
"$ c #FFFF56",
"% c #FFFFC9",
"& c None",
/* pixels */
"&&&&&&&&&&&&&&&&&&&&&&&&&&&&&&&&&&&&&&&&&&&&&&&&&&&&&&&&&&&&",
"&&&&&&&&&&&&&&&&&&&&&&&&&&&&&&&&&&&&&&&&&&&&&&&&&&&&&&&&&&&&",
"&&&&&&&&&&&&&&&&&&&&&&&&&&&&&&&&&&&&&&&&&&&&&&&&&&&&&&&&&&&&",
"&&&&&&&&&&&&&&&&&&&&&&&&&&&&&&&&&&&&&&&&&&&&&&&&&&&&&&&&&&&&",
"&&&&&&&&&&&&&&&&&&&&&&&&&&&&&&&&&&&&&&&&&&&&&&&&&&&&&&&&&&&&",
"&&&&&&&&&&&&&&&&&&&&&&&&&&&&&&&&&&&&&&&&&&&&&&&&&&&&&&&&&&&&",
"&&&&&&&&&&&&&&&&&&&&&&&&&&&&&&&&&&&&&&&&&&&&&&&&&&&&&&&&&&&&",
"&&&&&&&&&&&&&&&&&&&&&&&&&&&&&&&&&&&&&&&&&&&&&&&&&&&&&&&&&&&&",
"&&&&&&&&&&&&&&&&&&&&&&&&&&&&&&&&&&&&&&&&&&&&&&&&&&&&&&&&&&&&",
"&&&&&&&&&&&&&&&&&&&&&&&&&&&&&&&&&&&&&&&&&&&&&&&&&&&&&&&&&&&&",
"&&&&&&&&&&&&&&&&&&&&&&&&&&&&&&&&&&&&&&&&&&&&&&&&&&&&&&&&&&&&",
"&&&&&&&&&&&&&&&&&&&&&&&&&&&&&&&&&&&&&&&&&&&&&&&&&&&&&&&&&&&&",
"&&&&&&&&&&&&&&&&&&&&&&&&&&&&&&&&&&&&&&&&&&&&&&&&&&&&&&&&&&&&",
"&&&&&&&&&&&&&&&&&&&&&&&&&&&&&&&&&&&&&&&&&&&&&&&&&&&&&&&&&&&&",
"&&&&&&&&&&&&&&&&&&&&&&&&&&%%%oooo&&&&&&&&&&&&&&&&&&&&&&&&&&&",
"&&&&&&&&&&&&&&&&&&&&&&&&%%       oo&&&&&&&&&&&&&&&&&&&&&&&&&",
"&&&&&&&&&&&&&&&&&&&&&&%%  +++++++  oo&&&&&&&&&&&&&&&&&&&&&&&",
"&&&&&&&&&&&&&&&&&&&&&%  +++@@@@@+++  o&&&&&&&&&&&&&&&&&&&&&&",
"&&&&&&&&&&&&&&&&&&&&o +++@@@@@@@@@+++ o&&&&&&&&&&&&&&&&&&&&&",
"&&&&&&&&&&&&&&&&&&&o +$$@@@@%X.$@@@$$$ o&&&&&&&&&&&&&&&&&&&&",
"&&&&&&&&&&&&&&&&&&o +OOX$@@%OX.$@@$XXX+ o&&&&&&&&&&&&&&&&&&&",
"&&&&&&&&&&&&&&&&&o +OO@XX@%.OX.$@@XX@XX+ o&&&&&&&&&&&&&&&&&&",
"&&&&&&&&&&&&&&&&&o +%@@@X@@@OX.$@@X@@@X+ o&&&&&&&&&&&&&&&&&&",
"&&&&&&&&&&&&&&&&o ++X@@.XX@@OX.$@XX.@@X++ o&&&&&&&&&&&&&&&&&",
"&&&&&&&&&&&&&&&&o +OX@@@.@@@OX.$@@.@@@X.+ o&&&&&&&&&&&&&&&&&",
"&&&&&&&&&&&&&&&o ++@X$@@@@@@OX.$@@@@@$X@++ o&&&&&&&&&&&&&&&&",
"&&&&&&&&&&&&&&&o +@@.X$@@@@@OX.$@@@@$XX@@+ o&&&&&&&&&&&&&&&&",
"&&&&&&&&&&&&&&&o +OOX.X@X@@@OX.$@@X@X.XX.+ o&&&&&&&&&&&&&&&&",
"&&&&&&&&&&&&&&&o +OXX@.X@@@@OX.$@@@X.@XX.+ o&&&&&&&&&&&&&&&&",
"&&&&&&&&&&&&&&&o +.XX@@X@@@@OX.$$@@X@@XX.+ o&&&&&&&&&&&&&&&&",
"&&&&&&&&&&&&&&&o +@.@@@X@@@OOX..$$@X@@@.@+ o&&&&&&&&&&&&&&&&",
"&&&&&&&&&&&&&&&o ++@$$.X@OOO......@X.$$@++ o&&&&&&&&&&&&&&&&",
"&&&&&&&&&&&&&&&&o +$.XX@@@@@@@@@@@@@XX.$+ o&&&&&&&&&&&&&&&&&",
"&&&&&&&&&&&&&&&&o +.X@@@OO.#OO.#O@.#@@X.+ o&&&&&&&&&&&&&&&&&",
"&&&&&&&&&&&&&&&&&o +@X@@O###O@.#O@.#@X@+ o&&&&&&&&&&&&&&&&&&",
"&&&&&&&&&&&&&&&&&o ++@@@X#@@X..#XX.#@@++ o&&&&&&&&&&&&&&&&&&",
"&&&&&&&&&&&&&&&&&&o ++@@X#@@X###X@.#@++ o&&&&&&&&&&&&&&&&&&&",
"&&&&&&&&&&&&&&&&&&&o ++@X#@@X#@@X@.#++ o&&&&&&&&&&&&&&&&&&&&",
"&&&&&&&&&&&&&&&&&&&&o +++@@@@@@@@@+++ o&&&&&&&&&&&&&&&&&&&&&",
"&&&&&&&&&&&&&&&&&&&&&o  +++@@@@@+++  o&&&&&&&&&&&&&&&&&&&&&&",
"&&&&&&&&&&&&&&&&&&&&&&oo  +++++++  oo&&&&&&&&&&&&&&&&&&&&&&&",
"&&&&&&&&&&&&&&&&&&&&&&&&oo       oo&&&&&&&&&&&&&&&&&&&&&&&&&",
"&&&&&&&&&&&&&&&&&&&&&&&&&&ooooooo&&&&&&&&&&&&&&&&&&&&&&&&&&&",
"&&&&&&&&&&&&&&&&&&&&&&&&&&&&&&&&&&&&&&&&&&&&&&&&&&&&&&&&&&&&",
"&&&&&&&&&&&&&&&&&&&&&&&&&&&&&&&&&&&&&&&&&&&&&&&&&&&&&&&&&&&&",
"&&&&&&&&&&&&&&&&&&&&&&&&&&&&&&&&&&&&&&&&&&&&&&&&&&&&&&&&&&&&",
"&&&&&&&&&&&&&&&&&&&&&&&&&&&&&&&&&&&&&&&&&&&&&&&&&&&&&&&&&&&&",
"&&&&&&&&&&&&&&&&&&&&&&&&&&&&&&&&&&&&&&&&&&&&&&&&&&&&&&&&&&&&",
"&&&&&&&&&&&&&&&&&&&&&&&&&&&&&&&&&&&&&&&&&&&&&&&&&&&&&&&&&&&&",
"&&&&&&&&&&&&&&&&&&&&&&&&&&&&&&&&&&&&&&&&&&&&&&&&&&&&&&&&&&&&",
"&&&&&&&&&&&&&&&&&&&&&&&&&&&&&&&&&&&&&&&&&&&&&&&&&&&&&&&&&&&&",
"&&&&&&&&&&&&&&&&&&&&&&&&&&&&&&&&&&&&&&&&&&&&&&&&&&&&&&&&&&&&",
"&&&&&&&&&&&&&&&&&&&&&&&&&&&&&&&&&&&&&&&&&&&&&&&&&&&&&&&&&&&&",
"&&&&&&&&&&&&&&&&&&&&&&&&&&&&&&&&&&&&&&&&&&&&&&&&&&&&&&&&&&&&",
"&&&&&&&&&&&&&&&&&&&&&&&&&&&&&&&&&&&&&&&&&&&&&&&&&&&&&&&&&&&&",
"&&&&&&&&&&&&&&&&&&&&&&&&&&&&&&&&&&&&&&&&&&&&&&&&&&&&&&&&&&&&",
"&&&&&&&&&&&&&&&&&&&&&&&&&&&&&&&&&&&&&&&&&&&&&&&&&&&&&&&&&&&&",
"&&&&&&&&&&&&&&&&&&&&&&&&&&&&&&&&&&&&&&&&&&&&&&&&&&&&&&&&&&&&",
"&&&&&&&&&&&&&&&&&&&&&&&&&&&&&&&&&&&&&&&&&&&&&&&&&&&&&&&&&&&&",
"&&&&&&&&&&&&&&&&&&&&&&&&&&&&&&&&&&&&&&&&&&&&&&&&&&&&&&&&&&&&"
};
