/* XPM */
static char *result[] = {
/* columns rows colors chars-per-pixel */
"60 60 16 1 ",
"  c black",
". c #010000",
"X c #010100",
"o c #010101",
"O c #000201",
"+ c #000102",
"@ c #020007",
"# c #020008",
"$ c #B47157",
"% c #BB7F5A",
"& c #C38360",
"* c #C18A61",
"= c #C38963",
"- c #C7966B",
"; c #D1A274",
": c None",
/* pixels */
"::::::::::::#    #::::::::::::::::::::::::#    #::::::::::::",
":::::::::::##$%*-##::::::::::::::::::::::##$%*-##:::::::::::",
":::::::::::#&$%*-;#::::::::::::::::::::::#&$%*-;#:::::::::::",
":::::::::::#&$%*-;#::::::::::::::::::::::#&$%*-;#:::::::::::",
":::::::::::#&$%*-;#::::::::::::::::::::::#&$%*-;#:::::::::::",
":::::::::::#&$=*-;#::::::::::::::::::::::#&$=*-;#:::::::::::",
":::::::::::#&$=*-;#::::::::::::::::::::::#&$=*-;#:::::::::::",
":::::::::::#&$=*-;#::::::::::::::::::::::#&$=*-;#:::::::::::",
":::::::::::#&$=*-;#::::::::::::::::::::::#&$=*-;#:::::::::::",
":::::::::::#&$=*-;#::::::::::::::::::::::#&$=*-;#:::::::::::",
"#####::#####&$=*-;##################::####&$=*-;############",
";;;;####;;$#&$=*-;#$;;;;;;;;;;;;;;;####;$#&$=*-;#$;;;;;;;;;;",
"==========$#&$=*-;#$====================$#&$=*-;#$==========",
"&&&&&&&&&$$#&$=*-;#$$&&&######&&&&&&&&&$$#&$=*-;#$$&&&&&&&&&",
"$$$$$$$$$$$#&$=*-;#$$$$##::::##$$$$$$$$$$#&$=*-;#$####$$$$$$",
"############&$=*-;######::::::############&$=*-;###::#######",
":::::::::::#&$=*-;#::::::::::::::::::::::#&$=*-;#:::::::::::",
":::::::::::#&$=*-;#::::::::::::::::::::::#&$=*-;#:::::::::::",
":::::::::::#&$=*-;#::::::::::::::::::::::#&$=*-;#:::::::::::",
":::::::::::#&$=*-;#::::::::::::::::::::::#&$=*-;#:::::::::::",
"############&$=*-;#################::#####&$=*-;############",
";;;;;;;;;;$#&$=*-;#;;;;;;;;;;;;;;;#::#;;$#&$=*-;#$;;;;;;;;;;",
"==========$#&$=*-;#===============####==$#&$=*-;#$==========",
"&&&&&&&&&$$#&$=*-;#&&&&&&&&&&&&&&&&&&&&$$#&$=*-;#$$&&&&&&&&&",
"$####$$$$$$#&$=*-;#$$$$$$$$$$$$$$$$$$$$$$#&$=*-;#$$$$####$$$",
"##::########&$=*-;########################&$=*-;######::####",
":::::::::::#&$=*-;#::::::::::::::::::::::#&$=*-;#:::::::::::",
":::::::::::#&$=*-;#::::::::::::::::::::::#&$=*-;#:::::::::::",
":::::::::::#&$=*-;#::::::::::::::::::::::#&$=*-;#:::::::::::",
":::::::::::#&$=*-;#::::::::::::::::::::::#&$=*-;#:::::::::::",
":::::::::::#&$=*-;#::::::::::::::::::::::#&$=*-;#:::::::::::",
":::::::::::#&$=*-;#::::::::::::::::::::::#&$=*-;#:::::::::::",
"###:########&$=*-;########################&$=*-;############",
";;###;;;;;$#&$=*-;#;;;;;;;;;;;;;;;;;;;;;$#&$=*-;#$;;;;;;;;;;",
"==========$#&$=*-;#=====================$#&$=*-;#$==========",
"&&&&&&&&&$$#&$=*-;#&&&&&&&&&&&&&&&&&&&&$$#&$=*-;#$$&&&&==&&&",
"$$$$$$$$$$$#&$=*-;#$$$$#####$$$$$$####$$$#&$=*-;#$$$$$$###$$",
"############&$=*-;######:::########::#####&$=*-;########:###",
":::::::::::#&$=*-;#::::::::::::::::::::::#&$=*-;#:::::::::::",
":::::::::::#&$=*-;#::::::::::::::::::::::#&$=*-;#:::::::::::",
":::::::::::#&$=*-;#::::::::::::::::::::::#&$=*-;#:::::::::::",
":::::::::::#&$=*-;#::::::::::::::::::::::#&$=*-;#:::::::::::",
"############&$=*-;#@##@@#####:::########@#&$=*-;###::#######",
";;;;;;;;;;$#&$=*-;#$;;;;;;;;#####;;;;;;;$#&$=*-;#$####;;;;;;",
"=======&&$$#&$=*-;#$====================$#&$=*-;#$==========",
"&&&&&&&&&$$#&$=*-;#$$####===&&&&&&&&&&&$$#&$=*-;#$$&&&&&&&&&",
"$$$$$$####$#&$=*-;#$$#::#$$$$$$$$$$####$$#&$=*-;#$$$$$$$$$$$",
"#######::###&$=*-;####::############::####&$=*-;############",
":::::::::::#&$=*-;#::::::::::::::::::::::#&$=*-;#:::::::::::",
":::::::::::#&$=*-;#::::::::::::::::::::::#&$=*-;#:::::::::::",
":::::::::::#&$=*-;#::::::::::::::::::::::#&$=*-;#:::::::::::",
":::::::::::#&$=*-;#::::::::::::::::::::::#&$=*-;#:::::::::::",
":::::::::::#&$=*-;#::::::::::::::::::::::#&$=*-;#:::::::::::",
":::::::::::#&$=*-;#::::::::::::::::::::::#&$=*-;#:::::::::::",
":::::::::::#&$=*-;#::::::::::::::::::::::#&$=*-;#:::::::::::",
":::::::::::#&$=*-;#::::::::::::::::::::::#&$=*-;#:::::::::::",
":::::::::::#&$=*-;#::::::::::::::::::::::#&$=*-;#:::::::::::",
":::::::::::#&$=*-;#::::::::::::::::::::::#&$=*-;#:::::::::::",
":::::::::::# $=*- #::::::::::::::::::::::# $=*- #:::::::::::",
"::::::::::::Xo+O .::::::::::::::::::::::::Xo+O .::::::::::::"
};
