/* XPM */
static char *result[] = {
/* columns rows colors chars-per-pixel */
"60 60 10 1 ",
"  c #020007",
". c #020008",
"X c #B47157",
"o c #BB7F5A",
"O c #C38360",
"+ c #C18A61",
"@ c #C38963",
"# c #C7966B",
"$ c #D1A274",
"% c None",
/* pixels */
"%%%%%%%%%%..OXo+#$..%%%%%%%%%%%%%%%%%%%%..OXo+#$..%%%%%%%%%%",
"%%%%%%%%%%..OXo+#$..%%%%%%%%%%%%%%%%%%%%..OXo+#$..%%%%%%%%%%",
"%%%%%%%%%%..OXo+#$..%%%%%%%%%%%%%%%%%%%%..OXo+#$..%%%%%%%%%%",
"%%%%%%%%%%..OXo+#$..%%%%%%%%%%%%%%%%%%%%..OXo+#$..%%%%%%%%%%",
"%%%%%%%%%%..OXo+#$..%%%%%%%%%%%%%%%%%%%%..OXo+#$..%%%%%%%%%%",
"%%%%%%%%%%..OX@+#$..%%%%%%%%%%%%%%%%%%%%..OX@+#$..%%%%%%%%%%",
"%%%%%%%%%%..OX@+#$..%%%%%%%%%%%%%%%%%%%%..OX@+#$..%%%%%%%%%%",
"%%%%%%%%%%..OX@+#$..%%%%%%%%%%%%%%%%%%%%..OX@+#$..%%%%%%%%%%",
"%%%%%%%%%%..OX@+#$..%%%%%%%%%%%%%%%%%%%%..OX@+#$..%%%%%%%%%%",
".....%%.....OX@+#$..................%%%...OX@+#$............",
"............OX@+#$........................OX@+#$............",
"$$$$....$$..OX@+#$..$$$$$$$$$$$$$$$....$..OX@+#$..$$$$$$$$$$",
"@@@@@@@@@@..OX@+#$..@@@@@@@@@@@@@@@@@@@@..OX@+#$..@@@@@@@@@@",
"OOOOOOOOOX..OX@+#$..XOOO......OOOOOOOOOX..OX@+#$..XOOOOOOOOO",
"XXXXXXXXXX..OX@+#$..XXX........XXXXXXXXX..OX@+#$......XXXXXX",
"............OX@+#$.......%%%%.............OX@+#$............",
"............OX@+#$......%%%%%%............OX@+#$...%%.......",
"%%%%%%%%%%..OX@+#$..%%%%%%%%%%%%%%%%%%%%..OX@+#$..%%%%%%%%%%",
"%%%%%%%%%%..OX@+#$..%%%%%%%%%%%%%%%%%%%%..OX@+#$..%%%%%%%%%%",
"............OX@+#$.................%%.....OX@+#$............",
"............OX@+#$.................%%.....OX@+#$............",
"$$$$$$$$$$..OX@+#$..$$$$$$$$$$$$$$....$$..OX@+#$..$$$$$$$$$$",
"@@@@@@@@@@..OX@+#$..@@@@@@@@@@@@@@....@@..OX@+#$..@@@@@@@@@@",
"OOOOOOOOOX..OX@+#$..OOOOOOOOOOOOOOOOOOOX..OX@+#$..XOOOOOOOOO",
"X....XXXXX..OX@+#$..XXXXXXXXXXXXXXXXXXXX..OX@+#$..XXX....XXX",
"............OX@+#$........................OX@+#$............",
"..%%........OX@+#$........................OX@+#$......%%....",
"%%%%%%%%%%..OX@+#$..%%%%%%%%%%%%%%%%%%%%..OX@+#$..%%%%%%%%%%",
"%%%%%%%%%%..OX@+#$..%%%%%%%%%%%%%%%%%%%%..OX@+#$..%%%%%%%%%%",
"%%%%%%%%%%..OX@+#$..%%%%%%%%%%%%%%%%%%%%..OX@+#$..%%%%%%%%%%",
"%%%%%%%%%%..OX@+#$..%%%%%%%%%%%%%%%%%%%%..OX@+#$..%%%%%%%%%%",
"...%........OX@+#$........................OX@+#$............",
"............OX@+#$........................OX@+#$............",
"$$...$$$$$..OX@+#$..$$$$$$$$$$$$$$$$$$$$..OX@+#$..$$$$$$$$$$",
"@@@@@@@@@@..OX@+#$..@@@@@@@@@@@@@@@@@@@@..OX@+#$..@@@@@@@@@@",
"OOOOOOOOOX..OX@+#$..OOOOOOOOOOOOOOOOOOOX..OX@+#$..XOOOO@@OOO",
"XXXXXXXXXX..OX@+#$..XXX.....XXXXXX....XX..OX@+#$..XXXXX...XX",
"............OX@+#$........................OX@+#$............",
"............OX@+#$......%%%........%%.....OX@+#$........%...",
"%%%%%%%%%%..OX@+#$..%%%%%%%%%%%%%%%%%%%%..OX@+#$..%%%%%%%%%%",
"%%%%%%%%%%..OX@+#$..%%%%%%%%%%%%%%%%%%%%..OX@+#$..%%%%%%%%%%",
"............OX@+#$...........%%%..........OX@+#$...%%.......",
"............OX@+#$....  ................ .OX@+#$............",
"$$$$$$$$$$..OX@+#$..$$$$$$$$.....$$$$$$$..OX@+#$......$$$$$$",
"@@@@@@@OOX..OX@+#$..@@@@@@@@@@@@@@@@@@@@..OX@+#$..@@@@@@@@@@",
"OOOOOOOOOX..OX@+#$..X....@@@OOOOOOOOOOOX..OX@+#$..XOOOOOOOOO",
"XXXXXX......OX@+#$..X....XXXXXXXXXX....X..OX@+#$..XXXXXXXXXX",
"............OX@+#$....%%..................OX@+#$............",
".......%%...OX@+#$....%%............%%....OX@+#$............",
"%%%%%%%%%%..OX@+#$..%%%%%%%%%%%%%%%%%%%%..OX@+#$..%%%%%%%%%%",
"%%%%%%%%%%..OX@+#$..%%%%%%%%%%%%%%%%%%%%..OX@+#$..%%%%%%%%%%",
"%%%%%%%%%%..OX@+#$..%%%%%%%%%%%%%%%%%%%%..OX@+#$..%%%%%%%%%%",
"%%%%%%%%%%..OX@+#$..%%%%%%%%%%%%%%%%%%%%..OX@+#$..%%%%%%%%%%",
"%%%%%%%%%%..OX@+#$..%%%%%%%%%%%%%%%%%%%%..OX@+#$..%%%%%%%%%%",
"%%%%%%%%%%..OX@+#$..%%%%%%%%%%%%%%%%%%%%..OX@+#$..%%%%%%%%%%",
"%%%%%%%%%%..OX@+#$..%%%%%%%%%%%%%%%%%%%%..OX@+#$..%%%%%%%%%%",
"%%%%%%%%%%..OX@+#$..%%%%%%%%%%%%%%%%%%%%..OX@+#$..%%%%%%%%%%",
"%%%%%%%%%%..OX@+#$..%%%%%%%%%%%%%%%%%%%%..OX@+#$..%%%%%%%%%%",
"%%%%%%%%%%..OX@+#$..%%%%%%%%%%%%%%%%%%%%..OX@+#$..%%%%%%%%%%",
"%%%%%%%%%%..OX@+#$..%%%%%%%%%%%%%%%%%%%%..OX@+#$..%%%%%%%%%%"
};
